<?xml version="1.0" encoding="UTF-8"?>
<svg width="14px" height="14px" viewBox="0 0 14 14" version="1.1" xmlns="http://www.w3.org/2000/svg" xmlns:xlink="http://www.w3.org/1999/xlink">
    <title>icon-info</title>
    <g id="Page-1" stroke="none" stroke-width="1" fill="none" fill-rule="evenodd">
        <g id="Sample-Size-Calculator---Default" transform="translate(-796.000000, -529.000000)" fill="#CFCFCF" fill-rule="nonzero">
            <g id="Group-5" transform="translate(630.000000, 522.000000)">
                <path d="M172.627959,20.5938606 C176.217558,20.5938606 179.127959,17.6845097 179.127959,14.0938606 C179.127959,10.5053104 176.217558,7.59386064 172.627959,7.59386064 C169.038359,7.59386064 166.127959,10.5053104 166.127959,14.0938606 C166.127959,17.6845097 169.038359,20.5938606 172.627959,20.5938606 Z M172.627959,12.6785381 C172.019991,12.6785381 171.527152,12.1856989 171.527152,11.5777316 C171.527152,10.9697644 172.019991,10.4769252 172.627959,10.4769252 C173.235926,10.4769252 173.728765,10.9697644 173.728765,11.5777316 C173.728765,12.1856989 173.235926,12.6785381 172.627959,12.6785381 Z M173.781184,17.4486994 L171.474733,17.4486994 C171.301042,17.4486994 171.160217,17.3078735 171.160217,17.1341832 L171.160217,16.505151 C171.160217,16.3314607 171.301042,16.1906348 171.474733,16.1906348 L171.789249,16.1906348 L171.789249,14.5132155 L171.474733,14.5132155 C171.301042,14.5132155 171.160217,14.3723897 171.160217,14.1986994 L171.160217,13.5696671 C171.160217,13.3959768 171.301042,13.255151 171.474733,13.255151 L173.152152,13.255151 C173.325842,13.255151 173.466668,13.3959768 173.466668,13.5696671 L173.466668,16.1906348 L173.781184,16.1906348 C173.954875,16.1906348 174.0957,16.3314607 174.0957,16.505151 L174.0957,17.1341832 C174.0957,17.3078735 173.954875,17.4486994 173.781184,17.4486994 Z" id="icon-info"></path>
            </g>
        </g>
    </g>
</svg>