<?xml version="1.0" encoding="utf-8"?>
<svg role="img" aria-labelledby="thetitle thedescription" width="14px" height="20px" viewBox="0 0 14 20" version="1.1" 
  xmlns:xlink="http://www.w3.org/1999/xlink" 
  xmlns="http://www.w3.org/2000/svg">
  <title id="thetitle">Angel List</title>
  <desc id="thedescription">Created by Lunacy</desc>
  <path d="M13.4892 9.57428C13.1486 9.03396 12.5641 8.68618 11.7357 8.53029C12.3616 6.79951 12.8286 5.39841 13.137 4.32695C13.4454 3.25548 13.5996 2.51851 13.5996 2.11541C13.5996 1.58443 13.4592 1.1607 13.1785 0.844761C12.8976 0.528822 12.5227 0.370852 12.0533 0.370852C11.0958 0.370852 9.95464 2.27566 8.62917 6.0852C8.44491 6.60717 8.30244 7.01031 8.20119 7.29401C8.0815 6.93685 7.90645 6.42862 7.6765 5.76926C6.35103 1.92311 5.25556 0 4.39049 0C3.88429 0 3.48388 0.167142 3.18926 0.501468C2.89453 0.835915 2.74747 1.28675 2.74747 1.8545C2.74747 2.26657 2.90834 3.01521 3.23069 4.10037C3.55284 5.18557 4.0681 6.72629 4.77705 8.72267C4.53755 8.58532 4.32604 8.48708 4.14194 8.42735C3.95767 8.36779 3.783 8.33804 3.61729 8.33804C3.23073 8.33804 2.81864 8.55324 2.3816 8.98365C1.9444 9.41423 1.72579 9.8353 1.72579 10.2474C1.72579 10.3664 1.758 10.5358 1.82245 10.7556C1.8867 10.9754 1.98816 11.2455 2.1262 11.5661C1.38963 11.7219 0.851178 12.0148 0.510797 12.4452C0.170293 12.8758 0 13.4846 0 14.2721C0 14.9775 0.165663 15.6664 0.497029 16.3395C0.828355 17.0125 1.32543 17.6513 1.98816 18.2555C2.568 18.8049 3.26044 19.233 4.06605 19.5398C4.87146 19.8466 5.70215 20 6.55816 20C8.73042 20 10.5138 19.2651 11.9083 17.7955C13.3028 16.3257 14 14.437 14 12.1293C14 10.9664 13.8295 10.1148 13.4892 9.57428ZM5.85386 3.54363L7.34499 7.82941C6.9674 7.79296 6.69602 7.76985 6.53044 7.76071C6.36478 7.75175 6.25431 7.74698 6.19908 7.74698C6.02419 7.74698 5.88611 7.7676 5.78486 7.80878C5.6834 7.85003 5.60539 7.92097 5.55015 8.0217C4.90582 6.32757 4.4226 4.95851 4.10045 3.91453C3.7781 2.87058 3.61719 2.13797 3.61719 1.71669C3.61719 1.46944 3.67701 1.27254 3.79666 1.12602C3.9161 0.979711 4.07283 0.90625 4.26607 0.90625C4.51463 0.90625 4.74454 1.07339 4.95646 1.40764C5.16814 1.74208 5.46726 2.45387 5.85386 3.54363ZM12.1864 4.16856C11.8412 5.25376 11.3601 6.62967 10.7435 8.29636L9.00391 7.99416L10.3846 4.02437C10.7068 3.08132 11.0011 2.39661 11.2682 1.97076C11.5351 1.54495 11.7975 1.33203 12.0552 1.33203C12.2575 1.33203 12.4163 1.40545 12.5315 1.5518C12.6466 1.69836 12.7041 1.90435 12.7041 2.16994C12.7041 2.41719 12.5315 3.0834 12.1864 4.16856ZM2.38748 14.8213C2.1574 14.5191 1.97789 14.2903 1.84902 14.1344C1.79383 14.1894 1.75449 14.256 1.73167 14.3335C1.70868 14.4113 1.69717 14.5006 1.69717 14.6013C1.69717 15.1419 1.99608 15.6934 2.59456 16.2566C3.19288 16.8198 3.78199 17.1014 4.36183 17.1014C4.72982 17.1014 5.04738 16.9801 5.3145 16.7374C5.58141 16.4949 5.71487 16.204 5.71487 15.8651C5.71487 15.8101 5.70798 15.7346 5.69418 15.6385C5.68041 15.5423 5.65967 15.4441 5.63206 15.3431C5.72392 15.3706 5.80673 15.3912 5.88057 15.4049C5.9542 15.4187 6.03247 15.4256 6.11532 15.4256C6.19813 15.4256 6.2741 15.4118 6.34314 15.3843C6.41214 15.3569 6.48332 15.3111 6.55715 15.247L6.55715 15.3706C6.55715 16.1123 6.67447 16.7053 6.90921 17.1494C7.14392 17.5938 7.46361 17.8294 7.86877 17.8569L7.89639 17.7333L7.89639 17.6371C7.89639 17.5364 7.82505 17.2731 7.68237 16.8472C7.53949 16.4214 7.46836 16.0574 7.46836 15.7552C7.46836 15.2607 7.63615 14.7366 7.97231 14.1824C8.30827 13.6284 8.75236 13.1501 9.30466 12.747C9.56219 12.5638 9.93499 12.3783 10.423 12.1907C10.9108 12.0031 11.2328 11.8358 11.3895 11.6893C11.3619 11.4969 11.3087 11.3527 11.2307 11.2565C11.1525 11.1604 11.0489 11.1123 10.9201 11.1123L10.354 11.1123C8.78903 11.1123 7.65689 10.9729 6.95752 10.6933C6.25799 10.4141 5.90819 9.96322 5.90819 9.34031C5.90819 9.07476 5.97723 8.88703 6.11532 8.77712C6.25336 8.66726 6.48811 8.6123 6.81944 8.6123C8.00682 8.6123 9.14589 8.73595 10.2366 8.9832C11.3274 9.23045 12.0612 9.50994 12.4388 9.82111C12.6505 9.98597 12.8023 10.2492 12.8944 10.611C12.9863 10.9729 13.0325 11.4605 13.0325 12.0739C13.0325 14.0794 12.4271 15.7483 11.2169 17.0808C10.0065 18.4131 8.50389 19.0792 6.70901 19.0792C5.73335 19.0792 4.84279 18.8851 4.03743 18.4955C3.23181 18.1063 2.55777 17.5502 2.01472 16.8267C1.65574 16.3597 1.38174 15.8949 1.19321 15.4324C1.00448 14.9702 0.910156 14.5512 0.910156 14.1756C0.910156 13.7086 1.04591 13.3033 1.31745 12.9599C1.58879 12.6165 1.88565 12.4448 2.208 12.4448C2.35506 12.4448 2.55084 12.5526 2.79477 12.7676C3.03849 12.9829 3.34474 13.324 3.7129 13.791C4.03509 14.1941 4.28799 14.5557 4.47229 14.8762C4.65636 15.1969 4.74843 15.4257 4.74843 15.563C4.74843 15.6821 4.67938 15.7966 4.54134 15.9064C4.40325 16.0163 4.2466 16.0713 4.07193 16.0713C3.55625 16.0713 2.99497 15.6546 2.38748 14.8213ZM5.99099 14.4646C6.14743 14.4646 6.28994 14.3939 6.41897 14.2517C6.54784 14.1098 6.61226 13.9564 6.61226 13.7915C6.61226 13.6177 6.48568 13.2125 6.23258 12.5758C5.97927 11.9394 5.66417 11.3144 5.28683 10.7008C5.0107 10.243 4.73916 9.89729 4.47224 9.66374C4.20513 9.43023 3.95219 9.31348 3.71285 9.31348C3.51957 9.31348 3.30556 9.43504 3.07081 9.67752C2.8361 9.9202 2.71875 10.1468 2.71875 10.3575C2.71875 10.5772 2.83381 10.907 3.06393 11.3465C3.29388 11.7861 3.60238 12.2531 3.98898 12.7476C4.39398 13.2881 4.77595 13.7091 5.13494 14.0114C5.49392 14.3136 5.77911 14.4646 5.99099 14.4646ZM8.90564 11.9921C8.50986 11.9738 8.13461 11.9326 7.78042 11.8685C7.42606 11.8046 7.08777 11.7128 6.76563 11.5938C6.91268 11.887 7.04389 12.1798 7.15915 12.4729C7.27417 12.7661 7.36837 13.0545 7.44221 13.3383C7.66311 13.0635 7.89552 12.8142 8.13944 12.5896C8.38312 12.3653 8.63856 12.166 8.90564 11.9921Z" fill="#291C45" fill-rule="evenodd" stroke="none" />
</svg>