<?xml version="1.0" encoding="UTF-8"?>
<svg width="116px" height="116px" viewBox="0 0 116 116" version="1.1" xmlns="http://www.w3.org/2000/svg" xmlns:xlink="http://www.w3.org/1999/xlink">
    <!-- Generator: Sketch 55.2 (78181) - https://sketchapp.com -->
    <title>app-store-1</title>
    <desc>Created with Sketch.</desc>
    <defs>
        <linearGradient x1="50%" y1="100%" x2="50%" y2="0%" id="linearGradient-1">
            <stop stop-color="#1D76F2" offset="0%"></stop>
            <stop stop-color="#1AC2FB" offset="100%"></stop>
        </linearGradient>
    </defs>
    <g id="integrations-table" stroke="none" stroke-width="1" fill="none" fill-rule="evenodd">
        <g id="Artboard" transform="translate(-1258.000000, -178.000000)" fill-rule="nonzero">
            <g id="app-store-1" transform="translate(1258.000000, 178.000000)">
                <polygon id="Path" fill="url(#linearGradient-1)" points="0 0 116 0 116 116 0 116"></polygon>
                <path d="M37.7226562,84.4511719 L37.733418,84.4545703 L33.8198906,91.2329805 C32.3914141,93.7072695 29.2273555,94.5550664 26.7530664,93.1264766 C24.2788906,91.6981133 23.4310937,88.5340547 24.8595703,86.0597656 L27.7425781,81.0663281 L28.0192109,80.5871484 C28.5133437,79.8767617 29.7327031,78.6512852 32.1717617,78.8815859 C32.1717617,78.8815859 37.9113828,79.5045195 38.3266719,82.487668 C38.3267852,82.487668 38.3834258,83.4693633 37.7226562,84.4511719 L37.7226562,84.4511719 Z M93.2302422,67.1380586 L81.0263398,67.1380586 C80.1953086,67.0824375 79.8322422,66.7856406 79.6898477,66.6131133 L79.6807852,66.5973672 L66.6168516,43.9701172 L66.5999727,43.9814453 L65.8164062,42.8580352 C64.5324766,40.8945313 62.4935273,45.9166289 62.4935273,45.9166289 C60.0591133,51.5126094 62.8389219,57.8750508 63.8082695,59.798 L81.953207,91.225957 C83.3815703,93.7002461 86.5456289,94.548043 89.019918,93.1194531 C91.4940938,91.6910898 92.3418906,88.5270313 90.9134141,86.0527422 L86.3760469,78.1939688 C86.2882539,78.0036563 86.1352109,77.4865273 87.0657031,77.4844883 L93.2302422,77.4844883 C96.0873086,77.4844883 98.403457,75.1683398 98.403457,72.3112734 C98.403457,69.454207 96.0873086,67.1380586 93.2302422,67.1380586 Z M69.5263672,74.1708984 C69.5263672,74.1708984 70.1777344,77.4844883 67.6572266,77.4844883 L65.1367188,77.4844883 L65.1367188,77.4844883 L22.5428555,77.4844883 C19.6857891,77.4844883 17.3696406,75.1683398 17.3696406,72.3112734 C17.3696406,69.454207 19.6857891,67.1380586 22.5428555,67.1380586 L34.1412695,67.1380586 C36.0138086,67.0295352 36.4577578,65.9486055 36.4577578,65.9486055 L36.4679531,65.9538164 L51.6077656,39.730793 L51.6032344,39.7298867 C51.8793008,39.223293 51.6494531,38.7446797 51.6094648,38.6688945 L46.6095703,30.0088828 C45.1809805,27.5345938 46.0287773,24.3706484 48.5030664,22.9421719 C50.9773555,21.513582 54.1411875,22.3613789 55.5697773,24.835668 L57.8886445,28.852168 L60.2034336,24.8428047 C61.6319102,22.3685156 64.7958555,21.5207188 67.2701445,22.9493086 C69.7444336,24.3778984 70.5922305,27.5418438 69.1636406,30.0160195 L48.0961602,66.5058359 C48.0040625,66.7279805 47.9758555,67.0766602 48.661207,67.1380586 L61.2541172,67.1380586 L61.2568359,67.2607422 C61.2568359,67.2607422 68.5351562,67.3740234 69.5263672,74.1708984 Z" id="Shape" fill="#FFFFFF"></path>
            </g>
        </g>
    </g>
</svg>