<?xml version="1.0" encoding="UTF-8"?>
<svg width="160px" height="20px" viewBox="0 0 160 20" version="1.1" xmlns="http://www.w3.org/2000/svg" xmlns:xlink="http://www.w3.org/1999/xlink">
    <!-- Generator: Sketch 55.2 (78181) - https://sketchapp.com -->
    <title>bwLogo</title>
    <desc>Created with Sketch.</desc>
    <g id="Page-1" stroke="none" stroke-width="1" fill="none" fill-rule="evenodd">
        <g id="07.-Customers" transform="translate(-529.000000, -1256.000000)" fill="#000000" fill-rule="nonzero">
            <g id="bwLogo" transform="translate(529.000000, 1256.000000)">
                <path d="M41.4371257,2.4691358 C39.760479,0.987654321 37.8443114,0 35.4491018,0 C33.0538922,0 30.8982036,0.987654321 29.2215569,2.4691358 C27.5449102,4.19753086 26.8263473,6.17283951 26.8263473,8.39506173 C26.8263473,10.8641975 27.5449102,12.8395062 29.2215569,14.3209877 C30.8982036,16.0493827 33.0538922,16.7901235 35.4491018,16.7901235 C37.8443114,16.7901235 39.760479,16.0493827 41.4371257,14.3209877 C43.1137725,12.8395062 44.0718563,10.8641975 44.0718563,8.39506173 C44.0718563,6.17283951 43.1137725,4.19753086 41.4371257,2.4691358 Z M40.239521,13.8271605 C39.0419162,15.308642 37.6047904,16.0493827 35.4491018,16.0493827 C33.2934132,16.0493827 31.6167665,15.308642 30.6586826,13.8271605 C29.4610778,12.0987654 28.9820359,10.3703704 28.9820359,8.39506173 C28.9820359,6.41975309 29.4610778,4.69135802 30.6586826,3.20987654 C31.6167665,1.72839506 33.2934132,0.740740741 35.4491018,0.740740741 C37.6047904,0.740740741 39.0419162,1.72839506 40.239521,3.20987654 C41.1976048,4.69135802 41.6766467,6.41975309 41.6766467,8.39506173 C41.6766467,10.3703704 41.1976048,12.0987654 40.239521,13.8271605 Z" id="Shape"></path>
                <path d="M59.6407186,2.4691358 C57.9640719,0.987654321 55.8083832,0 53.4131737,0 C51.257485,0 49.1017964,0.987654321 47.4251497,2.4691358 C45.748503,4.19753086 45.0299401,6.17283951 45.0299401,8.39506173 C45.0299401,10.8641975 45.748503,12.8395062 47.4251497,14.3209877 C49.1017964,16.0493827 51.257485,16.7901235 53.4131737,16.7901235 C55.8083832,16.7901235 57.9640719,16.0493827 59.6407186,14.3209877 C61.3173653,12.8395062 62.0359281,10.8641975 62.0359281,8.39506173 C62.0359281,6.17283951 61.3173653,4.19753086 59.6407186,2.4691358 Z M58.2035928,13.8271605 C57.245509,15.308642 55.5688623,16.0493827 53.4131737,16.0493827 C51.497006,16.0493827 49.8203593,15.308642 48.6227545,13.8271605 C47.6646707,12.0987654 47.1856287,10.3703704 47.1856287,8.39506173 C47.1856287,6.41975309 47.6646707,4.69135802 48.6227545,3.20987654 C49.8203593,1.72839506 51.497006,0.740740741 53.4131737,0.740740741 C55.5688623,0.740740741 57.245509,1.72839506 58.2035928,3.20987654 C59.4011976,4.69135802 59.8802395,6.41975309 59.8802395,8.39506173 C59.8802395,10.3703704 59.4011976,12.0987654 58.2035928,13.8271605 Z" id="Shape"></path>
                <path d="M10.0598802,7.90123457 L9.82035928,7.90123457 L10.0598802,7.65432099 C10.5389222,7.16049383 11.0179641,6.66666667 11.497006,6.17283951 C11.7365269,5.67901235 11.9760479,5.18518519 11.9760479,4.44444444 C11.9760479,3.20987654 11.497006,2.4691358 10.7784431,1.72839506 C9.82035928,0.987654321 8.62275449,0.49382716 6.94610778,0.49382716 L0.239520958,0.49382716 C0.239520958,0.49382716 0,0.49382716 0,0.740740741 L0,0.740740741 C0,0.740740741 0.239520958,0.740740741 0.239520958,0.740740741 C1.19760479,0.740740741 1.91616766,0.987654321 2.15568862,1.48148148 C2.39520958,1.72839506 2.63473054,2.71604938 2.63473054,4.19753086 L2.63473054,12.8395062 C2.63473054,14.3209877 2.39520958,15.0617284 2.15568862,15.5555556 C1.91616766,15.8024691 1.19760479,16.0493827 0.239520958,16.0493827 C0.239520958,16.0493827 0,16.2962963 0,16.2962963 L0,16.2962963 C0,16.2962963 0.239520958,16.5432099 0.239520958,16.5432099 L7.66467066,16.5432099 C9.58083832,16.5432099 10.7784431,16.0493827 11.7365269,15.308642 C12.6946108,14.3209877 13.1736527,13.3333333 13.1736527,12.0987654 C13.1736527,11.1111111 12.9341317,10.3703704 12.4550898,9.38271605 C11.7365269,8.64197531 11.0179641,8.14814815 10.0598802,7.90123457 Z M4.31137725,1.2345679 L6.94610778,1.2345679 C7.90419162,1.2345679 8.62275449,1.48148148 9.10179641,2.22222222 C9.58083832,2.71604938 9.82035928,3.45679012 9.82035928,4.44444444 C9.82035928,5.43209877 9.58083832,6.17283951 9.10179641,6.66666667 C8.62275449,7.40740741 7.90419162,7.65432099 6.94610778,7.65432099 L4.31137725,7.65432099 L4.31137725,1.2345679 Z M10.2994012,14.5679012 C9.82035928,15.308642 8.86227545,15.8024691 7.66467066,15.8024691 L6.94610778,15.8024691 C5.98802395,15.8024691 5.26946108,15.5555556 4.79041916,15.0617284 C4.5508982,14.8148148 4.5508982,13.8271605 4.5508982,12.345679 L4.5508982,8.39506173 L7.66467066,8.39506173 C8.86227545,8.39506173 9.82035928,8.64197531 10.2994012,9.38271605 C11.0179641,10.1234568 11.257485,10.8641975 11.257485,12.0987654 C11.257485,13.0864198 11.0179641,14.0740741 10.2994012,14.5679012 Z" id="Shape"></path>
                <path d="M26.8263473,13.0864198 L26.8263473,13.0864198 L26.8263473,13.0864198 C26.5868263,13.0864198 26.5868263,13.0864198 26.5868263,13.3333333 L26.5868263,13.5802469 C26.3473054,14.3209877 26.1077844,15.0617284 25.6287425,15.308642 C25.3892216,15.5555556 24.6706587,15.8024691 23.4730539,15.8024691 L20.3592814,15.8024691 C19.1616766,15.8024691 18.4431138,15.5555556 18.2035928,15.0617284 C17.7245509,14.8148148 17.7245509,13.8271605 17.7245509,12.345679 L17.7245509,4.19753086 C17.7245509,2.71604938 17.7245509,1.72839506 18.2035928,1.48148148 C18.4431138,0.987654321 18.9221557,0.740740741 20.1197605,0.740740741 C20.1197605,0.740740741 20.1197605,0.740740741 20.1197605,0.740740741 L20.1197605,0.740740741 C20.1197605,0.49382716 20.1197605,0.49382716 20.1197605,0.49382716 L13.4131737,0.49382716 C13.4131737,0.49382716 13.4131737,0.49382716 13.4131737,0.740740741 L13.4131737,0.740740741 C13.4131737,0.740740741 13.4131737,0.740740741 13.4131737,0.740740741 C14.3712575,0.740740741 15.0898204,0.987654321 15.3293413,1.48148148 C15.5688623,1.72839506 15.8083832,2.71604938 15.8083832,4.19753086 L15.8083832,12.8395062 C15.8083832,14.3209877 15.5688623,15.0617284 15.3293413,15.5555556 C15.0898204,15.8024691 14.3712575,16.0493827 13.4131737,16.0493827 C13.4131737,16.0493827 13.4131737,16.2962963 13.4131737,16.2962963 L13.4131737,16.2962963 C13.4131737,16.2962963 13.4131737,16.5432099 13.4131737,16.5432099 L26.5868263,16.5432099 C26.8263473,16.5432099 26.8263473,16.2962963 26.8263473,16.2962963 L27.0658683,13.3333333 C27.0658683,13.3333333 27.0658683,13.3333333 27.0658683,13.3333333 C27.0658683,13.0864198 26.8263473,13.0864198 26.8263473,13.0864198 Z" id="Path"></path>
                <path d="M81.4371257,0.24691358 L77.8443114,0.24691358 C77.8443114,0.24691358 77.6047904,0.24691358 77.6047904,0.24691358 L72.0958084,13.5802469 L66.5868263,0.24691358 C66.5868263,0.24691358 66.3473054,0.24691358 66.3473054,0.24691358 L62.2754491,0.24691358 C62.2754491,0.24691358 62.2754491,0.24691358 62.2754491,0.49382716 L62.2754491,0.49382716 C62.2754491,0.49382716 62.2754491,0.49382716 62.2754491,0.49382716 C63.4730539,0.740740741 63.9520958,0.740740741 64.1916168,1.2345679 C64.6706587,1.48148148 64.6706587,2.4691358 64.6706587,3.95061728 L64.6706587,12.5925926 C64.6706587,14.0740741 64.6706587,14.8148148 64.1916168,15.308642 C63.9520958,15.5555556 63.2335329,15.8024691 62.2754491,15.8024691 C62.2754491,15.8024691 62.2754491,16.0493827 62.2754491,16.0493827 L62.2754491,16.0493827 C62.2754491,16.0493827 62.2754491,16.2962963 62.2754491,16.2962963 L67.7844311,16.2962963 C67.7844311,16.2962963 68.0239521,16.0493827 68.0239521,16.0493827 L68.0239521,16.0493827 C68.0239521,16.0493827 68.0239521,15.8024691 67.7844311,15.8024691 C66.8263473,15.8024691 66.1077844,15.5555556 65.8682635,15.308642 C65.6287425,14.8148148 65.3892216,14.0740741 65.3892216,12.5925926 L65.3892216,2.4691358 L71.3772455,16.5432099 C71.3772455,16.5432099 71.6167665,16.5432099 71.6167665,16.5432099 C71.6167665,16.5432099 71.6167665,16.5432099 71.6167665,16.5432099 L77.3652695,3.20987654 L77.3652695,12.5925926 C77.3652695,14.0740741 77.1257485,14.8148148 76.8862275,15.308642 C76.4071856,15.5555556 75.9281437,15.8024691 74.9700599,15.8024691 C74.9700599,15.8024691 74.7305389,16.0493827 74.7305389,16.0493827 L74.7305389,16.0493827 C74.7305389,16.0493827 74.9700599,16.2962963 74.9700599,16.2962963 L81.4371257,16.2962963 C81.4371257,16.2962963 81.6766467,16.0493827 81.6766467,16.0493827 L81.6766467,16.0493827 C81.6766467,16.0493827 81.6766467,15.8024691 81.4371257,15.8024691 C80.4790419,15.8024691 79.760479,15.5555556 79.5209581,15.308642 C79.2814371,14.8148148 79.0419162,14.0740741 79.0419162,12.5925926 L79.0419162,3.95061728 C79.0419162,2.4691358 79.2814371,1.48148148 79.5209581,1.2345679 C79.760479,0.740740741 80.4790419,0.49382716 81.4371257,0.49382716 C81.4371257,0.49382716 81.6766467,0.49382716 81.6766467,0.49382716 L81.6766467,0.49382716 C81.6766467,0.24691358 81.4371257,0.24691358 81.4371257,0.24691358 Z" id="Path"></path>
                <path d="M157.60479,2.4691358 C156.167665,0.987654321 154.011976,0.24691358 151.377246,0.24691358 L144.431138,0.24691358 C144.431138,0.24691358 144.191617,0.24691358 144.191617,0.49382716 L144.191617,0.49382716 C144.191617,0.49382716 144.431138,0.49382716 144.431138,0.49382716 C145.389222,0.740740741 146.107784,0.740740741 146.347305,1.2345679 C146.586826,1.48148148 146.826347,2.4691358 146.826347,3.95061728 L146.826347,12.5925926 C146.826347,14.0740741 146.586826,14.8148148 146.347305,15.308642 C146.107784,15.5555556 145.389222,15.8024691 144.431138,15.8024691 C144.431138,15.8024691 144.191617,16.0493827 144.191617,16.0493827 L144.191617,16.0493827 C144.191617,16.0493827 144.431138,16.2962963 144.431138,16.2962963 L151.377246,16.2962963 C154.251497,16.2962963 156.407186,15.5555556 157.844311,14.0740741 C159.041916,12.5925926 160,10.617284 160,8.14814815 C159.760479,5.92592593 159.041916,3.95061728 157.60479,2.4691358 Z M156.167665,13.3333333 C155.209581,14.8148148 153.532934,15.5555556 151.377246,15.5555556 L151.137725,15.5555556 C149.94012,15.5555556 149.461078,15.308642 148.982036,14.8148148 C148.742515,14.5679012 148.502994,13.5802469 148.502994,12.0987654 L148.502994,0.987654321 L151.377246,0.987654321 C153.532934,0.987654321 155.209581,1.72839506 156.167665,3.20987654 C157.125749,4.69135802 157.60479,6.17283951 157.60479,8.14814815 C157.60479,10.1234568 157.125749,11.8518519 156.167665,13.3333333 Z" id="Shape"></path>
                <path d="M143.233533,12.8395062 L143.233533,12.8395062 L143.233533,12.8395062 C143.233533,12.8395062 143.233533,12.8395062 143.233533,13.0864198 L142.994012,13.3333333 C142.754491,14.0740741 142.51497,14.8148148 142.275449,15.0617284 C141.796407,15.308642 141.077844,15.5555556 139.88024,15.5555556 L136.766467,15.5555556 C135.568862,15.5555556 134.850299,15.308642 134.610778,14.8148148 C134.371257,14.5679012 134.131737,13.5802469 134.131737,12.0987654 L134.131737,3.95061728 C134.131737,2.4691358 134.371257,1.48148148 134.610778,1.2345679 C134.850299,0.740740741 135.568862,0.49382716 136.526946,0.49382716 C136.526946,0.49382716 136.766467,0.49382716 136.766467,0.49382716 L136.766467,0.49382716 C136.766467,0.24691358 136.526946,0.24691358 136.526946,0.24691358 L130.05988,0.24691358 C129.820359,0.24691358 129.820359,0.24691358 129.820359,0.49382716 L129.820359,0.49382716 C129.820359,0.49382716 129.820359,0.49382716 130.05988,0.49382716 C131.017964,0.49382716 131.497006,0.740740741 131.976048,1.2345679 C132.215569,1.48148148 132.215569,2.4691358 132.215569,3.95061728 L132.215569,12.5925926 C132.215569,14.0740741 132.215569,14.8148148 131.736527,15.308642 C131.497006,15.5555556 131.017964,15.8024691 130.05988,15.8024691 C129.820359,15.8024691 129.820359,16.0493827 129.820359,16.0493827 L129.820359,16.0493827 C129.820359,16.0493827 129.820359,16.2962963 130.05988,16.2962963 L143.233533,16.2962963 C143.233533,16.2962963 143.233533,16.0493827 143.233533,16.0493827 L143.473054,13.0864198 C143.473054,13.0864198 143.473054,13.0864198 143.473054,13.0864198 C143.473054,12.8395062 143.473054,12.8395062 143.233533,12.8395062 Z" id="Path"></path>
                <path d="M128.143713,0.24691358 L121.676647,0.24691358 C121.676647,0.24691358 121.676647,0.24691358 121.676647,0.49382716 L121.676647,0.49382716 C121.676647,0.49382716 121.676647,0.49382716 121.676647,0.49382716 C122.634731,0.740740741 123.353293,0.740740741 123.592814,1.2345679 C123.832335,1.48148148 124.071856,2.4691358 124.071856,3.95061728 L124.071856,12.5925926 C124.071856,14.0740741 123.832335,14.8148148 123.592814,15.308642 C123.353293,15.5555556 122.634731,15.8024691 121.676647,15.8024691 C121.676647,15.8024691 121.676647,16.0493827 121.676647,16.0493827 L121.676647,16.0493827 C121.676647,16.0493827 121.676647,16.2962963 121.676647,16.2962963 L128.143713,16.2962963 C128.383234,16.2962963 128.383234,16.0493827 128.383234,16.0493827 L128.383234,16.0493827 C128.383234,16.0493827 128.383234,15.8024691 128.143713,15.8024691 C127.185629,15.8024691 126.706587,15.5555556 126.467066,15.308642 C125.988024,14.8148148 125.988024,14.0740741 125.988024,12.5925926 L125.988024,3.95061728 C125.988024,2.4691358 125.988024,1.48148148 126.467066,1.2345679 C126.706587,0.740740741 127.185629,0.49382716 128.143713,0.49382716 C128.383234,0.49382716 128.383234,0.49382716 128.383234,0.49382716 L128.383234,0.49382716 C128.383234,0.24691358 128.383234,0.24691358 128.143713,0.24691358 Z" id="Path"></path>
                <path d="M120.239521,0.24691358 L113.772455,0.24691358 C113.532934,0.24691358 113.532934,0.24691358 113.532934,0.49382716 L113.532934,0.49382716 C113.532934,0.49382716 113.532934,0.49382716 113.772455,0.49382716 C113.772455,0.49382716 114.251497,0.49382716 114.491018,0.49382716 L114.251497,0.49382716 C115.209581,0.49382716 115.688623,0.740740741 115.928144,1.2345679 C116.167665,1.48148148 116.167665,1.97530864 115.928144,2.71604938 L113.293413,11.8518519 C113.293413,11.8518519 113.053892,11.8518519 113.053892,11.8518519 L109.461078,0.24691358 L109.221557,0.24691358 L105.868263,11.8518519 C105.868263,11.8518519 105.628743,11.8518519 105.628743,11.8518519 C105.628743,11.8518519 105.628743,11.8518519 105.628743,11.8518519 L102.754491,2.71604938 C102.51497,1.97530864 102.51497,1.48148148 102.754491,1.2345679 C102.994012,0.987654321 103.473054,0.740740741 104.191617,0.49382716 C104.431138,0.49382716 104.431138,0.49382716 104.670659,0.49382716 C104.670659,0.49382716 104.670659,0.49382716 104.670659,0.49382716 L104.670659,0.49382716 C104.670659,0.49382716 104.670659,0.24691358 104.670659,0.24691358 L98.2035928,0.24691358 C97.9640719,0.24691358 97.9640719,0.24691358 97.9640719,0.49382716 L97.9640719,0.49382716 C97.9640719,0.49382716 97.9640719,0.49382716 97.9640719,0.49382716 C98.2035928,0.49382716 98.4431138,0.49382716 98.6826347,0.49382716 C99.8802395,0.740740741 100.359281,1.48148148 100.838323,2.96296296 L104.91018,16.2962963 L105.149701,16.2962963 L108.742515,4.69135802 C108.742515,4.69135802 108.742515,4.69135802 108.742515,4.69135802 L108.742515,4.69135802 C108.742515,4.69135802 108.982036,4.69135802 108.982036,4.69135802 L112.335329,16.2962963 L112.57485,16.2962963 L116.646707,2.96296296 C117.365269,1.2345679 117.60479,0.49382716 119.760479,0.49382716 L119.520958,0.49382716 C119.760479,0.49382716 120,0.49382716 120.239521,0.49382716 C120.239521,0.49382716 120.239521,0.49382716 120.239521,0.49382716 L120.239521,0.49382716 C120.239521,0.24691358 120.239521,0.24691358 120.239521,0.24691358 Z" id="Path"></path>
                <path d="M96.2874251,9.38271605 C96.7664671,9.13580247 97.005988,9.13580247 97.245509,8.88888889 C97.245509,8.88888889 97.245509,8.88888889 97.245509,8.88888889 C97.245509,8.64197531 97.4850299,8.39506173 97.7245509,7.90123457 L97.7245509,7.90123457 C98.2035928,7.90123457 98.4431138,7.65432099 98.6826347,7.65432099 C98.6826347,7.90123457 98.9221557,8.14814815 98.9221557,8.14814815 C99.8802395,8.14814815 99.4011976,6.91358025 98.6826347,7.65432099 C98.4431138,7.65432099 98.2035928,7.65432099 97.9640719,7.90123457 C98.2035928,7.40740741 98.2035928,7.16049383 98.4431138,6.91358025 L98.4431138,6.91358025 C98.4431138,6.66666667 98.6826347,6.41975309 98.6826347,6.17283951 C98.4431138,5.67901235 97.7245509,6.17283951 98.2035928,6.66666667 C98.2035928,7.16049383 97.9640719,7.40740741 97.7245509,7.90123457 C97.7245509,7.90123457 97.7245509,7.90123457 97.7245509,7.90123457 L97.7245509,7.90123457 C97.4850299,8.14814815 97.4850299,8.39506173 97.245509,8.64197531 C97.245509,8.39506173 97.245509,8.14814815 97.245509,8.14814815 C97.245509,8.14814815 97.245509,7.40740741 97.245509,7.16049383 C97.4850299,6.91358025 97.7245509,6.66666667 97.4850299,6.41975309 C97.245509,5.92592593 96.5269461,6.41975309 97.005988,7.16049383 L97.005988,7.16049383 C97.005988,7.16049383 97.005988,7.16049383 97.005988,7.16049383 C97.245509,7.40740741 97.005988,7.65432099 97.005988,8.14814815 C97.005988,8.14814815 97.005988,8.39506173 97.005988,8.64197531 C96.7664671,8.88888889 96.5269461,8.88888889 96.2874251,9.13580247 L96.2874251,9.13580247 C96.5269461,8.14814815 96.5269461,7.16049383 96.2874251,6.41975309 C95.3293413,7.16049383 95.0898204,9.62962963 95.5688623,10.8641975 C96.0479042,10.3703704 96.2874251,9.87654321 96.2874251,9.38271605 Z" id="Path"></path>
                <path d="M102.035928,10.8641975 C102.035928,10.617284 101.556886,10.8641975 101.556886,10.8641975 L101.556886,10.8641975 C101.077844,10.8641975 100.838323,10.8641975 100.359281,10.8641975 C100.598802,10.8641975 100.838323,10.3703704 100.838323,10.3703704 C101.796407,10.1234568 100.838323,9.13580247 100.598802,9.87654321 C100.598802,9.87654321 100.598802,10.1234568 100.838323,10.1234568 C100.598802,10.3703704 100.359281,10.8641975 100.11976,11.1111111 L100.11976,11.1111111 C99.8802395,11.1111111 99.4011976,11.3580247 99.1616766,11.3580247 C99.1616766,11.3580247 99.1616766,11.3580247 99.1616766,11.3580247 C98.9221557,11.3580247 98.6826347,11.6049383 98.4431138,11.8518519 C97.9640719,11.8518519 97.245509,11.8518519 96.7664671,11.8518519 C97.4850299,12.8395062 99.8802395,13.5802469 101.077844,13.0864198 C100.359281,12.345679 99.6407186,12.0987654 98.6826347,11.8518519 L98.6826347,11.8518519 C98.9221557,11.6049383 99.1616766,11.6049383 99.4011976,11.3580247 C99.4011976,11.6049383 99.6407186,11.6049383 99.8802395,11.6049383 C100.11976,11.8518519 100.359281,11.8518519 100.598802,12.0987654 C100.598802,12.0987654 100.838323,12.0987654 100.838323,12.0987654 L100.838323,12.0987654 C101.077844,12.5925926 101.796407,12.345679 101.317365,11.8518519 C101.317365,11.6049383 100.838323,11.8518519 100.838323,11.8518519 C100.598802,11.6049383 99.8802395,11.6049383 99.8802395,11.6049383 C99.6407186,11.3580247 99.6407186,11.3580247 99.4011976,11.3580247 C99.6407186,11.3580247 99.8802395,11.1111111 100.11976,11.1111111 L100.359281,11.1111111 C100.359281,11.1111111 100.359281,11.1111111 100.359281,11.1111111 C100.838323,11.1111111 101.077844,10.8641975 101.556886,11.1111111 C101.796407,11.8518519 102.51497,11.3580247 102.035928,10.8641975 Z" id="Path"></path>
                <path d="M91.9760479,15.5555556 C91.0179641,14.8148148 89.3413174,13.8271605 87.9041916,14.0740741 C88.3832335,15.308642 90.7784431,15.8024691 91.9760479,15.5555556 Z" id="Path"></path>
                <path d="M93.6526946,20 C93.8922156,18.5185185 93.1736527,17.037037 92.2155689,16.0493827 C91.9760479,17.2839506 92.6946108,19.2592593 93.6526946,20 Z" id="Path"></path>
                <path d="M91.497006,16.7901235 C91.257485,17.5308642 91.0179641,18.5185185 91.257485,19.2592593 C91.7365269,18.7654321 91.9760479,17.5308642 91.7365269,16.7901235 L91.497006,16.7901235 Z" id="Path"></path>
                <path d="M94.1317365,12.345679 C94.8502994,10.3703704 95.3293413,7.65432099 94.1317365,5.67901235 C92.9341317,7.16049383 93.1736527,10.8641975 94.1317365,12.345679 Z" id="Path"></path>
                <path d="M94.8502994,13.0864198 C95.8083832,14.8148148 99.4011976,15.8024691 101.077844,15.308642 C99.6407186,13.8271605 97.005988,12.5925926 94.8502994,13.0864198 Z" id="Path"></path>
                <path d="M90.2994012,18.2716049 L89.5808383,18.2716049 C88.8622754,18.2716049 88.1437126,18.2716049 87.6646707,18.0246914 C86.9461078,17.7777778 86.4670659,17.2839506 86.2275449,16.7901235 C85.748503,16.5432099 85.508982,16.0493827 85.2694611,15.308642 C85.2694611,14.8148148 85.0299401,14.3209877 85.0299401,13.5802469 C85.0299401,13.0864198 85.0299401,12.5925926 85.2694611,12.0987654 C85.2694611,11.6049383 85.508982,11.3580247 85.748503,10.8641975 L85.988024,10.3703704 C85.988024,10.3703704 85.988024,10.1234568 85.988024,10.1234568 C85.988024,10.1234568 85.988024,10.1234568 85.988024,10.1234568 L85.508982,10.617284 C84.7904192,10.8641975 84.3113772,11.6049383 83.8323353,12.345679 C83.3532934,13.0864198 83.1137725,13.8271605 83.1137725,14.8148148 C83.1137725,15.308642 83.3532934,16.0493827 83.3532934,16.5432099 C83.5928144,17.037037 83.8323353,17.5308642 84.3113772,18.0246914 C84.5508982,18.5185185 85.0299401,18.7654321 85.508982,19.0123457 C85.988024,19.2592593 86.7065868,19.5061728 87.4251497,19.5061728 C87.6646707,19.5061728 88.1437126,19.2592593 88.6227545,19.2592593 C88.8622754,19.0123457 89.3413174,19.0123457 89.8203593,18.7654321 L90.2994012,18.2716049 C90.2994012,18.2716049 90.2994012,18.2716049 90.2994012,18.2716049 C90.2994012,18.2716049 90.2994012,18.2716049 90.2994012,18.2716049 Z" id="Path"></path>
                <path d="M91.257485,0.740740741 C91.7365269,0.987654321 91.9760479,1.2345679 92.2155689,1.72839506 C92.4550898,2.22222222 92.6946108,2.71604938 92.6946108,3.20987654 C92.6946108,4.19753086 92.2155689,5.18518519 91.7365269,5.92592593 L91.257485,6.66666667 C91.257485,6.66666667 91.257485,6.66666667 91.257485,6.66666667 C91.257485,6.66666667 91.257485,6.66666667 91.257485,6.66666667 C91.257485,6.66666667 91.257485,6.66666667 91.257485,6.66666667 L91.9760479,6.41975309 C92.4550898,5.92592593 93.1736527,5.67901235 93.6526946,4.9382716 C94.1317365,4.44444444 94.3712575,3.7037037 94.3712575,2.96296296 C94.3712575,2.22222222 94.1317365,1.72839506 93.6526946,1.2345679 C93.1736527,0.49382716 92.2155689,0.24691358 91.257485,0.24691358 C91.257485,0.24691358 91.257485,0.24691358 91.0179641,0.24691358 C91.0179641,0.24691358 90.7784431,0.24691358 90.5389222,0.24691358 C90.5389222,0.24691358 90.5389222,0.24691358 90.5389222,0.24691358 C90.5389222,0.24691358 90.5389222,0.24691358 90.5389222,0.24691358 L91.257485,0.740740741 Z" id="Path"></path>
                <path d="M100.359281,17.5308642 L99.6407186,17.7777778 C99.4011976,17.7777778 99.4011976,17.7777778 99.1616766,17.7777778 C99.1616766,17.7777778 98.9221557,17.7777778 98.9221557,17.7777778 C98.6826347,17.7777778 98.4431138,17.7777778 98.2035928,17.7777778 C97.9640719,17.5308642 97.7245509,17.5308642 97.4850299,17.2839506 C97.245509,17.037037 97.005988,16.7901235 96.5269461,16.5432099 C96.2874251,16.0493827 95.8083832,15.5555556 95.3293413,15.0617284 C95.0898204,14.8148148 94.8502994,14.5679012 94.6107784,14.0740741 C94.3712575,13.8271605 94.1317365,13.5802469 94.1317365,13.3333333 C94.1317365,13.3333333 94.1317365,13.3333333 94.1317365,13.3333333 C94.1317365,13.0864198 94.3712575,13.0864198 94.3712575,13.0864198 C94.6107784,12.8395062 94.8502994,12.5925926 95.0898204,12.345679 C95.5688623,11.8518519 96.0479042,11.3580247 96.5269461,11.1111111 L96.7664671,11.1111111 C97.005988,11.1111111 97.9640719,10.8641975 98.9221557,10.1234568 C100.11976,9.38271605 101.077844,8.39506173 101.077844,8.39506173 C101.077844,8.39506173 99.6407186,8.64197531 98.4431138,9.38271605 C97.4850299,9.87654321 96.7664671,10.617284 96.5269461,10.8641975 C96.5269461,10.8641975 96.5269461,10.8641975 96.5269461,10.8641975 C96.0479042,11.3580247 95.3293413,11.6049383 94.8502994,12.0987654 C94.6107784,12.345679 94.3712575,12.5925926 94.1317365,12.8395062 C94.1317365,12.8395062 94.1317365,13.0864198 93.8922156,13.0864198 C93.8922156,13.0864198 93.8922156,13.0864198 93.8922156,13.0864198 C93.8922156,13.0864198 93.6526946,12.8395062 93.4131737,12.5925926 C93.1736527,12.0987654 92.6946108,11.6049383 92.2155689,11.1111111 C91.7365269,10.3703704 91.257485,9.87654321 91.0179641,9.13580247 C90.5389222,8.64197531 90.0598802,8.14814815 89.5808383,7.40740741 C89.3413174,6.91358025 89.1017964,6.41975309 88.8622754,6.17283951 C88.3832335,5.43209877 87.9041916,4.9382716 87.6646707,4.19753086 C87.4251497,3.7037037 87.4251497,3.20987654 87.4251497,2.71604938 C87.4251497,2.22222222 87.4251497,1.97530864 87.6646707,1.72839506 C87.6646707,1.2345679 88.1437126,0.987654321 88.3832335,0.740740741 L88.8622754,0.24691358 C88.8622754,0.24691358 88.8622754,0.24691358 88.8622754,0.24691358 C88.8622754,0.24691358 88.8622754,0.24691358 88.8622754,0.24691358 C88.1437126,-8.32667268e-16 87.1856287,0.740740741 87.1856287,0.740740741 C86.9461078,0.987654321 86.7065868,1.2345679 86.4670659,1.48148148 C86.2275449,1.72839506 85.988024,2.22222222 85.748503,2.71604938 C85.508982,2.96296296 85.508982,3.45679012 85.508982,3.95061728 C85.508982,4.44444444 85.748503,4.9382716 85.988024,5.43209877 C85.988024,6.17283951 86.4670659,6.66666667 86.7065868,7.16049383 C87.1856287,7.65432099 87.6646707,8.39506173 88.1437126,9.38271605 C88.8622754,10.1234568 89.3413174,11.1111111 90.0598802,12.0987654 C90.7784431,13.0864198 91.497006,14.0740741 92.4550898,15.0617284 C92.4550898,15.0617284 92.4550898,15.0617284 92.4550898,15.308642 C92.4550898,15.308642 92.4550898,15.308642 92.4550898,15.308642 C91.9760479,15.8024691 91.497006,16.0493827 91.0179641,16.5432099 C90.7784431,16.5432099 90.5389222,16.5432099 90.5389222,16.5432099 C89.5808383,16.5432099 88.8622754,16.7901235 88.3832335,17.2839506 L88.1437126,17.5308642 L88.3832335,17.5308642 C88.6227545,17.5308642 88.8622754,17.5308642 89.1017964,17.5308642 C89.8203593,17.5308642 90.5389222,17.2839506 91.0179641,16.7901235 L91.0179641,16.5432099 C91.497006,16.2962963 91.9760479,15.8024691 92.4550898,15.308642 C92.4550898,15.308642 92.4550898,15.308642 92.6946108,15.308642 C93.1736527,16.0493827 93.8922156,16.7901235 94.3712575,17.5308642 C94.8502994,18.0246914 95.3293413,18.5185185 95.8083832,18.7654321 C96.2874251,19.0123457 96.7664671,19.2592593 97.245509,19.2592593 C97.9640719,19.2592593 98.4431138,19.0123457 98.9221557,18.7654321 C99.1616766,18.5185185 99.4011976,18.2716049 99.8802395,18.0246914 L100.359281,17.5308642 C100.359281,17.5308642 100.359281,17.5308642 100.359281,17.5308642 C100.359281,17.5308642 100.359281,17.5308642 100.359281,17.5308642 Z" id="Path"></path>
            </g>
        </g>
    </g>
</svg>