<?xml version="1.0" encoding="UTF-8"?>
<svg width="40px" height="40px" viewBox="0 0 37 37" version="1.1" xmlns="http://www.w3.org/2000/svg" xmlns:xlink="http://www.w3.org/1999/xlink">
    <!-- Generator: Sketch 55.2 (78181) - https://sketchapp.com -->
    <title>cleo-logo new-01</title>
    <desc>Created with Sketch.</desc>
    <g id="integrations-table" stroke="none" stroke-width="1" fill="none" fill-rule="evenodd">
        <g id="Artboard" transform="translate(-2278.000000, -687.000000)" fill-rule="nonzero">
            <g id="cleo-logo-new-01" transform="translate(2278.000000, 687.000000)">
                <path d="M18.5,0 C8.28291243,0 0,8.28291243 0,18.5 C0,28.7170876 8.28291243,37 18.5,37 C28.7170876,37 37,28.7170876 37,18.5 C37,8.28291243 28.7170876,0 18.5,0 Z" id="Path" fill="#0815FF"></path>
                <g id="Group" transform="translate(5.985294, 13.058824)" fill="#FFFFFF">
                    <path d="M3.39185337,9.12377604 C1.50188473,9.12377604 0.0756763625,7.70255208 0.0756763625,5.81882812 C0.0756763625,3.93510417 1.50673578,2.51388021 3.4044661,2.51388021 C5.01695475,2.51388021 6.26173389,3.46489583 6.5508564,4.89575521 L5.03441852,4.89575521 C4.80156818,4.23572917 4.18645518,3.82911458 3.4044661,3.82911458 C2.88443366,3.82911458 2.43425633,4.00544271 2.10244458,4.33786458 C1.74443718,4.69726562 1.55136543,5.22335937 1.55718669,5.81979167 C1.55039522,6.41140625 1.74540739,6.9375 2.10535521,7.29882812 C2.43716696,7.63221354 2.88152303,7.80757812 3.39185337,7.80757812 C4.17966371,7.80757812 4.79962776,7.39710937 5.03344831,6.729375 L6.54988619,6.729375 C6.21904466,8.38184896 4.74238538,9.12377604 3.39185337,9.12377604 Z" id="Path"></path>
                    <rect id="Rectangle" x="7.45024086" y="0.0211979167" width="1.45725508" height="8.95901042"></rect>
                    <path d="M13.0832788,9.12377604 C11.1021105,9.12377604 9.71859132,7.76903646 9.71859132,5.83039063 C9.71859132,3.908125 11.118604,2.51291667 13.0473811,2.51291667 C14.01371,2.51291667 14.8393585,2.85111979 15.4350673,3.48994792 C16.0560016,4.15575521 16.3654985,5.08942708 16.3121369,6.128125 L11.1991314,6.128125 L11.2146548,6.27458333 C11.3223481,7.32388021 12.0344821,7.97523438 13.0726065,7.97523438 C13.7769788,7.97523438 14.3639557,7.66111979 14.628823,7.14851563 L16.1423502,7.14851563 C15.6688879,8.40690104 14.5647891,9.12377604 13.0832788,9.12377604 Z M13.0357385,3.66049479 C12.1897156,3.66049479 11.5581091,4.13552083 11.3029439,4.96416667 L11.2505526,5.13567708 L14.7772651,5.13567708 L14.7326354,4.96898438 C14.5123978,4.14997396 13.8778806,3.66049479 13.0357385,3.66049479 Z" id="Shape"></path>
                    <path d="M20.4442604,9.12377604 C18.5542917,9.12377604 17.1280834,7.70255208 17.1280834,5.81882813 C17.1280834,3.93510417 18.5533215,2.51388021 20.4442604,2.51388021 C22.3419907,2.51388021 23.7730501,3.93510417 23.7730501,5.81882813 C23.7730501,7.70255208 22.3419907,9.12377604 20.4442604,9.12377604 Z M20.4442604,3.87632813 C19.374119,3.87632813 18.5979512,4.69341146 18.5979512,5.81786458 C18.5979512,6.94328125 19.374119,7.75940104 20.4442604,7.75940104 C21.5144018,7.75940104 22.2905705,6.94231771 22.2905705,5.81786458 C22.2915398,4.69341146 21.5144018,3.87632813 20.4442604,3.87632813 Z" id="Shape"></path>
                    <ellipse id="Oval" cx="25.4447216" cy="8.36546875" rx="1" ry="1"></ellipse>
                </g>
            </g>
        </g>
    </g>
</svg>