<?xml version="1.0" encoding="utf-8"?>
<svg width="1440px" height="435px" viewBox="0 0 1440 435" version="1.1" 
  xmlns:xlink="http://www.w3.org/1999/xlink" 
  xmlns="http://www.w3.org/2000/svg">
  <desc>Created with Lunacy</desc>
  <defs>
    <path d="M0 0L1440 0L1440 435L0 435L0 0Z" id="path_1" />
    <clipPath id="mask_1">
      <use xlink:href="#path_1" />
    </clipPath>
  </defs>
  <g >
    <path d="M0 0L1440 0L1440 435L0 435L0 0Z" id="Mask" fill="#10C2ED" stroke="none" />
    <g clip-path="url(#mask_1)">
      <path d="M157.001 0C164.39 154.847 219.249 296.86 306.961 411L557.718 160.621C570.233 148.186 572.518 128.997 563.663 113.731C548.669 87.8928 537.097 59.8835 529.356 30.3169C524.684 12.5724 508.871 0.0341022 490.433 0.0341022L157.001 0ZM238.725 478.417L293 424.241C194.328 308.26 130.821 161.466 118.899 0.323262L40.7556 0.323262C16.4452 0.323262 -2.58528 21.4964 0.287455 45.5873C19.3179 206.572 82.5749 353.694 177.909 474.852C192.965 493.982 221.454 495.605 238.725 478.417Z" transform="matrix(0.5299193 0.8480481 -0.8480481 0.5299193 1496.648 84.97559)" fill="#10B1ED" fill-rule="evenodd" stroke="none" />
      <path d="M170.557 0C178.61 168.41 238.396 322.862 333.985 447L607.261 174.691C620.9 161.165 623.391 140.296 613.74 123.693C597.4 95.5914 584.788 65.1288 576.352 32.9724C571.26 13.6736 554.028 0.0370893 533.934 0.0370893L170.557 0ZM259.908 521.6L319 462.67C211.572 336.511 142.43 176.836 129.449 1.55137L44.3721 1.55137C17.9045 1.55137 -2.81469 24.5826 0.312963 50.7876C21.0321 225.899 89.9024 385.932 193.696 517.723C210.088 538.531 241.105 540.297 259.908 521.6Z" transform="matrix(-0.4067366 -0.9135455 0.9135455 -0.4067366 -119.6719 294.6475)"  fill="#10B1ED" fill-rule="evenodd" stroke="none" />
    </g>
  </g>
</svg>