<svg width="1440" height="301" viewBox="0 0 1440 301" fill="none" xmlns="http://www.w3.org/2000/svg">
<mask id="mask0" mask-type="alpha" maskUnits="userSpaceOnUse" x="0" y="0" width="1440" height="301">
<path d="M1440 0H0V301H1440V0Z" fill="white"/>
</mask>
<g mask="url(#mask0)">
<path d="M1440 0H0V301H1440V0Z" fill="#291C45"/>
<path fill-rule="evenodd" clip-rule="evenodd" d="M1377.63 482.847L1302.77 465.624C1278.99 460.116 1265.28 435.093 1273.58 412.154C1326.15 266.888 1417.81 135.02 1544.7 33.2884C1563.68 18.0434 1591.78 22.9247 1604.66 43.5411L1646.07 109.81C1515.28 205.598 1424.03 337.503 1377.63 482.847ZM1396.3 487.647C1446.93 352.577 1538.7 230.547 1666.54 141.951L1843.2 424.736C1852.97 440.372 1850.68 460.448 1838.06 473.845C1817 496.13 1799.3 520.836 1785.27 547.289C1776.97 562.916 1759.43 571.18 1742.22 567.178L1396.3 487.647Z" fill="#10C2ED"/>
<path fill-rule="evenodd" clip-rule="evenodd" d="M122.124 -203.27L200.174 -173.336C224.959 -163.788 235.956 -134.732 223.551 -111.266C144.97 37.3374 26.2968 165.562 -125.781 255.951C-148.529 269.503 -178.066 259.974 -188.831 235.794L-223.435 158.072C-68.051 74.682 50.183 -53.6447 122.124 -203.27ZM101.666 -210.565C26.7625 -72.58 -90.4896 45.0684 -241.577 121.152L-389.342 -210.825C-397.515 -229.181 -392.025 -250.489 -376.407 -263.016C-350.364 -283.846 -327.572 -307.799 -308.46 -334.194C-297.167 -349.786 -277.026 -356.028 -259.081 -349.087L101.666 -210.565Z" fill="#10C2ED"/>
</g>
</svg>
