<svg xmlns="http://www.w3.org/2000/svg" width="106" height="46" fill="none"><g clip-path="url(#dixa-logo)" fill-rule="evenodd" clip-rule="evenodd" fill="#5644D8"><path d="M63.652 12.46c.464 0 .835.353.835.777v18.937c0 .542-.255.801-.882.895-1.878.33-3.802.471-5.913.471-4.753 0-7.373-2.496-7.373-7.042v-1.696c0-4.57 2.55-6.995 7.373-6.995.858 0 2.273.07 3.502.235v-4.805c0-.424.394-.777.858-.777h1.6zm-2.597 8.338c-.951-.118-2.389-.141-3.432-.188-2.736 0-3.896 1.319-3.896 4.38v1.72c0 3.156 1.113 4.451 3.896 4.451.997 0 2.412-.07 3.432-.14V20.797zm9.831-2.591c.51 0 .928.353.928.8V32.74c0 .425-.417.801-.927.801h-1.554c-.51 0-.928-.353-.928-.8V19.008c0-.424.418-.801.928-.801h1.553zm.024-5.747c.487 0 .88.377.904.824v1.72c0 .447-.417.824-.904.824h-1.623c-.51 0-.905-.377-.905-.824v-1.72c0-.447.418-.824.904-.824h1.624zm13.727 13.12l5.565 6.924c.14.141.186.306.186.495 0 .259-.186.541-.673.541h-2.133c-.301 0-.464-.07-.65-.306l-4.243-5.37-4.243 5.323c-.232.283-.371.353-.742.353h-1.855c-.418 0-.626-.282-.626-.518 0-.094.023-.306.232-.518l5.449-6.76-5.148-6.453c-.116-.165-.209-.33-.209-.519 0-.353.302-.588.72-.588h2.017c.347 0 .58.14.834.494l3.71 4.781 3.78-4.805c.325-.376.487-.47.858-.47h1.809c.394 0 .672.259.672.588 0 .189-.116.354-.209.495l-5.1 6.312zm14.54-7.844c4.266 0 6.399 1.814 6.353 5.44v9.022c0 .541-.232.8-.881.895-1.879.33-3.78.47-5.82.47h-.696c-3.85 0-5.797-1.577-5.797-4.733v-.212c0-3.298 2.365-4.735 7.837-4.735h2.064v-.706c0-2.144-.788-2.874-3.107-2.874-1.995 0-3.478.118-4.777.212h-.185c-.766 0-.812-.518-.812-.683v-.966c0-.306.162-.683.904-.777 1.252-.188 2.69-.353 4.916-.353zm-3.433 11.07v.047c0 1.649.673 2.285 2.528 2.285h.556c.951 0 2.273-.07 3.27-.141v-4.64h-1.994c-3.71 0-4.36.777-4.36 2.45zM28.267 23.79l-4.707 2.638a.848.848 0 01-1.16-.307l-5.426-9.209c-.255-.4-.092-.895.302-1.13l4.707-2.639c3.014-1.695 6.84-.706 8.58 2.238.58.966.834 2.026.834 3.062a6.156 6.156 0 01-3.13 5.347zm13.17-14.556C36.245.4 24.72-2.614 15.7 2.497L.859 10.882a1.667 1.667 0 00-.627 2.285l12.87 21.81c.278.472.417.99.417 1.532v9.068c0 .33.371.541.673.377l4.035-2.285 2.759-1.555 13.565-7.678c6.029-3.416 9.414-9.634 9.414-15.993 0-3.133-.811-6.312-2.527-9.21z"/></g><defs><clipPath id="dixa-logo"><path fill="#fff" d="M0 0h105.529v46H0z"/></clipPath></defs></svg>