<?xml version="1.0" encoding="UTF-8"?>
<svg width="86px" height="79px" viewBox="0 0 86 68" version="1.1" xmlns="http://www.w3.org/2000/svg" xmlns:xlink="http://www.w3.org/1999/xlink">
    <!-- Generator: Sketch 52.6 (67491) - http://www.bohemiancoding.com/sketch -->
    <title>hellofresh-logo-vector</title>
    <desc>Created with Sketch.</desc>
    <g id="Page-1" stroke="none" stroke-width="1" fill="none" fill-rule="evenodd">
        <g id="hellofresh-logo-vector">
            <g id="Outline" fill="#FFFFFF">
                <path d="M84.4891892,12.24 C83.1527027,10.3259259 79.7243243,9.36888889 76.6445946,8.41185185 C70.8337838,6.54814815 70.3108108,5.84296296 67.4635135,4.73481481 C64.2094595,3.2237037 60.9554054,2.11555556 57.8175676,1.46074074 C51.0189189,1.38777878e-16 45.7310811,-0.0503703704 41.7216216,0.453333333 C31.4945946,1.71259259 21.0351351,6.64888889 14.0040541,13.3985185 C12.4351351,14.96 10.9824324,16.4207407 9.70405405,18.1333333 C6.15945946,22.8177778 3.6027027,28.6607407 2.96351351,34.3525926 C2.61486486,37.7777778 3.37027027,40.8503704 1.91756757,44.5274074 C0.581081081,47.8014815 -0.116216216,51.0755556 1.39459459,54.4 C2.09189189,56.0118519 3.19594595,57.3214815 5.46216216,58.5807407 C8.54189189,60.242963 11.6797297,60.242963 14.7013514,61.4518519 C15.5148649,61.7540741 19.5243243,64.0207407 21.6743243,64.7762963 C24.172973,65.682963 25.9743243,66.1362963 27.427027,66.4385185 C30.8554054,67.1940741 34.5743243,67.5466667 38.5256757,67.5466667 C44.2783784,67.4962963 50.6121622,66.5896296 57.4108108,63.8192593 C62.5243243,61.7540741 68.0445946,58.5807407 72.4027027,54.7022222 C74.6108108,52.7881481 76.1216216,50.8740741 77.4581081,49.1614815 C79.1432432,46.9955556 80.5378378,44.6281481 81.5256757,42.5125926 C82.8621622,39.7422222 83.7337838,36.9214815 84.3148649,34.2518519 C85.2445946,29.7688889 85.2445946,25.5881481 85.2445946,22.6162963 C85.2445946,20.0977778 85.9418919,17.9822222 85.7675676,15.8162963 C85.7675676,14.6577778 85.4189189,13.6 84.4891892,12.24 Z" id="Path"></path>
            </g>
            <g id="Logo" transform="translate(2.150000, 1.888889)">
                <g id="Group">
                    <path d="M82.6772727,12.1624258 C82.2081818,11.4054283 81.6218182,10.9007634 80.9181818,10.4465649 C80.8009091,10.3960984 80.7422727,10.3456319 80.5663636,10.2951654 C80.5077273,10.2446989 80.4490909,10.2446989 80.3904545,10.1942324 C79.0418182,9.53816794 77.4586364,9.18490246 75.8754545,8.68023749 C75.5236364,8.5793045 75.2890909,8.78117048 75.5236364,8.98303647 C79.2763636,12.7175573 79.6281818,15.6446141 75.4063636,11.2540288 C64.1481818,-0.454198473 44.6222727,0.100932994 43.3322727,0.201865988 C42.2181818,0.252332485 41.1040909,0.353265479 39.99,0.50466497 C29.9631818,1.86726039 20.2881818,6.51017812 13.3690909,13.0203562 C11.7859091,14.5343511 10.32,16.0988126 9.03,17.8146735 C5.57045455,22.3566582 3.28363636,27.6051739 2.58,33.0050891 C2.11090909,36.3863444 3.225,40.4741306 1.64181818,43.6535199 C-0.645,48.3469042 -0.0586363636,54.4533503 6.09818182,56.5224767 C6.86045455,56.7748092 7.91590909,57.0776081 8.67818182,57.2794741 C10.9063636,57.8346056 13.1931818,57.8850721 15.3040909,58.8439355 C15.7145455,58.995335 16.125,59.197201 16.4768182,59.399067 C16.8872727,59.600933 17.2390909,59.7523325 17.6495455,59.9541985 C19.2327273,60.7616624 20.8159091,61.5691264 22.575,62.1747243 C22.6336364,62.2251908 22.6922727,62.2251908 22.8095455,62.2756573 C22.9268182,62.3261238 23.1027273,62.3765903 23.22,62.4270568 C27.8522727,64.0419847 32.7777273,64.7485157 37.6445455,64.8494487 C38.4068182,64.8494487 39.1690909,64.8494487 39.9313636,64.7989822 C40.2831818,64.7989822 40.6936364,64.7485157 41.0454545,64.7485157 C41.8077273,64.6980492 42.57,64.6475827 43.2736364,64.5971162 C44.0359091,64.4961832 44.7981818,64.4457167 45.5018182,64.2943172 C45.8536364,64.2438507 46.2640909,64.1933842 46.6159091,64.1429177 C50.7204545,63.4363868 54.6490909,62.2756573 58.4018182,60.6102629 C58.8709091,60.4083969 59.2813636,60.206531 59.7504545,60.004665 C60.1609091,59.802799 60.63,59.5504665 61.0404545,59.3486005 C61.92,58.894402 62.7409091,58.4402036 63.5618182,57.9860051 C64.8518182,57.2290076 66.0245455,56.4720102 67.1386364,55.6645462 C67.725,55.2608142 68.2527273,54.8066158 68.7804545,54.4028838 C69.8359091,53.5449534 70.8913636,52.6365564 71.8295455,51.677693 C73.2368182,50.264631 74.5268182,48.7506361 75.6995455,47.1861747 C78.7486364,43.047922 80.8009091,38.3545377 81.9736364,33.408821 C82.0322727,33.1564885 82.0909091,32.9546226 82.0909091,32.7527566 C82.1495455,32.5508906 82.2081818,32.2985581 82.2081818,32.0966921 C82.8531818,28.7154368 83.0877273,25.2332485 82.8531818,21.6501272 C82.9118182,18.1174724 84.7881818,15.5436811 82.6772727,12.1624258 Z M28.8490909,8.68023749 C20.8745455,12.6166243 23.865,8.83163698 29.4940909,6.25784563 C38.4068182,2.22052587 48.0818182,3.53265479 48.0818182,3.53265479 C48.0818182,3.53265479 38.7,3.83545377 28.8490909,8.68023749 Z" id="Shape" fill="#291C45" fill-rule="nonzero"></path>
                    <g transform="translate(0.000000, 11.102629)">
                        <path d="M16.4768182,43.3002545 C15.8318182,42.6946565 14.8936364,41.8871925 14.3072727,43.7544529 C13.4863636,46.2777778 10.5545455,46.1768448 9.14727273,45.9749788 C8.97136364,45.9245123 8.79545455,45.8740458 8.67818182,45.8740458 C7.91590909,45.7226463 7.21227273,45.5207803 6.45,45.2179813 C0.293181818,43.1993215 -0.645,37.2947413 1.64181818,32.6013571 C1.64181818,32.6013571 -3.51818182,42.2909245 5.10136364,46.1263783 C7.91590909,47.3880407 11.1409091,47.3880407 13.9554545,48.7001696 C14.7763636,49.0534351 15.5386364,49.4571671 16.3009091,49.8608991 C17.8840909,50.6178965 19.4672727,51.475827 21.1677273,52.0814249 C21.3436364,52.1823579 21.5781818,52.2328244 21.8127273,52.3337574 C33.1881818,56.2196777 46.1468182,55.2103478 56.9359091,50.466497 C58.8122727,49.6590331 60.4540909,48.7001696 62.1545455,47.8422392 C65.4968182,46.1263783 68.6631818,43.6030534 68.6631818,43.6030534 C61.5095455,47.5899067 35.0059091,61.0139949 16.4768182,43.3002545" id="Path" fill="#291C45"></path>
                        <path d="M5.04272727,38.3545377 C6.50863636,37.4461408 7.50545455,38.7078032 8.20909091,39.6666667 C8.97136364,40.6255301 8.73681818,41.3825276 7.91590909,41.836726 C7.095,42.2909245 5.74636364,41.7862595 4.98409091,40.7769296 C4.22181818,39.8180662 4.39772727,39.1115352 4.63227273,38.7078032 L5.04272727,38.3545377 Z" id="Path" fill="#FFFFFF"></path>
                        <g transform="translate(12.313636, 0.504665)" fill="#291C45">
                            <g transform="translate(11.140909, 20.691264)">
                                <path d="M35.1818182,4.49151824 C34.83,2.57379135 33.4813636,1.81679389 31.3704545,2.17005937 C31.1945455,2.22052587 30.96,2.22052587 30.7840909,2.27099237 C30.8427273,2.11959288 30.8427273,2.01865988 30.7254545,2.01865988 C30.2563636,2.06912638 29.67,2.47285835 29.4940909,2.62425785 C29.3768182,2.72519084 29.1422727,2.87659033 28.9077273,3.12892282 C27.8522727,3.98685327 27.3831818,5.0466497 27.3831818,6.20737913 C27.3831818,8.22603902 28.8490909,9.28583545 30.2563636,10.2446989 C31.6636364,11.1530958 32.8363636,11.9100933 32.8363636,13.1717557 C32.8363636,14.2315522 32.0740909,14.6352841 31.3704545,14.7866836 C30.315,14.9380831 29.8459091,14.3829517 29.8459091,13.2726887 L29.8459091,12.4652248 C29.8459091,12.1624258 29.6113636,12.0110263 29.2595455,12.0614928 L28.9077273,12.1119593 L28.3213636,11.7586938 L27.4418182,12.4652248 C27.3245455,12.5661578 27.2659091,12.7175573 27.2659091,12.8184902 L27.2659091,13.7773537 C27.2659091,15.8969466 28.7904545,17.158609 31.3118182,16.8053435 C32.1327273,16.7044105 32.8363636,16.4016115 33.4813636,16.0483461 C33.54,15.9978796 33.54,15.9978796 33.5986364,15.9978796 C34.185,15.6446141 34.6540909,15.1904156 35.1818182,14.5848176 C35.2404545,14.4838846 35.0645455,14.3324852 35.0645455,14.2820187 C35.1818182,13.9792197 35.4163636,13.5754877 35.475,12.9194232 L35.3577273,12.9698897 C35.3577273,12.8689567 35.3577273,12.7175573 35.3577273,12.6166243 C35.3577273,10.6988974 34.0677273,9.63910093 32.3672727,8.4783715 C30.9013636,7.46904156 29.9631818,6.8129771 29.9631818,5.70271416 C29.9631818,4.99618321 30.3736364,4.34011874 31.3118182,4.18871925 C32.1913636,4.03731976 32.6604545,4.49151824 32.6604545,5.90458015 L32.6604545,6.30831213 C32.6604545,6.51017812 32.8363636,6.66157761 33.0709091,6.61111111 L34.6540909,6.35877863 C34.7127273,6.35877863 34.83,6.30831213 34.8886364,6.25784563 C35.2404545,6.10644614 35.7681818,5.65224767 35.8854545,5.50084818 C36.0613636,5.24851569 35.6509091,5.1475827 35.6509091,4.99618321 C35.7681818,5.0466497 35.475,4.59245123 35.1818182,4.49151824 Z" id="Path"></path>
                                <path d="M7.44681818,6.10644614 C7.38818182,6.10644614 7.27090909,6.15691264 7.095,6.20737913 C6.97772727,6.10644614 6.86045455,6.10644614 6.68454545,6.10644614 L1.46590909,6.8634436 L1.11409091,6.45971162 L0.469090909,6.96437659 C0.351818182,7.06530958 0.234545455,7.16624258 0.175909091,7.26717557 C0.117272727,7.36810857 0.0586363636,7.46904156 0.0586363636,7.56997455 L0.0586363636,20.7921968 C0.0586363636,21.0949958 0.293181818,21.2463953 0.645,21.1959288 L2.16954545,20.9435963 C2.28681818,20.9435963 2.34545455,20.8931298 2.46272727,20.8931298 C2.52136364,20.8931298 2.52136364,20.8426633 2.58,20.8426633 C2.81454545,20.7417303 3.40090909,20.1361323 3.40090909,20.1361323 C3.40090909,20.1361323 3.04909091,19.4800679 3.04909091,19.3286684 C3.04909091,19.2782019 2.93181818,19.1772689 2.81454545,19.0763359 L2.81454545,14.7866836 C2.81454545,14.6857506 2.93181818,14.5848176 3.04909091,14.5343511 L5.57045455,14.1810857 C5.68772727,14.1810857 5.74636364,14.1306192 5.86363636,14.0801527 C6.09818182,13.9792197 6.74318182,13.3736217 6.74318182,13.3736217 C6.74318182,13.3736217 6.86045455,12.8689567 6.86045455,12.7175573 C6.86045455,12.7175573 6.50863636,12.0110263 6.39136364,12.0110263 C6.33272727,12.0110263 6.15681818,12.1119593 5.98090909,12.2128923 C5.86363636,12.1624258 5.74636364,12.1119593 5.57045455,12.1624258 L3.04909091,12.5156913 C2.93181818,12.5661578 2.81454545,12.4652248 2.81454545,12.3642918 L2.81454545,8.88210348 C2.81454545,8.78117048 2.93181818,8.68023749 3.04909091,8.62977099 L6.68454545,8.07463953 C6.74318182,8.07463953 6.86045455,8.02417303 6.91909091,7.97370653 C7.03636364,7.87277354 7.85727273,7.21670908 7.85727273,7.21670908 C7.85727273,7.21670908 8.20909091,6.91391009 7.91590909,6.56064461 C7.91590909,6.71204411 7.56409091,6.10644614 7.44681818,6.10644614 Z" id="Path"></path>
                                <path d="M16.8286364,17.0072095 C16.7113636,17.0072095 16.7113636,16.956743 16.5940909,17.057676 L15.1281818,13.0203562 C15.0695455,12.9194232 14.7763636,12.3642918 14.8936364,12.3138253 C16.1836364,11.5568278 17.0631818,11.0521628 17.0631818,8.83163698 C17.0631818,6.40924512 16.4181818,4.69338422 13.1931818,5.1475827 L10.4959091,5.55131467 C10.6131818,5.34944869 10.6718182,5.19804919 10.6718182,5.19804919 C10.1440909,5.24851569 10.32,4.89525021 9.90954545,5.24851569 C9.73363636,5.45038168 9.38181818,5.65224767 9.20590909,5.80364716 C9.03,5.95504665 8.91272727,6.10644614 8.91272727,6.25784563 L8.91272727,19.5305344 C8.91272727,19.8333333 9.14727273,19.9847328 9.49909091,19.9342663 L11.0822727,19.6819338 C11.1409091,19.6819338 11.2581818,19.6314673 11.3168182,19.6314673 C11.4927273,19.5810008 12.1377273,18.9754029 12.1377273,18.9754029 C12.1377273,18.9754029 12.4309091,18.7230704 12.4895455,18.5212044 C12.4895455,18.5212044 12.0790909,18.2184054 11.7272727,18.0165394 L11.7272727,13.8782867 C11.7272727,13.7773537 11.8445455,13.6764207 11.9618182,13.6259542 L12.4895455,13.5250212 C12.6068182,13.4745547 12.7240909,13.5754877 12.7827273,13.6764207 L14.4245455,18.6726039 C14.5418182,18.9249364 14.835,19.0763359 15.1868182,19.0258694 L16.6527273,18.7735369 C16.8286364,18.7230704 16.8872727,18.7230704 16.9459091,18.6726039 C17.2390909,18.5212044 17.7081818,18.1174724 17.7081818,18.1174724 C17.7081818,18.1174724 17.8840909,17.9156064 17.8840909,17.8651399 C17.7668182,17.9156064 16.9459091,17.0072095 16.8286364,17.0072095 Z M12.7240909,11.6577608 L11.9031818,11.7586938 C11.7859091,11.8091603 11.6686364,11.7082273 11.6686364,11.6072943 L11.6686364,7.56997455 C11.6686364,7.46904156 11.7859091,7.36810857 11.9031818,7.31764207 L12.7240909,7.21670908 C13.9554545,7.06530958 14.3072727,7.46904156 14.3072727,9.23536896 C14.3072727,10.9007634 13.9554545,11.4558948 12.7240909,11.6577608 Z" id="Shape" fill-rule="nonzero"></path>
                                <path d="M26.0345455,15.6446141 C25.9759091,15.6446141 25.9172727,15.6446141 25.8586364,15.6446141 C25.8586364,15.4932146 25.8,15.3418151 25.6827273,15.3922816 L21.93,15.9474131 C21.8127273,15.9978796 21.6954545,15.8969466 21.6954545,15.7960136 L21.6954545,11.9100933 C21.6954545,11.8091603 21.8127273,11.7082273 21.93,11.6577608 L24.3340909,11.3044953 C24.4513636,11.2540288 24.5686364,11.2540288 24.6859091,11.1530958 C24.9790909,11.0016964 25.4481818,10.5474979 25.5068182,10.4465649 C25.5654545,10.3960984 25.6240909,10.1942324 25.6240909,10.1437659 C25.6827273,9.89143342 25.2136364,9.89143342 24.9204545,9.89143342 L24.9204545,9.74003393 C24.9204545,9.53816794 24.8031818,9.38676845 24.5686364,9.33630195 C24.51,9.33630195 24.4513636,9.33630195 24.3927273,9.33630195 L21.9886364,9.68956743 C21.8713636,9.74003393 21.7540909,9.63910093 21.7540909,9.53816794 L21.7540909,6.10644614 C21.7540909,6.00551315 21.8713636,5.90458015 21.9886364,5.85411366 L25.5654545,5.29898219 C25.6827273,5.24851569 25.7413636,5.24851569 25.8586364,5.19804919 C26.2104545,4.99618321 26.6795455,4.59245123 26.7381818,4.44105174 C26.8554545,4.28965225 26.5622727,4.13825276 26.5622727,3.93638677 C26.5622727,3.93638677 26.3863636,3.88592027 26.0931818,3.83545377 L26.0931818,3.63358779 C26.0931818,3.3307888 25.8,3.17938931 25.5068182,3.22985581 L20.1709091,4.03731976 L20.0536364,3.58312129 L19.1740909,4.28965225 C19.0568182,4.39058524 18.9981818,4.54198473 18.9981818,4.69338422 L18.9981818,17.9156064 C18.9981818,18.2184054 19.2913636,18.3698049 19.5845455,18.3193384 L25.4481818,17.4109415 C25.6240909,17.360475 25.7413636,17.360475 25.8,17.3100085 C26.0345455,17.2090755 26.7968182,16.6034775 26.7968182,16.6034775 C26.7968182,16.6034775 26.9727273,16.4016115 26.9727273,16.1997455 C26.9140909,16.351145 26.1518182,15.6446141 26.0345455,15.6446141 Z" id="Path"></path>
                                <path d="M45.9709091,12.9194232 C45.9709091,12.9194232 45.6777273,12.6670908 45.5018182,12.5661578 L45.5018182,0.756997455 C45.5018182,0.454198473 45.2672727,0.302798982 44.9154545,0.353265479 L43.9772727,0.50466497 L43.8013636,0.100932994 L43.1563636,0.656064461 C42.9804545,0.807463953 42.8045455,0.958863444 42.8045455,1.16072943 L42.8045455,6.45971162 C42.8045455,6.56064461 42.6872727,6.66157761 42.57,6.71204411 L40.1072727,7.06530958 C39.99,7.11577608 39.8727273,7.01484309 39.8727273,6.91391009 L39.8727273,1.61492791 C39.8727273,1.31212892 39.6381818,1.16072943 39.2863636,1.21119593 L38.3481818,1.36259542 L38.2309091,0.908396947 C38.2309091,0.908396947 37.5272727,1.46352841 37.4686364,1.51399491 C37.2927273,1.61492791 37.1754545,1.86726039 37.1754545,2.01865988 L37.1754545,15.2408821 C37.1754545,15.5436811 37.4686364,15.6950806 37.7618182,15.6446141 L39.1690909,15.4427481 C39.4036364,15.3922816 39.5795455,15.2913486 39.6968182,15.1904156 C39.8727273,15.0894826 40.2245455,14.8371501 40.3418182,14.6857506 C40.6936364,14.4334182 40.5177273,14.3829517 40.5177273,14.3829517 C40.5763636,14.0801527 40.4590909,13.8782867 40.3418182,13.7268872 C40.3418182,13.7268872 40.2831818,13.6764207 40.2831818,13.6764207 C40.1659091,13.4240882 40.1072727,13.2222222 40.0486364,13.2222222 C39.99,13.2222222 39.9313636,13.2726887 39.8727273,13.2726887 L39.8727273,9.38676845 C39.8727273,9.28583545 39.99,9.18490246 40.1072727,9.13443596 L42.57,8.78117048 C42.6872727,8.73070399 42.8045455,8.83163698 42.8045455,8.93256997 L42.8045455,14.3829517 C42.8045455,14.6857506 43.0390909,14.8371501 43.3909091,14.7866836 L44.9740909,14.5343511 C45.3259091,14.4838846 46.2054545,13.6259542 46.2054545,13.6259542 C46.2054545,13.6259542 45.9122727,13.0708227 45.9709091,12.9194232 Z" id="Path"></path>
                            </g>
                            <path d="M54.4731818,17.0072095 C56.7013636,13.3736217 56.9945455,6.35877863 53.535,5.1475827 C52.89,4.89525021 52.245,4.84478372 51.6586364,4.89525021 L51.5413636,4.59245123 C51.3654545,4.64291773 50.7204545,4.89525021 50.1927273,5.24851569 C49.6063636,5.65224767 48.9613636,6.20737913 48.8440909,6.45971162 C47.73,7.62044105 47.085,9.38676845 46.6745455,11.5063613 C46.5572727,12.3138253 46.1468182,13.3736217 45.795,14.2315522 C44.7395455,16.9062765 42.0422727,21.8519932 41.2213636,15.6950806 C43.3909091,13.0708227 47.5540909,2.11959288 43.4495455,0.756997455 L43.5081818,0.302798982 L43.1563636,0.151399491 C43.1563636,0.151399491 42.57,0.100932994 42.1009091,0.302798982 C41.5731818,0.555131467 40.8695455,1.26166243 40.5763636,1.6653944 C40.5177273,1.7158609 40.5177273,1.7158609 40.5177273,1.7663274 C39.4036364,3.22985581 38.7,5.80364716 38.4654545,8.37743851 C38.1722727,11.3044953 38.1136364,13.8278202 38.7586364,15.8464801 C39.0518182,16.8053435 38.9345455,17.158609 38.7586364,17.4109415 C37.5272727,19.0258694 33.1881818,22.7603902 32.6018182,16.0483461 C34.5954545,13.6764207 38.7,1.96819338 34.5954545,0.807463953 L34.6540909,0.706530958 L33.2468182,0.605597964 C33.2468182,0.605597964 32.8363636,0.958863444 32.4845455,1.26166243 C29.6113636,3.4317218 28.8490909,11.9100933 29.8459091,16.351145 C29.8459091,16.4016115 30.0218182,17.057676 30.0218182,17.2090755 L29.9045455,17.1081425 C29.6113636,17.4109415 26.0345455,22.1043257 22.7509091,21.3473282 C21.93,21.1959288 21.285,20.6407973 20.9918182,19.5305344 C20.8159091,18.9754029 20.7572727,18.0670059 20.6986364,17.461408 C20.6986364,17.158609 20.6986364,16.8053435 20.6986364,16.5025445 L20.6986364,16.452078 C20.8159091,16.5025445 20.9331818,16.5025445 21.0504545,16.5025445 C21.285,16.553011 21.5781818,16.553011 21.8127273,16.553011 C22.3404545,16.6034775 22.9268182,16.553011 23.5131818,16.4016115 C24.0995455,16.250212 24.8618182,15.9474131 25.3895455,15.5436811 C25.4481818,15.4932146 25.5068182,15.4427481 25.5654545,15.3922816 C25.6827273,15.2913486 26.2104545,14.8876166 26.445,14.6352841 C26.6795455,14.3829517 26.9140909,13.8782867 26.9140909,13.8782867 L26.6795455,13.9287532 C26.7381818,13.8278202 26.7968182,13.7268872 26.7968182,13.6259542 C26.8554545,13.5250212 26.8554545,13.3736217 26.9140909,13.2726887 C26.9727273,13.2222222 26.9727273,13.1717557 26.9727273,13.1212892 L26.9727273,13.0708227 L26.9727273,13.0203562 L26.9727273,12.9698897 L26.9727273,12.8689567 C27.09,12.0110263 27.0313636,11.1530958 26.6795455,10.2951654 C26.3863636,9.68956743 25.5068182,8.78117048 24.0995455,8.83163698 L24.7445455,8.32697201 C24.2168182,8.22603902 22.6336364,8.93256997 22.6336364,8.93256997 C22.6336364,8.93256997 21.1090909,9.99236641 20.3468182,10.8502969 C19.0568182,12.2128923 18.3531818,13.7268872 18.0013636,15.2408821 C17.2977273,15.1904156 16.5940909,15.1399491 15.8318182,15.0894826 L15.5386364,15.0390161 L15.48,14.9885496 C15.5386364,11.9605598 15.6559091,7.97370653 15.7731818,4.69338422 C15.8318182,3.78498728 15.3040909,3.3812553 14.7177273,3.22985581 L14.835,3.07845632 L15.4213636,2.82612383 C14.8936364,2.92705683 13.9554545,2.57379135 13.6622727,2.72519084 C13.3690909,2.82612383 12.9,3.22985581 12.8413636,3.3812553 C12.7827273,3.4821883 12.7240909,3.53265479 12.7827273,3.58312129 C12.9586364,5.0466497 13.0759091,9.99236641 12.9586364,14.8876166 C11.61,14.8371501 10.2027273,14.9380831 8.91272727,15.0390161 C8.56090909,15.0894826 8.15045455,15.1399491 7.85727273,15.1904156 C7.97454545,12.3138253 8.15045455,8.98303647 8.15045455,8.98303647 C8.20909091,7.82230704 7.44681818,7.46904156 6.62590909,7.36810857 L7.21227273,7.11577608 C6.91909091,7.06530958 6.03954545,6.61111111 5.45318182,7.11577608 C5.39454545,7.16624258 5.16,7.36810857 4.98409091,7.51950806 C4.92545455,7.56997455 4.86681818,7.62044105 4.86681818,7.67090755 C4.98409091,8.73070399 5.04272727,12.5156913 4.98409091,15.7455471 C3.75272727,16.1492791 2.63863636,16.6034775 1.99363636,16.9062765 C1.935,16.956743 1.87636364,16.956743 1.75909091,17.0072095 L1.46590909,17.0072095 C1.46590909,17.0072095 0.996818182,17.3100085 0.645,17.6128075 C0.0586363636,18.0165394 0.0586363636,18.6726039 0.234545455,19.1268024 C0.351818182,19.4800679 0.645,19.6314673 0.645,19.6314673 C0.762272727,19.6819338 0.820909091,19.6819338 0.938181818,19.6314673 C1.05545455,19.5810008 1.70045455,19.2277354 1.99363636,19.0763359 C2.11090909,18.9754029 2.28681818,18.9249364 2.40409091,18.8240034 C2.58,18.7230704 2.75590909,18.6726039 2.93181818,18.5716709 C3.57681818,18.2688719 4.04590909,17.9660729 4.86681818,17.663274 C4.86681818,18.1679389 4.80818182,18.6221374 4.80818182,19.1268024 C4.69090909,21.3473282 4.515,27.6051739 4.515,27.6051739 C4.33909091,30.8854962 6.15681818,30.3303647 7.62272727,30.1284987 C7.68136364,30.1284987 7.74,30.0780322 7.74,30.0780322 C7.91590909,30.0275657 8.385,29.6238338 8.56090909,29.4219678 C8.67818182,29.3210348 8.385,28.9677693 8.26772727,28.8163698 L7.79863636,28.5640373 L7.62272727,28.7154368 C7.44681818,26.192112 7.44681818,22.1043257 7.56409091,18.8744699 C7.56409091,18.2184054 7.56409091,17.5118745 7.62272727,16.754877 C8.03318182,16.653944 8.44363636,16.553011 8.85409091,16.452078 C10.0854545,16.1997455 11.3754545,15.9978796 12.7240909,15.8969466 C12.6654545,17.6128075 12.6068182,20.1865988 12.5481818,21.9024597 C12.3722727,24.980916 14.0727273,24.2239186 15.48,24.0220526 C15.5386364,24.0220526 15.5972727,23.9715861 15.6559091,23.9715861 C15.8318182,23.8201866 16.0663636,23.6687871 16.4181818,23.3155216 C16.5354545,23.2145886 16.3009091,22.9622561 16.2422727,22.7603902 L15.48,22.3061917 C15.3627273,20.4893978 15.3627273,18.1679389 15.3627273,15.8464801 L16.1836364,15.8969466 C16.6527273,15.9474131 17.1804545,15.9474131 17.7081818,15.9474131 C17.7081818,16.1492791 17.6495455,16.3006785 17.6495455,16.5025445 C17.6495455,16.85581 17.6495455,17.259542 17.7081818,17.6128075 C17.7668182,18.3193384 17.9427273,19.0763359 18.1772727,19.7324003 C18.4704545,20.3884648 18.8222727,21.0445293 19.35,21.5996607 C19.6431818,21.8519932 19.9363636,22.1043257 20.3468182,22.3061917 C25.2722727,24.4257846 29.2009091,18.5716709 29.9045455,17.461408 L29.9631818,17.562341 C32.1327273,25.2332485 38.2309091,18.6221374 38.8759091,17.259542 C40.3418182,20.4893978 41.9836364,20.8426633 43.5081818,19.6819338 C44.0945455,19.3286684 44.8568182,18.6221374 44.8568182,18.6221374 C44.8568182,18.6221374 45.0327273,18.4202714 44.8568182,18.3193384 C44.8568182,18.3193384 44.7981818,18.3193384 44.7395455,18.3193384 C45.3845455,17.4109415 46.0295455,16.1997455 46.4986364,14.9380831 C46.9090909,17.3100085 47.6127273,18.8744699 49.8995455,19.0763359 C50.4859091,19.1772689 51.1895455,19.0763359 51.8931818,18.8240034 C52.0690909,18.7735369 52.3036364,18.6726039 52.4795455,18.5212044 C52.5381818,18.4707379 52.5381818,18.4707379 52.5968182,18.4202714 C52.7140909,18.3193384 52.89,18.2184054 53.0072727,18.1174724 C53.3590909,17.8146735 53.8281818,17.4109415 53.8281818,17.4109415 C53.8281818,17.4109415 54.1213636,16.8053435 54.1213636,16.754877 C54.5318182,17.0072095 54.4731818,17.0072095 54.4731818,17.0072095 Z M20.8745455,15.3418151 C20.9918182,14.6857506 21.1677273,14.0296862 21.4022727,13.3736217 C21.6368182,12.7175573 21.93,12.0110263 22.2818182,11.4054283 C22.4577273,11.1026293 22.6922727,10.7998304 22.9854545,10.5474979 C23.2786364,10.2951654 23.5131818,10.0932994 23.8063636,10.0428329 C23.9236364,9.99236641 24.0409091,9.99236641 24.1581818,9.99236641 C24.2168182,9.99236641 24.2168182,9.99236641 24.2754545,9.99236641 L24.3340909,9.99236641 C24.3927273,9.99236641 24.3927273,10.0428329 24.3927273,10.0428329 C24.3927273,10.0428329 24.4513636,10.0428329 24.4513636,10.0932994 C24.51,10.0932994 24.51,10.1437659 24.51,10.1437659 C24.6859091,10.2446989 24.8618182,10.4970314 24.9204545,10.7998304 C24.9790909,11.1026293 25.0377273,11.4054283 24.9790909,11.7082273 C24.9204545,12.0110263 24.8618182,12.3642918 24.8031818,12.7175573 C24.6272727,13.3736217 24.2754545,13.8782867 23.865,14.3829517 C23.6890909,14.6352841 23.4545455,14.8371501 23.1027273,15.0390161 C22.8095455,15.1904156 22.4577273,15.3418151 22.0472727,15.4427481 C21.8713636,15.4932146 21.6368182,15.4932146 21.4609091,15.4932146 C21.4022727,15.4932146 21.1677273,15.4427481 20.9331818,15.4427481 L20.9331818,15.3418151 L20.8745455,15.3418151 Z M34.4781818,2.72519084 C35.8854545,3.02798982 33.8918182,11.5063613 32.1327273,14.3829517 C31.4877273,9.13443596 32.895,2.37192536 34.4781818,2.72519084 Z M43.215,2.57379135 C44.6222727,2.87659033 42.6872727,10.7493639 40.8695455,13.8278202 C40.2831818,8.427905 41.5731818,2.22052587 43.215,2.57379135 Z M52.5381818,16.9062765 C52.245,17.360475 52.0104545,17.6128075 51.7759091,17.8146735 C51.4827273,18.0165394 50.7790909,18.2688719 50.3686364,17.9156064 C48.5509091,16.4016115 48.6095455,10.0932994 50.31,7.46904156 C50.8963636,6.51017812 51.7759091,6.20737913 52.3622727,6.15691264 C53.0072727,6.15691264 53.4177273,6.7625106 53.535,6.96437659 C54.8836364,9.13443596 54.0040909,14.5343511 52.5381818,16.9062765 Z" id="Shape" fill-rule="nonzero"></path>
                        </g>
                        <path d="M66.6695455,4.89525021 C65.3209091,4.39058524 64.2068182,4.64291773 63.0927273,5.29898219 C61.1577273,6.40924512 60.2195455,8.528838 59.8090909,11.2540288 C59.6918182,12.1119593 59.2813636,13.1212892 58.9295455,13.9792197 C57.8740909,16.653944 55.1768182,21.5996607 54.3559091,15.4427481 C56.6427273,12.7175573 60.9818182,1.11026293 56.115,0.403731976 C53.3004545,-0.050466497 51.8345455,4.13825276 51.4240909,8.22603902 C51.1309091,11.2540288 51.2481818,13.7773537 51.7759091,15.7960136 C51.3654545,16.3006785 46.3813636,23.5678541 45.6777273,15.8464801 C47.6713636,13.4240882 51.8345455,1.56446141 47.5540909,0.555131467 C43.0977273,-0.454198473 41.6904545,10.7493639 42.9804545,16.0483461 C42.3940909,16.85581 38.9931818,21.6501272 35.8854545,20.9435963 C35.0645455,20.7921968 34.4195455,20.2370653 34.1263636,19.1268024 C33.9504545,18.5716709 33.8918182,17.663274 33.8331818,17.057676 C33.8331818,16.754877 33.8331818,16.4016115 33.8331818,16.0988126 L33.8331818,16.0483461 C33.9504545,16.0988126 34.0677273,16.0988126 34.185,16.0988126 C34.4195455,16.1492791 34.7127273,16.1492791 34.9472727,16.1492791 C35.475,16.1997455 36.0613636,16.1492791 36.6477273,15.9978796 C37.2340909,15.8464801 37.9963636,15.5436811 38.5240909,15.1399491 C38.9931818,14.7866836 39.4036364,14.3324852 39.6381818,13.8782867 C39.7554545,13.6259542 39.8727273,13.4240882 39.9313636,13.1717557 C39.99,13.0708227 39.99,12.9194232 40.0486364,12.8184902 C40.1072727,12.7680237 40.1072727,12.7175573 40.1072727,12.6670908 L40.1072727,12.6166243 L40.1072727,12.5156913 C40.2245455,11.6577608 40.1659091,10.7998304 39.8140909,9.94189992 C39.4622727,9.23536896 38.3481818,8.17557252 36.6477273,8.5793045 C35.4163636,8.83163698 33.8331818,10.1437659 33.4813636,10.4970314 C32.1913636,11.8596268 31.4877273,13.3736217 31.1359091,14.8876166 C30.3736364,14.8371501 29.5527273,14.7866836 28.7318182,14.7362171 L28.7318182,14.6352841 C28.7904545,11.6072943 28.9077273,7.67090755 29.025,4.39058524 C29.1422727,2.32145886 26.6209091,2.87659033 25.9759091,3.07845632 C25.9172727,3.12892282 25.8586364,3.17938931 25.8586364,3.17938931 C26.0345455,4.64291773 26.1518182,9.63910093 26.0345455,14.5343511 C24.6859091,14.4838846 23.2786364,14.5848176 21.9886364,14.7362171 C21.6368182,14.7866836 21.2263636,14.8371501 20.9331818,14.8876166 C21.0504545,12.0110263 21.2263636,8.68023749 21.2263636,8.68023749 C21.3436364,6.56064461 18.7636364,7.11577608 18.1186364,7.26717557 C18.0013636,7.31764207 18.0013636,7.36810857 18.0013636,7.41857506 C18.1186364,8.4783715 18.1772727,12.3138253 18.1186364,15.5436811 C16.8872727,15.9474131 15.7731818,16.4016115 15.1281818,16.7044105 C14.835,16.85581 14.3659091,17.057676 14.0140909,17.3100085 C13.2518182,17.7137405 13.2518182,18.4202714 13.4277273,18.9754029 C13.545,19.3286684 13.8381818,19.4800679 13.8381818,19.4800679 C13.9554545,19.5305344 14.0140909,19.5305344 14.1313636,19.4800679 C14.2486364,19.4296014 14.8936364,19.0763359 15.1868182,18.9249364 C15.3040909,18.8240034 15.48,18.7735369 15.5972727,18.6726039 C15.7731818,18.5716709 15.9490909,18.5212044 16.125,18.4202714 C16.77,18.1174724 17.2390909,17.8146735 18.06,17.5118745 C18.06,18.0165394 18.0013636,18.4707379 18.0013636,18.9754029 C17.8840909,21.1959288 17.7081818,27.4537744 17.7081818,27.4537744 C17.5322727,30.7340967 19.35,30.1789652 20.8159091,29.9770992 C20.8745455,29.9770992 20.9331818,29.9266327 20.9331818,29.8761662 C20.5813636,27.7061069 20.64,22.6594572 20.7572727,18.7735369 C20.7572727,18.1174724 20.7572727,17.4109415 20.8159091,16.653944 C21.2263636,16.553011 21.6368182,16.452078 22.0472727,16.351145 C23.2786364,16.0988126 24.5686364,15.8969466 25.9172727,15.7960136 C25.8586364,17.5118745 25.8,20.0856658 25.7413636,21.8015267 C25.5654545,24.879983 27.2659091,24.1229856 28.6731818,23.9211196 C28.7904545,23.9211196 28.8490909,23.8201866 28.7904545,23.7697201 C28.4972727,21.9024597 28.4972727,18.7735369 28.4972727,15.6950806 C28.6145455,15.6950806 28.7318182,15.6950806 28.8490909,15.6950806 C29.3768182,15.7455471 30.0804545,15.7455471 30.7840909,15.7960136 C30.7840909,15.9978796 30.7254545,16.1492791 30.7254545,16.351145 C30.7254545,16.7044105 30.7254545,17.1081425 30.7840909,17.461408 C30.8427273,18.1679389 31.0186364,18.9249364 31.2531818,19.5810008 C31.5463636,20.2370653 31.8981818,20.8931298 32.4259091,21.4482612 C32.7190909,21.7005937 33.0122727,21.9529262 33.4227273,22.1547922 C38.4068182,24.2743851 42.3354545,18.2688719 42.9804545,17.259542 L43.0390909,17.4109415 C45.2086364,25.081849 51.3068182,18.4707379 51.9518182,17.1081425 C54.5318182,22.8108567 57.8154545,19.6314673 59.6331818,14.9380831 C60.0436364,17.3100085 60.6886364,18.8240034 63.0340909,18.9754029 C63.6204545,19.0763359 64.3240909,18.9754029 65.0277273,18.7230704 C69.3668182,17.461408 71.0672727,6.45971162 66.6695455,4.89525021 Z M33.9504545,15.1399491 C34.0677273,14.4838846 34.2436364,13.8278202 34.4781818,13.1717557 C34.7127273,12.5156913 35.0059091,11.8091603 35.3577273,11.2035623 C35.5336364,10.9007634 35.7681818,10.5979644 36.0613636,10.3456319 C36.3545455,10.0932994 36.5890909,9.89143342 36.8822727,9.84096692 C36.9995455,9.79050042 37.1168182,9.79050042 37.2340909,9.79050042 C37.2927273,9.79050042 37.2927273,9.79050042 37.3513636,9.79050042 L37.41,9.79050042 C37.4686364,9.79050042 37.4686364,9.84096692 37.4686364,9.84096692 C37.4686364,9.84096692 37.5272727,9.84096692 37.5272727,9.89143342 C37.5859091,9.89143342 37.5859091,9.94189992 37.5859091,9.94189992 C37.7618182,10.0428329 37.9377273,10.2951654 37.9963636,10.5979644 C38.055,10.9007634 38.1136364,11.2035623 38.055,11.5063613 C37.9963636,11.8091603 37.9377273,12.1624258 37.8790909,12.5156913 C37.7031818,13.1717557 37.3513636,13.6764207 36.9409091,14.1810857 C36.765,14.4334182 36.5304545,14.6352841 36.1786364,14.8371501 C35.8854545,14.9885496 35.5336364,15.1399491 35.1231818,15.2408821 C34.9472727,15.2913486 34.7127273,15.2913486 34.5368182,15.2913486 C34.4781818,15.2913486 34.2436364,15.2408821 34.0090909,15.2408821 L34.0090909,15.1399491 L33.9504545,15.1399491 Z M47.6127273,2.52332485 C49.02,2.82612383 47.0263636,11.3044953 45.2672727,14.1810857 C44.6222727,8.93256997 46.0295455,2.17005937 47.6127273,2.52332485 Z M54.0040909,13.6259542 C53.4763636,8.22603902 54.7663636,2.01865988 56.3495455,2.37192536 C57.7568182,2.72519084 55.8218182,10.5474979 54.0040909,13.6259542 Z M65.6727273,16.754877 C65.3795455,17.2090755 65.145,17.461408 64.9104545,17.663274 C64.6172727,17.8651399 63.9136364,18.1174724 63.5031818,17.764207 C61.6854545,16.250212 61.7440909,9.94189992 63.4445455,7.31764207 C64.0309091,6.35877863 64.9104545,6.05597964 65.4968182,6.00551315 C66.1418182,6.00551315 66.5522727,6.61111111 66.6695455,6.8129771 C68.0181818,8.93256997 67.1386364,14.3829517 65.6727273,16.754877 Z" id="Shape" fill="#FFFFFF" fill-rule="nonzero"></path>
                        <g transform="translate(24.040909, 20.691264)" fill="#FFFFFF">
                            <path d="M6.86045455,6.00551315 L0.820909091,6.91391009 C0.469090909,6.96437659 0.234545455,7.21670908 0.234545455,7.46904156 L0.234545455,20.6912638 C0.234545455,20.9940628 0.469090909,21.1454623 0.820909091,21.0949958 L2.40409091,20.8426633 C2.75590909,20.7921968 2.99045455,20.5398643 2.99045455,20.2875318 L2.99045455,14.6857506 C2.99045455,14.5848176 3.10772727,14.4838846 3.225,14.4334182 L5.74636364,14.0801527 C6.09818182,14.0296862 6.33272727,13.7773537 6.33272727,13.5250212 L6.33272727,12.4652248 C6.33272727,12.1624258 6.09818182,12.0110263 5.74636364,12.0614928 L3.225,12.4147583 C3.10772727,12.4652248 2.99045455,12.3642918 2.99045455,12.2633588 L2.99045455,8.78117048 C2.99045455,8.68023749 3.10772727,8.5793045 3.225,8.528838 L6.86045455,7.97370653 C7.21227273,7.92324003 7.44681818,7.67090755 7.44681818,7.41857506 L7.44681818,6.35877863 C7.50545455,6.10644614 7.21227273,5.95504665 6.86045455,6.00551315 Z" id="Path"></path>
                            <path d="M15.3040909,12.8184902 C15.2454545,12.7175573 15.3627273,12.5661578 15.4213636,12.5156913 C16.7113636,11.7586938 17.1804545,10.8502969 17.1804545,8.62977099 C17.1804545,6.20737913 16.5354545,4.49151824 13.3104545,4.94571671 L9.61636364,5.50084818 C9.26454545,5.55131467 9.03,5.80364716 9.03,6.05597964 L9.03,19.2782019 C9.03,19.5810008 9.32318182,19.7324003 9.61636364,19.6819338 L11.1995455,19.4296014 C11.5513636,19.3791349 11.7859091,19.1268024 11.7859091,18.8744699 L11.7859091,13.6259542 C11.7859091,13.5250212 11.9031818,13.4240882 12.0204545,13.3736217 L12.5481818,13.2726887 C12.6654545,13.2222222 12.7827273,13.3231552 12.8413636,13.4240882 L14.4831818,18.4202714 C14.6004545,18.6726039 14.8936364,18.8240034 15.2454545,18.7735369 L16.77,18.5212044 C17.0631818,18.4707379 17.2390909,18.2184054 17.1804545,17.9660729 L15.3040909,12.8184902 Z M12.9,11.9605598 L12.0790909,12.0614928 C11.9618182,12.1119593 11.8445455,12.0110263 11.8445455,11.9100933 L11.8445455,7.87277354 C11.8445455,7.77184054 11.9618182,7.67090755 12.0790909,7.62044105 L12.9,7.51950806 C14.1313636,7.36810857 14.4831818,7.77184054 14.4831818,9.53816794 C14.4831818,11.3044953 14.19,11.8091603 12.9,11.9605598 Z" id="Shape" fill-rule="nonzero"></path>
                            <path d="M25.9172727,15.1904156 L22.1645455,15.7455471 C22.0472727,15.7960136 21.93,15.6950806 21.93,15.5941476 L21.93,11.7082273 C21.93,11.6072943 22.0472727,11.5063613 22.1645455,11.4558948 L24.5686364,11.1026293 C24.9204545,11.0521628 25.155,10.7998304 25.155,10.5474979 L25.155,9.53816794 C25.155,9.23536896 24.9204545,9.08396947 24.5686364,9.13443596 L22.1645455,9.48770144 C22.0472727,9.53816794 21.93,9.43723494 21.93,9.33630195 L21.93,5.90458015 C21.93,5.80364716 22.0472727,5.70271416 22.1645455,5.65224767 L25.7413636,5.0971162 C26.0931818,5.0466497 26.3277273,4.79431722 26.3277273,4.54198473 L26.3277273,3.4821883 C26.3277273,3.17938931 26.0345455,3.02798982 25.7413636,3.07845632 L19.8190909,3.98685327 C19.4672727,4.03731976 19.2327273,4.28965225 19.2327273,4.54198473 L19.2327273,17.764207 C19.2327273,18.0670059 19.5259091,18.2184054 19.8190909,18.1679389 L25.9172727,17.259542 C26.2690909,17.2090755 26.5036364,16.956743 26.5036364,16.7044105 L26.5036364,15.5941476 C26.445,15.3418151 26.2104545,15.1399491 25.9172727,15.1904156 Z" id="Path"></path>
                            <path d="M32.7190909,8.27650551 C31.2531818,7.26717557 30.315,6.61111111 30.315,5.50084818 C30.315,4.79431722 30.7254545,4.13825276 31.6636364,3.98685327 C32.5431818,3.83545377 33.0122727,4.28965225 33.0122727,5.70271416 L33.0122727,6.10644614 C33.0122727,6.30831213 33.1881818,6.45971162 33.4227273,6.40924512 L35.0059091,6.15691264 C35.2990909,6.10644614 35.5336364,5.90458015 35.5336364,5.65224767 L35.5336364,5.19804919 C35.5336364,2.52332485 34.0677273,1.56446141 31.6636364,1.91772689 C28.8490909,2.37192536 27.6763636,4.13825276 27.6763636,5.95504665 C27.6763636,7.97370653 29.1422727,9.03350297 30.5495455,9.99236641 C31.9568182,10.9007634 33.1295455,11.6577608 33.1295455,12.9194232 C33.1295455,13.9792197 32.3672727,14.3829517 31.6636364,14.5343511 C30.6081818,14.6857506 30.1390909,14.1306192 30.1390909,13.0203562 L30.1390909,12.2128923 C30.1390909,11.9100933 29.9045455,11.7586938 29.5527273,11.8091603 L28.1454545,12.0110263 C27.7936364,12.0614928 27.5590909,12.3138253 27.5590909,12.5661578 L27.5590909,13.5250212 C27.5590909,15.6446141 29.0836364,16.9062765 31.605,16.553011 C34.0090909,16.1997455 35.6509091,14.5343511 35.6509091,12.3138253 C35.7095455,10.4465649 34.4195455,9.43723494 32.7190909,8.27650551 Z" id="Path"></path>
                            <path d="M45.15,0.151399491 L43.5668182,0.403731976 C43.215,0.454198473 42.9804545,0.706530958 42.9804545,0.958863444 L42.9804545,6.25784563 C42.9804545,6.35877863 42.8631818,6.45971162 42.7459091,6.51017812 L40.2831818,6.8634436 C40.1659091,6.91391009 40.0486364,6.8129771 40.0486364,6.71204411 L40.0486364,1.41306192 C40.0486364,1.11026293 39.8140909,0.958863444 39.4622727,1.00932994 L37.8790909,1.26166243 C37.5272727,1.31212892 37.2927273,1.56446141 37.2927273,1.81679389 L37.2927273,15.0390161 C37.2927273,15.3418151 37.5859091,15.4932146 37.8790909,15.4427481 L39.4622727,15.1904156 C39.8140909,15.1399491 40.0486364,14.8876166 40.0486364,14.6352841 L40.0486364,9.18490246 C40.0486364,9.08396947 40.1659091,8.98303647 40.2831818,8.93256997 L42.7459091,8.5793045 C42.8631818,8.528838 42.9804545,8.62977099 42.9804545,8.73070399 L42.9804545,14.1810857 C42.9804545,14.4838846 43.215,14.6352841 43.5668182,14.5848176 L45.15,14.3324852 C45.5018182,14.2820187 45.7363636,14.0296862 45.7363636,13.7773537 L45.7363636,0.555131467 C45.7363636,0.252332485 45.5018182,0.100932994 45.15,0.151399491 Z" id="Path"></path>
                        </g>
                    </g>
                </g>
            </g>
        </g>
    </g>
</svg>