<?xml version="1.0" encoding="UTF-8"?>
<svg width="100px" height="100px" viewBox="0 0 100 100" version="1.1" xmlns="http://www.w3.org/2000/svg" xmlns:xlink="http://www.w3.org/1999/xlink">
    <!-- Generator: Sketch 55.2 (78181) - https://sketchapp.com -->
    <title>intercom-logo</title>
    <desc>Created with Sketch.</desc>
    <g id="Page-1" stroke="none" stroke-width="1" fill="none" fill-rule="evenodd">
        <g id="Workflows/Add/Actions/Zendesk/Test-message" transform="translate(-606.000000, -531.000000)" fill="#1F8DED" fill-rule="nonzero">
            <g id="intercom-logo" transform="translate(606.000000, 531.000000)">
                <path d="M86.6667969,54.9796875 C86.6470199,56.8065967 85.1604147,58.277196 83.3333984,58.277196 C81.5063822,58.277196 80.019777,56.8065967 80,54.9796875 L80,25 C80.019777,23.1730908 81.5063822,21.7024915 83.3333984,21.7024915 C85.1604147,21.7024915 86.6470199,23.1730908 86.6667969,25 L86.6667969,54.9796875 L86.6667969,54.9796875 Z M85.5035156,75.8441406 C84.9882812,76.2851562 72.6402344,86.646875 50,86.646875 C27.3601562,86.646875 15.0125,76.2847656 14.4972656,75.84375 C13.0997773,74.6454157 12.9380228,72.5412073 14.1359375,71.1433594 C15.3311441,69.7478908 17.4304036,69.5832773 18.8285156,70.7753906 C19.0242187,70.9394531 30.0507812,79.9796875 50.0003906,79.9796875 C70.2003906,79.9796875 81.05625,70.8742187 81.1636719,70.7824219 C82.5585937,69.584375 84.6667969,69.7453125 85.8640625,71.14375 C87.0623908,72.5413176 86.9009738,74.6456847 85.5035156,75.8441406 L85.5035156,75.8441406 Z M13.3332031,25 C13.3529801,23.1730908 14.8395853,21.7024915 16.6666016,21.7024915 C18.4936178,21.7024915 19.980223,23.1730908 20,25 L20,54.9796875 C19.980223,56.8065967 18.4936178,58.277196 16.6666016,58.277196 C14.8395853,58.277196 13.3529801,56.8065967 13.3332031,54.9796875 L13.3332031,25 L13.3332031,25 Z M30.0003906,18.3332031 C30.02827,16.5122219 31.5123991,15.0506409 33.3335938,15.0506409 C35.1547884,15.0506409 36.6389175,16.5122219 36.6667969,18.3332031 L36.6667969,62.8648437 C36.6389175,64.685825 35.1547884,66.147406 33.3335938,66.147406 C31.5123991,66.147406 30.02827,64.685825 30.0003906,62.8648437 L30.0003906,18.3335937 L30.0003906,18.3332031 Z M46.6667969,16.6464844 C46.6666933,15.7624322 47.0178357,14.9145587 47.642955,14.2894394 C48.2680743,13.6643201 49.1159478,13.3132812 50,13.3132812 C50.8841199,13.3132812 51.7320937,13.6641707 52.3572975,14.2893013 C52.9825013,14.9144318 53.3336974,15.7623645 53.3335938,16.6464844 L53.3335938,64.9796875 C53.3138168,66.8065967 51.8272116,68.277196 50.0001953,68.277196 C48.173179,68.277196 46.6865738,66.8065967 46.6667969,64.9796875 L46.6667969,16.6464844 L46.6667969,16.6464844 Z M63.3335937,18.3332031 C63.3614731,16.5122219 64.8456023,15.0506409 66.6667969,15.0506409 C68.4879915,15.0506409 69.9721207,16.5122219 70,18.3332031 L70,62.8648438 C69.9721207,64.685825 68.4879915,66.147406 66.6667969,66.147406 C64.8456023,66.147406 63.3614731,64.685825 63.3335937,62.8648438 L63.3335937,18.3335938 L63.3335937,18.3332031 Z M87.5,0 L12.5,0 C5.59648438,0 0,5.59648438 0,12.5 L0,87.5 C0,94.403125 5.59648438,100 12.5,100 L87.5,100 C94.4035156,100 100,94.403125 100,87.5 L100,12.5 C100,5.59648438 94.4035156,0 87.5,0 Z" id="Shape"></path>
            </g>
        </g>
    </g>
</svg>