<svg width="192" height="192" viewBox="0 0 192 192" fill="none" xmlns="http://www.w3.org/2000/svg">
<g clip-path="url(#clip0)">
<path fill-rule="evenodd" clip-rule="evenodd" d="M132.4 191.18C148.021 191.223 163.023 185.072 174.119 174.076C185.215 163.08 191.501 148.135 191.6 132.513V59.6591C191.501 44.0377 185.215 29.0927 174.119 18.0966C163.023 7.10048 148.021 0.949761 132.4 0.992408H58.7996C43.178 0.949761 28.1763 7.10048 17.0802 18.0966C5.98419 29.0927 -0.301667 44.0377 -0.400391 59.6591V132.513C-0.301667 148.135 5.98419 163.08 17.0802 174.076C28.1763 185.072 43.178 191.223 58.7996 191.18H132.4Z" fill="#FFFFFE"/>
<path fill-rule="evenodd" clip-rule="evenodd" d="M106.267 69.4195V96.0862C106.27 96.7918 106.413 97.4896 106.688 98.1396C106.962 98.7896 107.363 99.3787 107.867 99.8727C108.367 100.383 108.965 100.788 109.625 101.063C110.284 101.338 110.992 101.477 111.707 101.473H129.414C130.828 101.473 132.185 100.911 133.185 99.9104C134.185 98.9102 134.747 97.5541 134.747 96.1396V78.5393C134.744 77.8337 134.601 77.1359 134.327 76.4859C134.052 75.8359 133.651 75.2468 133.147 74.7529C132.647 74.2425 132.049 73.8376 131.39 73.5628C130.73 73.2879 130.022 73.1484 129.307 73.1526H116.934V69.4195C116.962 66.1755 118.274 63.0748 120.583 60.7958C122.892 58.5169 126.01 57.2452 129.254 57.2594C130.668 57.2594 132.025 56.6971 133.025 55.6969C134.025 54.6967 134.587 53.3405 134.587 51.926C134.587 50.5116 134.025 49.1554 133.025 48.1552C132.025 47.155 130.668 46.5927 129.254 46.5927C123.149 46.581 117.285 48.9763 112.934 53.2594C108.66 57.5513 106.263 63.3628 106.267 69.4195ZM56.7738 69.4195V96.0862C56.7768 96.7918 56.9198 97.4896 57.1944 98.1396C57.4691 98.7896 57.8698 99.3787 58.3738 99.8727C58.874 100.383 59.4718 100.788 60.1314 101.063C60.7911 101.338 61.4992 101.477 62.2138 101.473H79.6005C80.3151 101.477 81.0232 101.338 81.6828 101.063C82.3425 100.788 82.9403 100.383 83.4405 99.8727C83.9444 99.3787 84.3454 98.7896 84.62 98.1396C84.8947 97.4896 85.0375 96.7918 85.0404 96.0862V78.4859C85.0404 77.0715 84.4786 75.7153 83.4784 74.7151C82.4782 73.7149 81.1216 73.1526 79.7071 73.1526H67.4405V69.4195C67.4686 66.1847 68.7735 63.0915 71.0709 60.8141C73.3683 58.5366 76.4722 57.2593 79.7071 57.2594C81.1216 57.2594 82.4782 56.6971 83.4784 55.6969C84.4786 54.6967 85.0404 53.3405 85.0404 51.926C85.0404 50.5116 84.4786 49.1554 83.4784 48.1552C82.4782 47.155 81.1216 46.5927 79.7071 46.5927C76.6814 46.5787 73.6826 47.1613 70.8819 48.3063C68.0812 49.4512 65.5336 51.1363 63.3842 53.2659C61.2348 55.3955 59.5258 57.9277 58.3551 60.7177C57.1843 63.5077 56.5744 66.5006 56.5605 69.5263L56.7738 69.4195ZM63.2805 125.793C62.8352 125.793 62.3979 125.911 62.0136 126.136C61.6293 126.361 61.3117 126.685 61.0938 127.073C60.8835 127.477 60.7737 127.924 60.7737 128.379C60.7737 128.834 60.8835 129.283 61.0938 129.686C64.7913 135.67 69.9106 140.646 75.996 144.172C82.0814 147.699 88.9443 149.667 95.9739 149.9C102.978 149.684 109.818 147.722 115.872 144.192C121.926 140.662 127.002 135.676 130.641 129.686C130.875 129.291 130.999 128.839 130.999 128.379C130.999 127.919 130.875 127.469 130.641 127.073C130.437 126.673 130.122 126.339 129.735 126.112C129.347 125.885 128.903 125.775 128.454 125.793H63.2805Z" fill="#0A0B09"/>
<path fill-rule="evenodd" clip-rule="evenodd" d="M58.7996 0.992408C43.178 0.949761 28.1763 7.10048 17.0802 18.0966C5.98419 29.0927 -0.301667 44.0377 -0.400391 59.6591V132.513C-0.301667 148.135 5.98419 163.08 17.0802 174.076C28.1763 185.072 43.178 191.223 58.7996 191.18H108.72L75.813 167.712H58.7996C49.4166 167.755 40.4003 164.073 33.7305 157.473C27.0607 150.873 23.2827 141.896 23.2262 132.513V59.6591C23.3246 50.2893 27.1159 41.3371 33.7765 34.7463C40.4372 28.1556 49.4293 24.4593 58.7996 24.4599H132.4C141.765 24.4595 150.751 28.158 157.404 34.7502C164.056 41.3425 167.835 50.2941 167.92 59.6591V132.513C167.835 141.878 164.056 150.83 157.404 157.422C150.751 164.014 141.765 167.713 132.4 167.712H118.426V191.18H132.4C148.021 191.223 163.023 185.072 174.119 174.076C185.215 163.08 191.501 148.135 191.6 132.513V59.6591C191.501 44.0377 185.215 29.0927 174.119 18.0966C163.023 7.10048 148.021 0.949761 132.4 0.992408H58.7996Z" fill="#FF5551"/>
</g>
<defs>
<clipPath id="clip0">
<rect width="192" height="192" fill="white"/>
</clipPath>
</defs>
</svg>