<?xml version="1.0" encoding="utf-8"?>
<svg role="img" aria-labelledby="thetitle thedescription" width="13px" height="12px" viewBox="0 0 13 12" version="1.1" 
  xmlns:xlink="http://www.w3.org/1999/xlink" 
  xmlns="http://www.w3.org/2000/svg">
  <title id="thetitle">LinkedIn</title>
  <desc id="thedescription">Created by Lunacy</desc>
  <path d="M1.55762 2.79781C2.52915 2.79781 3.13336 2.17654 3.13336 1.39925C3.1167 0.605177 2.52915 0 1.57574 0C0.622325 0 0 0.605177 0 1.39925C0 2.17654 0.604213 2.79781 1.53879 2.79781L1.55762 2.79781ZM4.49219 3.90417C4.52914 4.66326 4.49219 12.0002 4.49219 12.0002L7.27925 12.0002L7.27925 7.47926C7.27925 7.23719 7.29591 6.99512 7.37126 6.82231C7.57194 6.33817 8.03053 5.83793 8.79992 5.83793C9.80839 5.83793 10.2119 6.58024 10.2119 7.66886L10.2119 12.0002L12.999 12.0002L12.999 7.35822C12.999 4.87035 11.6232 3.71387 9.79028 3.71387C8.31239 3.71387 7.64954 4.49824 7.27925 5.04924L7.27925 3.90417L4.49219 3.90417ZM0.164063 12.0001L2.94967 12.0001L2.94967 3.90332L0.164063 3.90332L0.164063 12.0001Z" id="Linkedin" fill="#291C45" fill-rule="evenodd" stroke="none" />
</svg>