<?xml version="1.0" encoding="UTF-8"?>
<svg width="137px" height="21px" viewBox="0 0 152 23" version="1.1" xmlns="http://www.w3.org/2000/svg" xmlns:xlink="http://www.w3.org/1999/xlink">
    <!-- Generator: Sketch 55.2 (78181) - https://sketchapp.com -->
    <title>Chattermill_01. Primary Logo Lockup (3)</title>
    <desc>Created with Sketch.</desc>
    <g id="integrations-table" stroke="none" stroke-width="1" fill="none" fill-rule="evenodd">
        <g id="Artboard" transform="translate(-2034.000000, -580.000000)" fill-rule="nonzero">
            <g id="Chattermill_01.-Primary-Logo-Lockup-(3)" transform="translate(2034.000000, 580.000000)">
                <path d="M43.351554,18.50304 C40.0735469,18.50304 37.7619929,15.7964 37.7619929,12.35376 C37.7619929,8.91112 40.0735469,6.20816 43.351554,6.20816 C45.3998577,6.20816 46.8693713,7.1668 47.8809015,8.6664 L49.7651246,6.74912 C48.2469276,4.85576 46.0778173,3.60088 43.3551601,3.60088 C38.5841993,3.60088 35.0176987,7.51088 35.0176987,12.35376 C35.0176987,17.19664 38.5841993,21.10848 43.3551601,21.10848 C48.126121,21.10848 51.6926216,17.19848 51.6926216,12.35376 L48.9411151,12.35376 C48.9411151,15.89576 46.6295611,18.50304 43.351554,18.50304 Z" id="Path" fill="#291C45"></path>
                <path d="M59.4675208,8.5192 C57.9006406,8.5192 56.7448636,9.1816 56.0218268,10.06848 L56.0218268,3.45368 L53.371293,3.74808 L53.371293,20.96128 L56.0218268,20.96128 L56.0218268,14.168 C56.0218268,12.374 57.1036773,11.07128 58.8166074,11.07128 C60.6485409,11.07128 61.4437011,12.25072 61.4437011,14.168 L61.4437011,20.95576 L64.0942349,20.95576 L64.0942349,13.58472 C64.0942349,10.3132 62.3344247,8.5192 59.4675208,8.5192 Z" id="Path" fill="#291C45"></path>
                <path d="M75.2769632,9.9452 C74.7702966,9.28096 73.4215896,8.5192 71.8312693,8.5192 C68.3855753,8.5192 65.7819217,11.12464 65.7819217,14.81384 C65.7819217,18.50304 68.3855753,21.10848 71.8312693,21.10848 C73.4450297,21.10848 74.7702966,20.34672 75.2769632,19.68248 L75.2769632,20.97048 L77.9815896,20.97048 L77.9815896,8.6664 L75.2769632,8.6664 L75.2769632,9.9452 Z M71.9268327,18.50304 C69.9302218,18.50304 68.3116489,16.8513289 68.3116489,14.81384 C68.3116489,12.7763511 69.9302218,11.12464 71.9268327,11.12464 C73.879573,11.12464 75.3725267,12.7972 75.3725267,14.81384 C75.3725267,16.83048 73.879573,18.50304 71.9268327,18.50304 Z" id="Shape" fill="#291C45"></path>
                <polygon id="Path" fill="#291C45" points="93.6449822 2.92928 90.9944484 3.22368 90.9944484 8.6664 88.5602847 8.6664 88.5602847 8.6664 85.0478766 8.6664 85.0478766 3.97808 82.3955397 4.27248 82.3955397 8.6664 79.9631791 8.6664 79.9631791 11.224 82.3955397 11.224 82.3955397 20.96128 85.0478766 20.96128 85.0478766 11.224 88.6612574 11.224 88.6612574 11.224 90.9944484 11.224 90.9944484 20.96128 93.6449822 20.96128 93.6449822 11.224 97.258363 11.224 97.258363 8.6664 93.6449822 8.6664"></polygon>
                <path d="M103.886501,8.51917712 C100.479814,8.53952413 97.7342949,11.3742064 97.7541036,14.85064 C97.7741276,18.3270736 100.551938,21.128804 103.958624,21.1085899 C106.681281,21.1085899 109.019881,19.60888 109.838482,17.37144 L106.681281,17.37144 C106.176418,18.15712 105.188327,18.55088 103.958624,18.55088 C102.313876,18.5700972 100.887879,17.3937397 100.561613,15.74856 L109.937651,15.74856 C109.986699,15.4395235 110.010821,15.1269017 110.009775,14.81384 C110.026175,13.1473023 109.387771,11.543495 108.237178,10.3607015 C107.086585,9.17790809 105.519679,8.51468739 103.886501,8.51917712 Z M100.680617,13.33816 C101.066477,12.05936 102.368304,11.02712 103.886501,11.02712 C105.404698,11.02712 106.706524,12.05936 107.090581,13.33816 L100.680617,13.33816 Z" id="Shape" fill="#291C45"></path>
                <path d="M114.513879,9.9452 L114.513879,8.6664 L111.863345,8.6664 L111.863345,20.96128 L114.513879,20.96128 L114.513879,14.168 C114.513879,12.3464 115.694899,11.11728 117.382586,11.11728 L117.622396,11.11728 L117.622396,8.5192 C115.938316,8.5192 115.092669,9.15768 114.513879,9.9452 Z" id="Path" fill="#291C45"></path>
                <path d="M132.290486,8.5192 C130.555919,8.5192 129.567829,9.23128 128.651862,10.21568 C128.000949,9.13376 126.965979,8.5192 125.496465,8.5192 C124.270767,8.501765 123.109007,9.07612017 122.362705,10.06848 L122.362705,8.6664 L119.712171,8.6664 L119.712171,20.96128 L122.362705,20.96128 L122.362705,13.58472 C122.362705,11.98576 123.278671,11.0768 124.508375,11.0768 C125.905765,11.0768 126.652242,11.98576 126.652242,13.58472 L126.652242,20.96128 L129.302776,20.96128 L129.302776,13.58472 C129.302776,11.98576 130.218743,11.0768 131.448446,11.0768 C132.869276,11.0768 133.592313,11.98576 133.592313,13.58472 L133.592313,20.96128 L136.242847,20.96128 L136.242847,12.89656 C136.242847,9.8716 134.74809,8.5192 132.290486,8.5192 Z" id="Path" fill="#291C45"></path>
                <rect id="Rectangle" fill="#291C45" x="138.727497" y="8.6664" width="2.65053381" height="12.29488"></rect>
                <path d="M140.052764,3.60088 C139.321733,3.59267353 138.658201,4.03573456 138.372857,4.72260489 C138.087514,5.40947522 138.236844,6.20418867 138.750925,6.73462987 C139.265007,7.26507108 140.042076,7.42623904 140.718281,7.14266874 C141.394486,6.85909844 141.83597,6.18692269 141.836014,5.44088 C141.840825,4.95490028 141.655131,4.48710895 141.320236,4.14155658 C140.985342,3.7960042 140.529018,3.60134612 140.052764,3.60088 L140.052764,3.60088 Z" id="Path" fill="#291C45"></path>
                <polygon id="Path" fill="#291C45" points="143.981684 20.96128 146.632218 20.96128 146.632218 3.45368 143.981684 3.74808"></polygon>
                <polygon id="Path" fill="#291C45" points="149.210629 3.74808 149.210629 20.96128 151.861163 20.96128 151.861163 3.45368"></polygon>
                <path d="M2.58201661,13.10264 C2.82305041,10.7688859 3.74018624,8.56138686 5.21632266,6.762 L8.89822064,10.51376 C9.09406729,10.7128117 9.13198423,11.0223576 8.99017794,11.26448 C8.74814912,11.6869341 8.56258877,12.1405304 8.43843416,12.6132 C8.36541344,12.9009355 8.11124021,13.1020851 7.81997628,13.10264 L2.58201661,13.10264 Z M1.93470937,13.1026403 L0.690581257,13.1026403 C0.505920985,13.1028232 0.329974915,13.022516 0.207015584,12.8819257 C0.0840562529,12.7413355 0.0257907579,12.5538481 0.0468801898,12.36664 C0.347845968,9.82817412 1.32996787,7.42384198 2.88493476,5.4188 C2.99991134,5.27174143 3.17074132,5.18151053 3.35478763,5.17062783 C3.53883394,5.15974512 3.71873322,5.22923731 3.84958482,5.36176 L4.73670225,6.2652 C3.11520708,8.18307858 2.13385888,10.5777704 1.93470937,13.1026403 L1.93470937,13.1026403 Z M6.50192171,5.43352 C8.24849748,3.8873698 10.4311955,2.94731887 12.7351839,2.74896 L12.7351839,8.10704 C12.7342837,8.40153406 12.5398621,8.65877779 12.2609727,8.73448 C11.7974154,8.85664776 11.3522125,9.04233622 10.9375089,9.28648 C10.7000236,9.433291 10.3953167,9.39773277 10.1964413,9.2 L6.50192171,5.43352 Z M6.0223013,4.94592 L5.13698695,4.048 C5.00686735,3.91481982 4.93873517,3.73123471 4.9497591,3.54350645 C4.96078304,3.3557782 5.04991176,3.1818099 5.19468565,3.06544 C7.16467346,1.48296868 9.52435788,0.485897946 12.0139502,0.184 C12.1969014,0.161944503 12.3803701,0.220709903 12.5181553,0.345497932 C12.6559406,0.470285961 12.7349123,0.649205087 12.7351839,0.8372 L12.7351839,2.10864 C10.2593143,2.30395645 7.90843091,3.29758539 6.0223013,4.94592 L6.0223013,4.94592 Z M21.2781969,4.94592 C19.3927428,3.29963999 17.0430793,2.30792599 14.5689205,2.11416 L14.5689205,0.84456 C14.5692548,0.656439802 14.648173,0.477389178 14.7858791,0.352321517 C14.9235852,0.227253856 15.1070141,0.168035176 15.2901542,0.18952 C17.7775551,0.489106402 20.1361732,1.48153409 22.1076157,3.05808 C22.2522291,3.1750728 22.3410334,3.34949184 22.3517087,3.53749928 C22.3623841,3.72550671 22.2939153,3.90922534 22.1635113,4.04248 L21.2781969,4.94592 Z M20.7985765,5.43168 L17.10586,9.2 C16.9097745,9.39739461 16.6085373,9.43657363 16.3702017,9.29568 C15.9553426,9.05186015 15.5101838,8.86619009 15.0467378,8.74368 C14.7663307,8.67069288 14.5698081,8.41338842 14.5689205,8.11808 L14.5689205,2.74896 C16.8714677,2.94743557 19.0528082,3.88680138 20.7985765,5.43168 L20.7985765,5.43168 Z M4.90799526,21.62368 C3.46499031,19.7063217 2.63301481,17.3834276 2.52431791,14.9684 L7.81817319,14.9684 C8.10846385,14.9689269 8.36184566,15.1692805 8.434828,15.456 C8.55488017,15.9289344 8.73682516,16.3832072 8.97575326,16.80656 C9.11757229,17.0515034 9.07900426,17.3633372 8.88199288,17.56464 L4.90799526,21.62368 Z M4.68801898,21.83896 L3.82614472,22.71664 C3.69583786,22.8502704 3.51567,22.9205238 3.33124269,22.9096186 C3.14681539,22.8987134 2.97580477,22.8076947 2.86149466,22.6596 C1.31170784,20.6501517 0.33694457,18.2423173 0.0450771056,15.70256 C0.0239876737,15.5153519 0.0822531686,15.3278645 0.2052125,15.1872743 C0.328171831,15.046684 0.504117901,14.9663768 0.688778173,14.9665597 L1.92930012,14.9665597 C2.10933558,17.4984405 3.0757017,19.9058096 4.68801898,21.83896 L4.68801898,21.83896 Z M22.0787663,6.762 C23.5584006,8.56064944 24.4781785,10.7691038 24.7202847,13.10448 L19.4913405,13.10448 C19.1997751,13.103062 18.9457714,12.901291 18.8728826,12.6132 C18.748728,12.1405304 18.5631676,11.6869341 18.3211388,11.26448 C18.1779151,11.0223424 18.2151269,10.7117179 18.411293,10.51192 L22.0787663,6.762 Z M22.5728114,6.256 L23.4599288,5.35256 C23.59051,5.21948608 23.7705427,5.14961556 23.9547782,5.16050945 C24.1390136,5.17140334 24.3099333,5.26202576 24.4245789,5.4096 C25.9787626,7.41666294 26.959072,9.82305114 27.2572242,12.36296 C27.2789124,12.5502947 27.2208572,12.738129 27.0977696,12.8788658 C26.974682,13.0196027 26.7983745,13.0997359 26.6135231,13.0989656 L25.3675919,13.0989656 C25.1707419,10.5732306 24.1919966,8.17679367 22.5728114,6.256 L22.5728114,6.256 Z M24.7725741,14.96288 C24.6651713,17.3761252 23.8350942,19.6977059 22.394306,21.61448 L18.4148992,17.56648 C18.2193815,17.3636892 18.1809839,17.0524799 18.3211388,16.80656 C18.5592114,16.3827803 18.7411083,15.9286276 18.8620641,15.456 C18.9343552,15.1685502 19.1879086,14.9673044 19.4787189,14.96656 L24.7725741,14.96288 Z M25.3730012,14.9628744 L26.6135231,14.9628744 C26.7983745,14.9621041 26.974682,15.0422373 27.0977696,15.1829742 C27.2208572,15.323711 27.2789124,15.5115453 27.2572242,15.69888 C26.9634594,18.2385549 25.9868199,20.6457626 24.4353974,22.65408 C24.3210873,22.8021747 24.1500767,22.8931934 23.9656494,22.9040986 C23.7812221,22.9150038 23.6010542,22.8447504 23.4707473,22.71112 L22.6088731,21.83344 C24.2224399,19.9019948 25.1906835,17.495958 25.3730012,14.96472 L25.3730012,14.9628744 Z" id="Shape" fill="#10C2ED"></path>
            </g>
        </g>
    </g>
</svg>