<?xml version="1.0" encoding="UTF-8"?>
<svg width="76px" height="74px" viewBox="0 0 76 74" version="1.1" xmlns="http://www.w3.org/2000/svg" xmlns:xlink="http://www.w3.org/1999/xlink">
    <!-- Generator: Sketch 55.2 (78181) - https://sketchapp.com -->
    <title>Monzo_logo_stacked_RGB_blue</title>
    <desc>Created with Sketch.</desc>
    <g id="Page-1" stroke="none" stroke-width="1" fill="none" fill-rule="evenodd">
        <g id="07.-Customers" transform="translate(-1094.000000, -1713.000000)" fill="#FFFFFF" fill-rule="nonzero">
            <g id="Monzo_logo_stacked_RGB_blue" transform="translate(1094.000000, 1713.000000)">
                <path d="M0.0801687764,73.4586147 L0.0801687764,60.9202597 L3.42160338,60.9202597 L3.42160338,62.6020779 C4.10124113,61.3660694 5.42315377,60.6213942 6.8335865,60.68 C8.28184576,60.6353928 9.63065491,61.4133267 10.3161181,62.6885714 C11.6276793,61.3110823 12.6313924,60.68 14.1962869,60.68 C17.0246414,60.68 18.6151899,62.2817316 18.6151899,65.1872727 L18.6151899,73.4522078 L15.0140084,73.4522078 L15.0140084,66.6640693 C15.0140084,64.9117749 14.6420253,64.1012987 13.2631224,64.1012987 C11.8842194,64.1012987 11.1113924,64.9662338 11.1113924,66.6640693 L11.1113924,73.4586147 L7.49097046,73.4586147 L7.49097046,66.6640693 C7.49097046,64.9117749 7.11578059,64.1012987 5.73687764,64.1012987 C4.35797468,64.1012987 3.58514768,64.9662338 3.58514768,66.6640693 L3.58514768,73.4586147 L0.0801687764,73.4586147 Z" id="Path"></path>
                <path d="M23.1399156,62.554026 C25.0157429,60.6584959 27.8467685,60.0720589 30.3224099,61.0661974 C32.7980513,62.0603359 34.4351286,64.4410203 34.4757806,67.1061472 C34.5234152,68.8723734 33.838796,70.5798481 32.5837975,71.8248485 C31.3322206,73.1061939 29.6072174,73.8154202 27.8153586,73.785368 C26.0165846,73.8353691 24.2847555,73.1024343 23.0693671,71.7767965 C21.8685864,70.5388773 21.2048866,68.8778758 21.2222785,67.1541991 C21.2164723,65.4256348 21.907665,63.7675493 23.1399156,62.554026 L23.1399156,62.554026 Z M27.8378059,70.2839827 C29.1040579,70.3376524 30.275558,69.6161362 30.79632,68.4618611 C31.317082,67.307586 31.0822784,65.9529032 30.2033454,65.0407363 C29.3244125,64.1285694 27.9782762,63.8425342 26.8038039,64.3183811 C25.6293317,64.794228 24.8629404,65.9361709 24.8683544,67.2022511 C24.8379517,68.87182 26.1665793,70.2506853 27.8378059,70.2839827 Z" id="Shape"></path>
                <path d="M37.0828692,73.4586147 L37.0828692,60.9202597 L40.5910549,60.9202597 L40.5429536,62.6020779 C41.3157806,61.3399134 42.4670042,60.68 44.144135,60.68 C46.7383966,60.68 48.4187342,62.3137662 48.4187342,65.1872727 L48.4187342,73.4522078 L44.7277637,73.4522078 L44.7277637,66.6640693 C44.7277637,64.9117749 44.3525738,64.1012987 42.9287764,64.1012987 C41.5049789,64.1012987 40.7064979,64.9662338 40.7064979,66.6640693 L40.7064979,73.4586147 L37.0828692,73.4586147 Z" id="Path"></path>
                <path d="M64.4075949,62.554026 C66.2834223,60.6584959 69.1144478,60.0720589 71.5900892,61.0661974 C74.0657306,62.0603359 75.702808,64.4410203 75.7434599,67.1061472 C75.7925657,68.8732615 75.1064033,70.5816895 73.84827,71.8248485 C72.597129,73.1068383 70.8718345,73.8161844 69.0798312,73.785368 C67.2820841,73.8348583 65.5514436,73.1019313 64.3370464,71.7767965 C63.1362657,70.5388773 62.4725659,68.8778758 62.4899578,67.1541991 C62.4816025,65.4251312 63.1731908,63.7660966 64.4075949,62.554026 L64.4075949,62.554026 Z M69.1054852,70.2839827 C70.3717372,70.3376524 71.5432373,69.6161362 72.0639993,68.4618611 C72.5847613,67.307586 72.3499577,65.9529032 71.4710248,65.0407363 C70.5920918,64.1285694 69.2459555,63.8425342 68.0714833,64.3183811 C66.897011,64.794228 66.1306198,65.9361709 66.1360338,67.2022511 C66.1205782,68.004326 66.4247814,68.7796688 66.9816927,69.3576378 C67.5386039,69.9356068 68.3025815,70.2688346 69.1054852,70.2839827 Z" id="Shape"></path>
                <polygon id="Path" points="51.2791561 73.4586147 51.2791561 70.8445887 56.4388186 64.165368 51.2791561 64.165368 51.2791561 60.9202597 60.6075949 60.9202597 60.6075949 63.8866667 56.0508017 70.2135065 60.7005907 70.2135065 60.7005907 73.4586147"></polygon>
                <path d="M63.7309726,34.12329 C63.7318184,34.757424 63.4803359,35.3658947 63.0318987,35.8147186 L52.324557,46.5110823 C52.0492867,46.7806681 51.639507,46.8600747 51.2833028,46.712855 C50.9270987,46.5656354 50.693259,46.2202201 50.6891139,45.8351515 L50.6891139,21.8636364 L63.5834599,9.04978355 L63.7309726,9.04978355 L63.7309726,34.12329 Z" id="Path"></path>
                <path d="M55.1849789,0.522164502 C54.810513,0.153773103 54.2094026,0.153773103 53.8349367,0.522164502 L37.910211,16.4273593 L37.6889451,16.4273593 L37.6889451,34.3667532 L37.910211,34.8376623 L50.6891139,22.0718615 L63.7309705,9.04337662 L55.1849789,0.522164502 Z" id="Path"></path>
                <path d="M12.0894515,34.12329 C12.0898065,34.7578139 12.3424157,35.3662199 12.79173,35.8147186 L23.4990717,46.5110823 C23.7746012,46.778449 24.1829341,46.856455 24.537774,46.709511 C24.8926139,46.5625671 25.125943,46.2188403 25.131308,45.8351515 L25.131308,21.8636364 L12.2401688,9.04978355 L12.0894515,9.04978355 L12.0894515,34.12329 Z" id="Path"></path>
                <path d="M21.988692,0.522164502 C21.6138432,0.151665017 21.0102918,0.151665017 20.635443,0.522164502 L12.0894515,9.05619048 L25.131308,22.0846753 L37.910211,34.8504762 L37.910211,16.4273593 L21.988692,0.522164502 Z" id="Path"></path>
            </g>
        </g>
    </g>
</svg>