<?xml version="1.0" encoding="UTF-8"?>
<svg width="83px" height="81px" viewBox="0 0 83 81" version="1.1" xmlns="http://www.w3.org/2000/svg" xmlns:xlink="http://www.w3.org/1999/xlink">
    <!-- Generator: Sketch 55.2 (78181) - https://sketchapp.com -->
    <title>Monzo_logo_stacked_RGB_blue</title>
    <desc>Created with Sketch.</desc>
    <g id="Page-1" stroke="none" stroke-width="1" fill="none" fill-rule="evenodd">
        <g id="07.-Customers" transform="translate(-1076.000000, -1745.000000)" fill-rule="nonzero">
            <g id="Monzo_logo_stacked_RGB_blue" transform="translate(1076.000000, 1745.000000)">
                <path d="M0.0875527426,80.4074026 L0.0875527426,66.682987 L3.73675105,66.682987 L3.73675105,68.5238961 C4.47898703,67.1709678 5.92265478,66.3558504 7.46299578,66.42 C9.04464734,66.3711732 10.5176889,67.2226955 11.2662869,68.6185714 C12.6986498,67.1107792 13.7948101,66.42 15.5038397,66.42 C18.5927004,66.42 20.3297468,68.1732468 20.3297468,71.3536364 L20.3297468,80.4003896 L16.3968776,80.4003896 L16.3968776,72.9701299 C16.3968776,71.0520779 15.9906329,70.1649351 14.4847257,70.1649351 C12.9788186,70.1649351 12.1348101,71.1116883 12.1348101,72.9701299 L12.1348101,80.4074026 L8.18092827,80.4074026 L8.18092827,72.9701299 C8.18092827,71.0520779 7.77118143,70.1649351 6.26527426,70.1649351 C4.75936709,70.1649351 3.91535865,71.1116883 3.91535865,72.9701299 L3.91535865,80.4074026 L0.0875527426,80.4074026 Z" id="Path" fill="#14233C"></path>
                <path d="M25.2712236,68.4712987 C27.3198245,66.3964617 30.4116024,65.7545509 33.1152634,66.8427295 C35.8189245,67.9309082 37.6067852,70.5367925 37.6511814,73.454026 C37.7032035,75.3873276 36.9555273,77.2563202 35.5849367,78.6190909 C34.218083,80.0216446 32.3341979,80.7979599 30.3772996,80.7650649 C28.4128489,80.8197959 26.5215093,80.0175294 25.1941772,78.5664935 C23.8827983,77.2114738 23.1579683,75.3933506 23.176962,73.5066234 C23.170621,71.6145462 23.9254763,69.7996148 25.2712236,68.4712987 L25.2712236,68.4712987 Z M30.4018143,76.9324675 C31.7846948,76.9912141 33.0640962,76.2014464 33.6328231,74.9379831 C34.20155,73.6745198 33.9451198,72.1916914 32.9852325,71.1932384 C32.0253452,70.1947854 30.5552227,69.8816928 29.2725753,70.4025523 C27.989928,70.9234118 27.1529481,72.1733763 27.1588608,73.5592208 C27.1256578,75.3867219 28.576659,76.8960204 30.4018143,76.9324675 Z" id="Shape" fill="#14233C"></path>
                <path d="M40.4983966,80.4074026 L40.4983966,66.682987 L44.3297046,66.682987 L44.277173,68.5238961 C45.1211814,67.1423377 46.3784388,66.42 48.2100422,66.42 C51.0432489,66.42 52.8783544,68.2083117 52.8783544,71.3536364 L52.8783544,80.4003896 L48.8474262,80.4003896 L48.8474262,72.9701299 C48.8474262,71.0520779 48.4376793,70.1649351 46.8827426,70.1649351 C45.3278059,70.1649351 44.4557806,71.1116883 44.4557806,72.9701299 L44.4557806,80.4074026 L40.4983966,80.4074026 Z" id="Path" fill="#14233C"></path>
                <path d="M70.3398734,68.4712987 C72.3884743,66.3964617 75.4802522,65.7545509 78.1839132,66.8427295 C80.8875743,67.9309082 82.675435,70.5367925 82.7198312,73.454026 C82.7734599,75.3882997 82.0240983,77.2583358 80.6500844,78.6190909 C79.2837066,80.02235 77.3995034,80.7987964 75.4424473,80.7650649 C73.4791182,80.8192368 71.5890766,80.0169788 70.262827,78.5664935 C68.9514481,77.2114738 68.2266181,75.3933506 68.2456118,73.5066234 C68.2364869,71.6139949 68.9917742,69.7980246 70.3398734,68.4712987 L70.3398734,68.4712987 Z M75.4704641,76.9324675 C76.8533446,76.9912141 78.132746,76.2014464 78.7014729,74.9379831 C79.2701998,73.6745198 79.0137696,72.1916914 78.0538823,71.1932384 C77.093995,70.1947854 75.6238725,69.8816928 74.3412251,70.4025523 C73.0585778,70.9234118 72.2215979,72.1733763 72.2275105,73.5592208 C72.2106315,74.4371677 72.5428534,75.2858537 73.1510591,75.9184955 C73.7592648,76.5511372 74.5936088,76.9158866 75.4704641,76.9324675 Z" id="Shape" fill="#14233C"></path>
                <polygon id="Path" fill="#14233C" points="56.0022363 80.4074026 56.0022363 77.5461039 61.6371308 70.2350649 56.0022363 70.2350649 56.0022363 66.682987 66.1898734 66.682987 66.1898734 69.93 61.2133755 76.8553247 66.2914346 76.8553247 66.2914346 80.4074026"></polygon>
                <path d="M69.6009306,37.3511688 C69.6018543,38.0452884 69.3272089,38.7113172 68.8374684,39.2025974 L57.1439241,50.9107792 C56.8432999,51.2058665 56.3957774,51.2927844 56.0067649,51.1316386 C55.6177525,50.9704928 55.362375,50.5924031 55.3578481,50.1709091 L55.3578481,23.9318182 L69.4398312,9.90584416 L69.6009306,9.90584416 L69.6009306,37.3511688 Z" id="Path" fill="#E44D60"></path>
                <path d="M60.2678059,0.571558442 C59.8588497,0.168319207 59.2023739,0.168319207 58.7934177,0.571558442 L41.4019409,17.9812987 L41.1602954,17.9812987 L41.1602954,37.6176623 L41.4019409,38.1331169 L55.3578481,24.1597403 L69.6009283,9.89883117 L60.2678059,0.571558442 Z" id="Path" fill="#E4BD7A"></path>
                <path d="M13.2029536,37.3511688 C13.2033413,38.0457152 13.4792172,38.7116731 13.9699156,39.2025974 L25.6634599,50.9107792 C25.9643671,51.2034374 26.4103096,51.2888223 26.7978321,51.1279783 C27.1853547,50.9671343 27.4401746,50.5908928 27.4460338,50.1709091 L27.4460338,23.9318182 L13.3675527,9.90584416 L13.2029536,9.90584416 L13.2029536,37.3511688 Z" id="Path" fill="#1C798A"></path>
                <path d="M24.0139662,0.571558442 C23.6045919,0.166011707 22.9454503,0.166011707 22.5360759,0.571558442 L13.2029536,9.91285714 L27.4460338,24.1737662 L41.4019409,38.1471429 L41.4019409,17.9812987 L24.0139662,0.571558442 Z" id="Path" fill="#77B691"></path>
            </g>
        </g>
    </g>
</svg>