<?xml version="1.0" encoding="UTF-8"?>
<svg width="98px" height="32px" viewBox="0 0 98 32" version="1.1" xmlns="http://www.w3.org/2000/svg" xmlns:xlink="http://www.w3.org/1999/xlink">
    <!-- Generator: Sketch 55.2 (78181) - https://sketchapp.com -->
    <title>MOO-01</title>
    <desc>Created with Sketch.</desc>
    <defs>
        <polygon id="path-1" points="0 0.0107563025 98 0.0107563025 98 31.7310924 0 31.7310924"></polygon>
    </defs>
    <g id="Page-1" stroke="none" stroke-width="1" fill="none" fill-rule="evenodd">
        <g id="07.-Customers" transform="translate(-144.000000, -2081.000000)">
            <g id="MOO-01" transform="translate(144.000000, 2081.000000)">
                <mask id="mask-2" fill="white">
                    <use xlink:href="#path-1"></use>
                </mask>
                <g id="Clip-2"></g>
                <path d="M10.7059556,31.7310924 C7.32931111,31.7310924 4.28232778,30.2668908 2.22351111,27.5823866 C0.741261111,25.7113277 0,23.5148908 0,21.1557647 C0,20.4235294 0.0824833333,19.6912941 0.247177778,19.0405378 C0.658777778,16.6814118 2.38820556,12.8578151 5.51767222,7.57001681 C7.82366667,3.66521008 9.71751667,0.736806723 9.8,0.736806723 C9.96469444,0.411428571 10.2118722,0.00457142857 10.7059556,0.00457142857 C11.2000389,0.00457142857 11.4469444,0.411428571 11.6941222,0.736806723 C11.6941222,0.736806723 13.6704556,3.66521008 15.97645,7.57001681 C19.1059167,12.8578151 20.8353444,16.6814118 21.2469444,19.0405378 C21.4119111,19.6912941 21.4941222,20.4235294 21.4941222,21.1557647 C21.4941222,23.5148908 20.7528611,25.7113277 19.2706111,27.5823866 C17.1293111,30.1854118 14.0001167,31.7310924 10.7059556,31.7310924 M10.7059556,28.9651092 C13.2588556,28.9651092 15.5645778,27.8262857 17.1293111,25.8740168 C18.1999611,24.4910252 18.7765278,22.7826555 18.7765278,20.9928067 C18.7765278,20.4235294 18.6940444,19.9354622 18.6118333,19.365916 C18.2824444,17.5760672 16.8824056,14.4849748 14.4942,10.336 C12.6822889,7.16342857 11.1175556,4.88551261 11.1175556,4.88551261 L10.7059556,4.31623529 L10.3765667,4.80430252 C10.3765667,4.80430252 8.81183333,7.16342857 6.99992222,10.2547899 C4.52950556,14.4034958 3.12946667,17.4948571 2.88228889,19.2847059 C2.80007778,19.8539832 2.71759444,20.3420504 2.71759444,20.9115966 C2.71759444,22.7011765 3.29416111,24.3283361 4.36481111,25.7925378 C5.84706111,27.8262857 8.15305556,28.9651092 10.7059556,28.9651092 M98,16.5187227 C98,10.8240672 93.3058,6.18729412 87.5412222,6.18729412 C81.7763722,6.18729412 77.0824444,10.8240672 77.0824444,16.5187227 C77.0824444,22.2131092 81.7763722,26.8501513 87.5412222,26.8501513 C93.3058,26.8501513 98,22.2131092 98,16.5187227 M87.5412222,24.2468571 C83.2588944,24.2468571 79.7175556,20.8301176 79.7175556,16.5187227 C79.7175556,12.2885378 83.1764111,8.79031933 87.5412222,8.79031933 C91.82355,8.79031933 95.3646167,12.2070588 95.3646167,16.5187227 C95.3646167,20.8301176 91.82355,24.2468571 87.5412222,24.2468571 M74.6117556,16.5187227 C74.6117556,10.8240672 69.9175556,6.18729412 64.1529778,6.18729412 C58.3881278,6.18729412 53.6942,10.8240672 53.6942,16.5187227 C53.6942,22.2131092 58.3881278,26.8501513 64.1529778,26.8501513 C69.9175556,26.8501513 74.6117556,22.2131092 74.6117556,16.5187227 M64.1529778,24.2468571 C59.87065,24.2468571 56.3293111,20.8301176 56.3293111,16.5187227 C56.3293111,12.2885378 59.7881667,8.79031933 64.1529778,8.79031933 C68.4353056,8.79031933 71.9763722,12.2070588 71.9763722,16.5187227 C71.9763722,20.8301176 68.4353056,24.2468571 64.1529778,24.2468571 M40.7647333,21.806521 L48.3412222,7.32611765 C48.5881278,6.75657143 49,6.43119328 49.6587778,6.43119328 C50.4000389,6.43119328 50.9763333,6.9192605 50.9763333,7.73297479 L50.9763333,25.2232605 C50.9763333,25.9552269 50.48225,26.6059832 49.6587778,26.6059832 C48.7528222,26.6059832 48.2587389,25.9552269 48.2587389,25.2232605 L48.2587389,13.0205042 L42.2469833,24.4095462 C41.7529,25.1417815 41.1763333,25.3044706 40.7647333,25.3044706 C40.4353444,25.3044706 39.7765667,25.2232605 39.2824833,24.4095462 L33.2704556,13.0205042 L33.2704556,25.2232605 C33.2704556,25.9552269 32.7763722,26.6059832 31.8706889,26.6059832 C31.0469444,26.6059832 30.5528611,25.9552269 30.5528611,25.2232605 L30.5528611,7.81418487 C30.5528611,6.9192605 31.1294278,6.51267227 31.8706889,6.51267227 C32.5294667,6.51267227 32.8588556,6.83805042 33.1882444,7.40732773 L40.7647333,21.806521" id="Fill-1" fill="#0A8A59" mask="url(#mask-2)"></path>
            </g>
        </g>
    </g>
</svg>