<?xml version="1.0" encoding="utf-8"?>
<svg width="285px" height="520px" viewBox="0 0 285 520" version="1.1" xmlns:xlink="http://www.w3.org/1999/xlink" xmlns="http://www.w3.org/2000/svg">
  <desc>Created with Lunacy</desc>
  <path d="M340.634 280.673C348.631 285.403 358.628 284.074 365.119 277.259L514.577 120.336C522.431 112.091 521.651 98.4798 512.904 91.2933C443.291 34.0953 355.63 0 260.382 0C164.767 0 76.8033 34.3643 7.06339 91.9623C-1.65422 99.161 -2.42001 112.744 5.42159 120.979L154.765 277.78C161.283 284.625 171.334 285.936 179.34 281.137C203.236 266.818 230.897 258.633 260.382 258.633C289.543 258.633 316.919 266.643 340.634 280.673Z" transform="matrix(9.934766E-08 1 1 -9.934766E-08 0 3.051758E-05)"  />
</svg>