<?xml version="1.0" encoding="UTF-8"?>
<svg width="224px" height="57px" viewBox="0 0 224 57" version="1.1" xmlns="http://www.w3.org/2000/svg" xmlns:xlink="http://www.w3.org/1999/xlink">
    <!-- Generator: Sketch 55.2 (78181) - https://sketchapp.com -->
    <title>slack</title>
    <desc>Created with Sketch.</desc>
    <g id="integrations-table" stroke="none" stroke-width="1" fill="none" fill-rule="evenodd">
        <g id="Artboard" transform="translate(-1009.000000, -359.000000)" fill-rule="nonzero">
            <g id="slack" transform="translate(1009.000000, 359.000000)">
                <path d="M71.7429719,44.6574803 L74.5317269,38.1944882 C77.5453815,40.4385827 81.5485944,41.6055118 85.5068273,41.6055118 C88.4305221,41.6055118 90.2746988,40.4834646 90.2746988,38.7779528 C90.2297189,34.0204724 72.77751,37.7456693 72.6425703,25.8070866 C72.5975904,19.7480315 77.9951807,15.080315 85.6417671,15.080315 C90.184739,15.080315 94.7277108,16.2023622 97.9662651,18.7606299 L95.3574297,25.3582677 C92.388755,23.4732283 88.7004016,22.1267717 85.1919679,22.1267717 C82.8080321,22.1267717 81.2337349,23.2488189 81.2337349,24.6850394 C81.2787149,29.3527559 98.8658635,26.7944882 99.0457831,38.1944882 C99.0457831,44.388189 93.7831325,48.7417323 86.226506,48.7417323 C80.6939759,48.7417323 75.611245,47.4401575 71.7429719,44.6574803 L71.7429719,44.6574803 Z M178.750201,35.8606299 C177.355823,38.284252 174.746988,39.9448819 171.733333,39.9448819 C167.280321,39.9448819 163.681928,36.3543307 163.681928,31.9110236 C163.681928,27.4677165 167.280321,23.8771654 171.733333,23.8771654 C174.746988,23.8771654 177.355823,25.5377953 178.750201,27.9614173 L186.441767,23.6976378 C183.563052,18.5811024 178.030522,15.080315 171.733333,15.080315 C162.42249,15.080315 154.865863,22.6204724 154.865863,31.9110236 C154.865863,41.2015748 162.42249,48.7417323 171.733333,48.7417323 C178.075502,48.7417323 183.563052,45.2858268 186.441767,40.1244094 L178.750201,35.8606299 L178.750201,35.8606299 Z M102.914056,1.12204724 L112.539759,1.12204724 L112.539759,48.1133858 L102.914056,48.1133858 L102.914056,1.12204724 Z M190.22008,1.12204724 L190.22008,48.1133858 L199.845783,48.1133858 L199.845783,34.0204724 L211.270683,48.1133858 L223.595181,48.1133858 L209.066667,31.3724409 L222.515663,15.7535433 L210.730924,15.7535433 L199.845783,28.7244094 L199.845783,1.12204724 L190.22008,1.12204724 Z M141.146988,35.9503937 C139.75261,38.2393701 136.873896,39.9448819 133.635341,39.9448819 C129.182329,39.9448819 125.583936,36.3543307 125.583936,31.9110236 C125.583936,27.4677165 129.182329,23.8771654 133.635341,23.8771654 C136.873896,23.8771654 139.75261,25.6724409 141.146988,28.0062992 L141.146988,35.9503937 Z M141.146988,15.7535433 L141.146988,19.5685039 C139.572691,16.9204724 135.659438,15.080315 131.566265,15.080315 C123.11004,15.080315 116.453012,22.5307087 116.453012,31.8661417 C116.453012,41.2015748 123.11004,48.7417323 131.566265,48.7417323 C135.659438,48.7417323 139.572691,46.9015748 141.146988,44.2535433 L141.146988,48.0685039 L150.772691,48.0685039 L150.772691,15.7535433 L141.146988,15.7535433 Z" id="Shape" fill="#000000"></path>
                <path d="M12.2345382,35.9055118 C12.2345382,39.1818898 9.58072289,41.8299213 6.29718876,41.8299213 C3.01365462,41.8299213 0.359839357,39.1818898 0.359839357,35.9055118 C0.359839357,32.6291339 3.01365462,29.9811024 6.29718876,29.9811024 L12.2345382,29.9811024 L12.2345382,35.9055118 Z M15.2032129,35.9055118 C15.2032129,32.6291339 17.8570281,29.9811024 21.1405622,29.9811024 C24.4240964,29.9811024 27.0779116,32.6291339 27.0779116,35.9055118 L27.0779116,50.7165354 C27.0779116,53.9929134 24.4240964,56.6409449 21.1405622,56.6409449 C17.8570281,56.6409449 15.2032129,53.9929134 15.2032129,50.7165354 L15.2032129,35.9055118 Z" id="Shape" fill="#E01E5A"></path>
                <path d="M21.1405622,12.1181102 C17.8570281,12.1181102 15.2032129,9.47007874 15.2032129,6.19370079 C15.2032129,2.91732283 17.8570281,0.269291339 21.1405622,0.269291339 C24.4240964,0.269291339 27.0779116,2.91732283 27.0779116,6.19370079 L27.0779116,12.1181102 L21.1405622,12.1181102 Z M21.1405622,15.1251969 C24.4240964,15.1251969 27.0779116,17.7732283 27.0779116,21.0496063 C27.0779116,24.3259843 24.4240964,26.9740157 21.1405622,26.9740157 L6.25220884,26.9740157 C2.9686747,26.9740157 0.314859438,24.3259843 0.314859438,21.0496063 C0.314859438,17.7732283 2.9686747,15.1251969 6.25220884,15.1251969 L21.1405622,15.1251969 Z" id="Shape" fill="#36C5F0"></path>
                <path d="M44.9349398,21.0496063 C44.9349398,17.7732283 47.588755,15.1251969 50.8722892,15.1251969 C54.1558233,15.1251969 56.8096386,17.7732283 56.8096386,21.0496063 C56.8096386,24.3259843 54.1558233,26.9740157 50.8722892,26.9740157 L44.9349398,26.9740157 L44.9349398,21.0496063 Z M41.9662651,21.0496063 C41.9662651,24.3259843 39.3124498,26.9740157 36.0289157,26.9740157 C32.7453815,26.9740157 30.0915663,24.3259843 30.0915663,21.0496063 L30.0915663,6.19370079 C30.0915663,2.91732283 32.7453815,0.269291339 36.0289157,0.269291339 C39.3124498,0.269291339 41.9662651,2.91732283 41.9662651,6.19370079 L41.9662651,21.0496063 L41.9662651,21.0496063 Z" id="Shape" fill="#2EB67D"></path>
                <path d="M36.0289157,44.792126 C39.3124498,44.792126 41.9662651,47.4401575 41.9662651,50.7165354 C41.9662651,53.9929134 39.3124498,56.6409449 36.0289157,56.6409449 C32.7453815,56.6409449 30.0915663,53.9929134 30.0915663,50.7165354 L30.0915663,44.792126 L36.0289157,44.792126 Z M36.0289157,41.8299213 C32.7453815,41.8299213 30.0915663,39.1818898 30.0915663,35.9055118 C30.0915663,32.6291339 32.7453815,29.9811024 36.0289157,29.9811024 L50.9172691,29.9811024 C54.2008032,29.9811024 56.8546185,32.6291339 56.8546185,35.9055118 C56.8546185,39.1818898 54.2008032,41.8299213 50.9172691,41.8299213 L36.0289157,41.8299213 Z" id="Shape" fill="#ECB22E"></path>
            </g>
        </g>
    </g>
</svg>