<svg xmlns="http://www.w3.org/2000/svg" width="279.214" height="83.742">
  <path d="M41.871 0C18.747 0 0 18.747 0 41.871c0 23.125 18.747 41.87 41.871 41.87 23.127 0 41.872-18.744 41.872-41.87C83.743 18.748 65 .002 41.871.002zm19.202 60.39a2.609 2.609 0 01-3.59.865c-9.83-6.005-22.206-7.365-36.782-4.035a2.61 2.61 0 01-1.161-5.09c15.95-3.644 29.631-2.075 40.669 4.67a2.61 2.61 0 01.864 3.59zm5.125-11.401a3.265 3.265 0 01-4.49 1.076c-11.255-6.918-28.411-8.921-41.724-4.88a3.269 3.269 0 01-4.074-2.175 3.27 3.27 0 012.177-4.072c15.207-4.614 34.111-2.379 47.037 5.564a3.263 3.263 0 011.075 4.488zm.44-11.872c-13.495-8.015-35.76-8.752-48.644-4.842a3.916 3.916 0 11-2.274-7.495c14.791-4.49 39.378-3.622 54.915 5.601a3.912 3.912 0 011.37 5.367 3.913 3.913 0 01-5.364 1.369zm47.28 1.536c-7.23-1.724-8.515-2.934-8.515-5.476 0-2.402 2.26-4.019 5.625-4.019 3.26 0 6.49 1.228 9.88 3.755.1.076.23.107.355.087a.467.467 0 00.315-.193l3.53-4.976a.475.475 0 00-.09-.644c-4.035-3.237-8.575-4.81-13.885-4.81-7.805 0-13.26 4.684-13.26 11.387 0 7.187 4.705 9.732 12.835 11.697 6.915 1.593 8.085 2.928 8.085 5.314 0 2.645-2.36 4.29-6.16 4.29-4.22 0-7.664-1.425-11.514-4.755a.468.468 0 00-.67.05l-3.96 4.71c-.166.2-.146.49.044.66 4.48 4 9.99 6.11 15.94 6.11 8.41 0 13.846-4.595 13.846-11.71.014-6.003-3.58-9.328-12.386-11.47zm31.43-7.13c-3.645 0-6.635 1.436-9.105 4.379V32.59a.472.472 0 00-.47-.475H129.3c-.26 0-.47.213-.47.475v36.8c0 .26.21.475.47.475h6.475c.26 0 .47-.215.47-.475V57.775c2.47 2.765 5.46 4.12 9.105 4.12 6.775 0 13.635-5.215 13.635-15.185.01-9.971-6.85-15.188-13.63-15.188zm6.105 15.188c0 5.074-3.125 8.619-7.605 8.619-4.425 0-7.765-3.705-7.765-8.62 0-4.914 3.34-8.618 7.766-8.618 4.405-.001 7.605 3.623 7.605 8.618zm25.105-15.188c-8.725 0-15.56 6.718-15.56 15.296 0 8.486 6.79 15.131 15.455 15.131 8.755 0 15.61-6.695 15.61-15.24 0-8.515-6.81-15.186-15.505-15.186zm0 23.857c-4.64 0-8.14-3.73-8.14-8.672 0-4.964 3.38-8.567 8.035-8.567 4.67 0 8.19 3.729 8.19 8.676 0 4.963-3.4 8.563-8.085 8.563zm34.135-23.265h-7.125v-7.283a.472.472 0 00-.47-.474h-6.475a.477.477 0 00-.475.474v7.283h-3.11c-.26 0-.47.213-.47.475v5.563c0 .261.21.475.47.475h3.11v14.397c0 5.815 2.895 8.765 8.61 8.765 2.32 0 4.245-.48 6.06-1.51.15-.08.24-.24.24-.41v-5.3a.472.472 0 00-.225-.4.46.46 0 00-.46-.02c-1.245.625-2.45.915-3.8.915-2.075 0-3.005-.945-3.005-3.055V38.63h7.125c.26 0 .47-.213.47-.474v-5.563a.459.459 0 00-.465-.475zm24.82.029v-.895c0-2.631 1.01-3.805 3.27-3.805 1.35 0 2.435.268 3.65.673a.47.47 0 00.62-.451v-5.455a.469.469 0 00-.335-.455c-1.28-.381-2.92-.773-5.38-.773-5.975 0-9.14 3.367-9.14 9.734v1.37h-3.11a.477.477 0 00-.475.474v5.592c0 .261.215.474.475.474h3.11V60.83c0 .265.215.475.475.475h6.47c.265 0 .475-.21.475-.475V38.629h6.045l9.26 22.201c-1.05 2.33-2.085 2.795-3.495 2.795-1.14 0-2.345-.34-3.57-1.015a.515.515 0 00-.375-.035.471.471 0 00-.28.255l-2.195 4.815a.473.473 0 00.205.615c2.29 1.24 4.355 1.77 6.91 1.77 4.78 0 7.425-2.23 9.75-8.22l11.23-29.018a.462.462 0 00-.05-.441.462.462 0 00-.385-.206h-6.74a.474.474 0 00-.45.318l-6.905 19.717-7.56-19.73a.472.472 0 00-.44-.305h-11.06zm-14.39-.029h-6.475a.477.477 0 00-.475.475v28.24c0 .265.215.475.475.475h6.475c.26 0 .475-.21.475-.475V32.592a.473.473 0 00-.475-.475zm-3.2-12.86a4.642 4.642 0 100 9.286 4.64 4.64 0 004.64-4.645c0-2.564-2.08-4.64-4.64-4.64zm56.71 21.94a4.538 4.538 0 01-4.555-4.555 4.58 4.58 0 014.58-4.58 4.538 4.538 0 014.555 4.554c0 2.498-2.02 4.582-4.58 4.582zm.025-8.682c-2.335 0-4.1 1.855-4.1 4.127 0 2.27 1.755 4.1 4.075 4.1 2.335 0 4.1-1.853 4.1-4.126 0-2.271-1.755-4.101-4.075-4.101zm1.01 4.569l1.29 1.804h-1.09l-1.16-1.655h-.995v1.655h-.91v-4.782h2.13c1.115 0 1.845.569 1.845 1.526.005.784-.45 1.263-1.105 1.452zm-.77-2.157h-1.185v1.512h1.185c.59 0 .945-.29.945-.757 0-.492-.355-.755-.945-.755z" fill="#fff" stroke-width=".5"/>
</svg>
