<?xml version="1.0" encoding="UTF-8"?>
<svg width="105px" height="100px" viewBox="0 0 105 100" version="1.1" xmlns="http://www.w3.org/2000/svg" xmlns:xlink="http://www.w3.org/1999/xlink">
    <!-- Generator: Sketch 55.2 (78181) - https://sketchapp.com -->
    <title>survicate-seeklogo.com</title>
    <desc>Created with Sketch.</desc>
    <g id="integrations-table" stroke="none" stroke-width="1" fill="none" fill-rule="evenodd">
        <g id="Artboard" transform="translate(-224.000000, -134.000000)" fill-rule="nonzero">
            <g id="survicate-seeklogo.com" transform="translate(224.000000, 134.000000)">
                <path d="M89.6356289,54.8116337 L74.6509805,36.725495 L83.7601406,25.7304455 C66.7103555,3.68589109 35.79975,6.03143564 21.133793,25.9502475 L29.9468203,36.5878713 L20.5870547,47.884901 L30.3340078,59.6492574 L24.6406289,66.5210396 L8.203125e-05,36.5601485 C18.63225,12.1477723 32.4594375,0.021039604 50.9209805,0.021039604 C72.7835391,0.021039604 84.6005508,10.6794554 105.000082,36.7071782 C105.000082,36.7071782 89.6356289,54.4819307 89.6356289,54.8116337" id="Path" fill="#29292B"></path>
                <polygon id="Path" fill="#29292B" points="52.3178086 62.9110891 67.165875 44.989802 37.3179844 44.989802"></polygon>
                <polygon id="Path" fill="#E8A824" points="40.4035898 71.1067327 34.4218711 78.3265347 52.4470078 99.999802 82.8605039 63.1814851 76.9928086 56.0988119 52.4203477 85.4641584"></polygon>
            </g>
        </g>
    </g>
</svg>