<?xml version="1.0" encoding="UTF-8"?>
<svg width="118px" height="118px" viewBox="0 0 118 118" version="1.1" xmlns="http://www.w3.org/2000/svg" xmlns:xlink="http://www.w3.org/1999/xlink">
    <!-- Generator: Sketch 55.2 (78181) - https://sketchapp.com -->
    <title>surveygizmo-seeklogo.com</title>
    <desc>Created with Sketch.</desc>
    <g id="integrations-table" stroke="none" stroke-width="1" fill="none" fill-rule="evenodd">
        <g id="Artboard" transform="translate(-1421.000000, -176.000000)" fill-rule="nonzero">
            <g id="surveygizmo-seeklogo.com" transform="translate(1421.000000, 176.000000)">
                <rect id="Rectangle" fill="#F4A41D" x="0.264837905" y="0" width="117.735162" height="118"></rect>
                <path d="M52.6438903,61.95 C52.6438903,72.6585 44.286783,79.709 30.1915212,79.709 C21.5695761,79.709 15.0369077,76.7885 11.2703242,71.567 C12.7122195,67.319 15.6254364,64.2805 20.1276808,62.2155 C22.923192,66.965 26.1895262,69.03 31.2802993,69.03 C36.4887781,69.03 39.7845387,66.3455 39.7845387,62.3335 C39.7845387,58.0855 35.7825436,55.519 27.4254364,53.454 L26.4543641,53.218 C17.9501247,51.035 13.7127182,45.9315 13.7127182,38.0255 C13.7127182,28.674 21.2458853,22.3315 33.6049875,22.3315 C38.6957606,22.3315 43.9042394,23.659 49.3775561,26.2255 L49.3775561,27.8185 C49.3775561,31.4765 48.0533666,34.633 45.2578554,37.4355 C41.3735661,34.515 37.4892768,33.0695 33.3695761,33.0695 C28.6319202,33.0695 26.3366584,34.6625 26.3366584,37.819 C26.3366584,40.8575 28.7496259,42.185 33.8698254,43.66 L36.6653367,44.3975 C46.7291771,46.9935 52.6438903,52.8345 52.6438903,61.95 Z" id="Path" fill="#FFFFFF"></path>
                <path d="M108.495262,24.249 C108.495262,25.6945 108.142145,27.5235 107.52419,29.4705 C106.082294,29.3525 104.96409,29.2345 104.14015,29.2345 C100.873815,29.2345 98.3137157,29.5885 95.9007481,31.6535 C98.3137157,35.046 99.284788,38.704 99.284788,43.07 C99.284788,53.277 92.3695761,60.0915 80.5990025,60.829 C80.2458853,62.1565 79.8633416,63.248 79.8633416,64.2215 C79.8633416,65.549 80.0987531,66.6405 80.5990025,67.614 C97.3426434,68.3515 105.817456,74.1925 105.817456,84.8715 C105.817456,95.934 96.2244389,102.5125 78.39202,102.5125 C60.9127182,102.5125 51.7022444,96.3175 51.7022444,85.609 C51.7022444,75.402 57.646384,69.679 69.7700748,67.968 C69.4169576,66.7585 69.1521197,65.667 69.1521197,64.428 C69.1521197,63.4545 69.3875312,62.127 69.8877805,60.534 C59.205985,59.3245 53.5266833,53.2475 53.5266833,43.2765 C53.5266833,30.621 62.3840399,22.243 77.0678304,22.243 C81.3052369,22.243 85.1895262,23.2165 88.9561097,25.3995 C91.9870324,20.65 95.753616,18.467 100.844389,18.467 C103.257357,18.467 105.582045,19.0865 107.641895,19.9125 C108.230424,21.5645 108.495262,23.0395 108.495262,24.249 Z M75.9790524,77.1425 C68.0927681,77.1425 64.3261845,79.4435 64.3261845,84.9305 C64.3261845,90.034 68.9461347,92.8365 78.0389027,92.8365 C88.3381546,92.8365 93.1935162,90.6535 93.1935162,84.9305 C93.1935162,79.591 87.5142145,77.1425 75.9790524,77.1425 Z M76.5970075,32.627 C69.7995012,32.627 66.0329177,36.403 66.0329177,43.07 C66.0329177,48.675 69.6817955,52.1855 75.9790524,52.1855 C82.7765586,52.1855 86.7785536,48.911 86.7785536,43.188 C86.7785536,36.639 82.8942643,32.627 76.5970075,32.627 Z" id="Shape" fill="#FFFFFF"></path>
            </g>
        </g>
    </g>
</svg>