<?xml version="1.0" encoding="UTF-8"?>
<svg width="330px" height="51px" viewBox="0 0 330 51" version="1.1" xmlns="http://www.w3.org/2000/svg" xmlns:xlink="http://www.w3.org/1999/xlink">
    <!-- Generator: Sketch 55.2 (78181) - https://sketchapp.com -->
    <title>surveymonkey-logo-vector</title>
    <desc>Created with Sketch.</desc>
    <g id="integrations-table" stroke="none" stroke-width="1" fill="none" fill-rule="evenodd">
        <g id="Artboard" transform="translate(-400.000000, -460.000000)" fill="#00BF6F" fill-rule="nonzero">
            <g id="surveymonkey-logo-vector" transform="translate(400.000000, 460.000000)">
                <g id="_Group_" transform="translate(73.700000, 13.858696)">
                    <path d="M0.22,23.3934783 L2.915,20.1782609 C5.335,22.2847826 7.755,23.5043478 10.945,23.5043478 C13.695,23.5043478 15.455,22.2293478 15.455,20.2891304 L15.455,20.2336957 C15.455,18.4043478 14.41,17.4065217 9.735,16.2978261 C4.345,14.9673913 1.265,13.3597826 1.265,8.64782609 L1.265,8.5923913 C1.265,4.21304348 4.895,1.16413043 9.955,1.16413043 C13.31,1.10869565 16.555,2.2173913 19.195,4.37934783 L16.775,7.81630435 C14.465,6.09782609 12.21,5.21086957 9.9,5.21086957 C7.315,5.21086957 5.775,6.54130435 5.775,8.25978261 L5.775,8.31521739 C5.775,10.3108696 6.93,11.1423913 11.77,12.3619565 C17.16,13.6923913 19.965,15.6326087 19.965,19.8456522 L19.965,19.901087 C19.965,24.6684783 16.225,27.551087 10.89,27.551087 C6.93,27.4956522 3.135,26.0543478 0.22,23.3934783 Z" id="_Compound_Path_"></path>
                    <path d="M22.825,20.1228261 L22.825,7.81630435 L27.225,7.81630435 L27.225,18.7923913 C27.225,21.7858696 28.71,23.5043478 31.35,23.5043478 C33.99,23.5043478 35.695,21.7304348 35.695,18.6815217 L35.695,7.76086957 L40.095,7.76086957 L40.095,27.1630435 L35.695,27.1630435 L35.695,25.1673913 C34.155,26.8304348 31.955,27.7173913 29.7,27.551087 C25.355,27.551087 22.825,24.6130435 22.825,20.1228261 Z" id="_Compound_Path_2"></path>
                    <path d="M44.715,7.81630435 L49.115,7.81630435 L49.115,11.0315217 C50.325,8.14891304 52.525,7.3173913 55.88,7.42826087 L55.88,11.3641304 L55.605,11.3641304 C51.755,11.3641304 49.06,13.9695652 49.06,19.7902174 L49.06,27.1630435 L44.66,27.1630435 L44.715,7.81630435 Z" id="_Compound_Path_3"></path>
                    <polygon id="_Compound_Path_4" points="57.475 7.81630435 62.205 7.81630435 67.375 21.2315217 72.6 7.81630435 77.22 7.81630435 69.41 27.273913 65.45 27.273913"></polygon>
                    <path d="M77.165,17.5728261 L77.165,17.5173913 C77.165,11.973913 81.07,7.48369565 86.515,7.48369565 C92.62,7.48369565 95.7,12.3065217 95.7,17.85 C95.7,18.2380435 95.645,18.626087 95.645,19.0695652 L81.565,19.0695652 C82.06,22.2293478 84.26,23.9478261 87.065,23.9478261 C89.045,23.9478261 90.97,23.1163043 92.29,21.6195652 L94.82,23.8923913 C92.895,26.276087 90.035,27.6065217 87.01,27.4956522 C81.455,27.551087 77.165,23.5043478 77.165,17.5728261 Z M91.355,16.1315217 C91.08,13.3043478 89.375,11.0315217 86.515,11.0315217 C83.82,11.0315217 81.95,13.1380435 81.565,16.1315217 L91.355,16.1315217 Z" id="_Compound_Path_5"></path>
                    <polygon id="_Compound_Path_6" points="119.02 1.55217391 123.75 1.55217391 131.505 14.6347826 139.26 1.55217391 143.99 1.55217391 143.99 27.1630435 139.535 27.1630435 139.535 8.81413043 131.505 21.8413043 131.34 21.8413043 123.42 8.86956522 123.42 27.1630435 119.02 27.1630435"></polygon>
                    <path d="M147.125,17.5728261 L147.125,17.5173913 C147.125,11.8076087 151.69,7.20652174 157.3,7.20652174 C162.965,7.20652174 167.53,11.8076087 167.53,17.4619565 L167.53,17.5173913 C167.53,23.1163043 163.02,27.6065217 157.465,27.6065217 C157.41,27.6065217 157.3,27.6065217 157.245,27.6065217 C151.8,27.7728261 147.235,23.3934783 147.07,17.9054348 C147.125,17.7391304 147.125,17.6836957 147.125,17.5728261 Z M163.185,17.5728261 L163.185,17.5173913 C163.185,14.1358696 160.765,11.3086957 157.3,11.3086957 C153.835,11.3086957 151.525,14.0804348 151.525,17.4619565 L151.525,17.5173913 C151.525,20.898913 153.945,23.726087 157.41,23.726087 C160.93,23.726087 163.185,20.898913 163.185,17.5728261 L163.185,17.5728261 Z" id="_Compound_Path_7"></path>
                    <polygon id="_Compound_Path_8" points="192.115 0.443478261 196.515 0.443478261 196.515 16.4086957 204.435 7.87173913 209.77 7.87173913 202.125 15.7434783 209.99 27.2184783 204.93 27.2184783 199.155 18.9032609 196.46 21.7304348 196.46 27.273913 192.06 27.273913"></polygon>
                    <path d="M209.715,17.5728261 L209.715,17.5173913 C209.715,11.973913 213.62,7.48369565 219.065,7.48369565 C225.17,7.48369565 228.25,12.3065217 228.25,17.85 C228.25,18.2380435 228.195,18.626087 228.195,19.0695652 L214.115,19.0695652 C214.61,22.2293478 216.81,23.9478261 219.615,23.9478261 C221.595,23.9478261 223.52,23.1163043 224.84,21.6195652 L227.37,23.8923913 C225.445,26.276087 222.585,27.6065217 219.56,27.4956522 C213.95,27.551087 209.715,23.5043478 209.715,17.5728261 Z M223.905,16.1315217 C223.63,13.3043478 221.925,11.0315217 219.065,11.0315217 C216.37,11.0315217 214.5,13.1380435 214.115,16.1315217 L223.905,16.1315217 Z" id="_Compound_Path_9"></path>
                    <polygon id="_Path_" points="111.155 7.81630435 105.875 21.0097826 100.595 7.81630435 96.03 7.81630435 103.565 26.7195652 99.605 36.476087 104.17 36.476087 115.72 7.81630435"></polygon>
                    <path d="M253.11,8.14891304 C252.67,8.14891304 252.23,8.25978261 251.79,8.48152174 C251.35,8.70326087 251.02,9.03586957 250.8,9.47934783 C250.58,9.8673913 250.47,10.3108696 250.47,10.8097826 C250.47,11.2532609 250.58,11.6967391 250.8,12.1402174 C251.02,12.5282609 251.35,12.9163043 251.79,13.1380435 C252.615,13.5815217 253.605,13.5815217 254.375,13.1380435 C254.76,12.9163043 255.145,12.5836957 255.365,12.1402174 C255.805,11.3086957 255.805,10.3108696 255.365,9.53478261 C255.145,9.09130435 254.815,8.75869565 254.375,8.53695652 C253.99,8.25978261 253.55,8.14891304 253.11,8.14891304 M253.055,7.65 C253.605,7.65 254.155,7.81630435 254.595,8.03804348 C255.09,8.31521739 255.53,8.70326087 255.75,9.20217391 C256.3,10.2 256.3,11.3641304 255.75,12.3619565 C255.475,12.8608696 255.09,13.248913 254.595,13.526087 C254.1,13.8032609 253.605,13.9141304 253.055,13.9141304 C252.505,13.9141304 251.955,13.7478261 251.46,13.526087 C250.965,13.248913 250.58,12.8608696 250.305,12.3619565 C250.03,11.8630435 249.92,11.3641304 249.92,10.8097826 C249.92,10.2554348 250.085,9.70108696 250.36,9.20217391 C250.635,8.70326087 251.02,8.31521739 251.515,8.03804348 C252.01,7.76086957 252.505,7.65 253.055,7.65" id="_Compound_Path_10"></path>
                    <g id="_Group_2" transform="translate(251.350000, 8.869565)">
                        <path d="M0.44,0.166304348 L2.035,0.166304348 C2.42,0.166304348 2.75,0.277173913 3.08,0.498913043 C3.3,0.720652174 3.355,0.997826087 3.355,1.275 L3.355,1.275 C3.355,1.77391304 3.025,2.27282609 2.53,2.32826087 L3.465,3.65869565 L2.75,3.65869565 L1.87,2.43913043 L1.1,2.43913043 L1.1,3.65869565 L0.44,3.65869565 L0.44,0.166304348 Z M1.925,1.94021739 C2.365,1.94021739 2.64,1.71847826 2.64,1.33043478 L2.64,1.33043478 C2.64,0.942391304 2.365,0.720652174 1.925,0.720652174 L1.045,0.720652174 L1.045,1.88478261 L1.925,1.88478261 L1.925,1.94021739 Z" id="_Compound_Path_11"></path>
                    </g>
                    <polygon id="_Path_2" points="243.65 7.81630435 238.37 21.0097826 233.09 7.81630435 228.525 7.81630435 236.06 26.7195652 232.1 36.476087 236.72 36.476087 248.215 7.81630435"></polygon>
                    <path d="M187.66,14.8565217 L187.66,27.1630435 L183.26,27.1630435 L183.26,16.1869565 C183.26,13.1934783 181.775,11.475 179.19,11.475 C176.605,11.475 174.845,13.248913 174.845,16.2423913 L174.845,27.1630435 L170.445,27.1630435 L170.445,7.87173913 L174.845,7.87173913 L174.845,9.8673913 C176.385,8.20434783 178.585,7.3173913 180.84,7.48369565 C185.13,7.42826087 187.66,10.3663043 187.66,14.8565217 Z" id="_Compound_Path_12"></path>
                </g>
                <path d="M56.815,26.3869565 C56.21,26.3869565 55.605,26.4423913 55,26.6086957 C52.745,17.6282609 45.485,10.8097826 36.41,9.14673913 C36.025,9.09130435 35.64,9.03586957 35.255,8.98043478 L35.255,8.98043478 C35.31,6.76304348 35.42,4.1576087 38.72,1.82934783 L38.225,0.498913043 C38.225,0.498913043 31.845,2.49456522 31.13,7.9826087 C30.8,6.48586957 27.885,4.60108696 26.4,4.26847826 L25.685,5.4326087 C27.005,6.20869565 27.885,7.59456522 28.105,9.14673913 L28.105,9.14673913 C19.03,10.8097826 11.77,17.6282609 9.515,26.6086957 C5.445,25.5554348 1.32,28.1054348 0.275,32.2076087 C-0.77,36.3097826 1.76,40.4673913 5.83,41.5206522 C7.37,41.9086957 9.02,41.7978261 10.505,41.1880435 C11.165,42.851087 11.99,44.4032609 12.98,45.8445652 L19.305,41.576087 L19.25,41.5206522 C17.49,39.026087 16.5,36.0326087 16.39,32.9836957 C16.225,29.4913043 17.05,25.998913 19.25,23.9478261 C23.815,20.0119565 28.82,21.7858696 31.9,25.5554348 L32.725,25.5554348 C35.86,21.7858696 40.81,20.0119565 45.375,23.9478261 C47.575,25.998913 48.455,29.4913043 48.235,32.9836957 C48.125,36.0326087 47.135,39.026087 45.375,41.5206522 L45.32,41.576087 L51.645,45.8445652 C52.635,44.4032609 53.46,42.851087 54.12,41.1880435 C58.025,42.7402174 62.425,40.8 63.965,36.8086957 C65.505,32.8728261 63.58,28.4380435 59.62,26.8858696 C58.685,26.5532609 57.75,26.3869565 56.815,26.3869565 L56.815,26.3869565 Z M7.425,36.3097826 C6.16,36.2543478 5.225,35.201087 5.28,33.926087 C5.335,32.7619565 6.27,31.8195652 7.425,31.7641304 C7.865,31.7641304 8.305,31.9304348 8.69,32.1521739 C8.69,33.3163043 8.8,34.5358696 8.91,35.7 C8.525,36.1434783 7.975,36.3097826 7.425,36.3097826 Z M56.98,36.3097826 C56.43,36.3097826 55.88,36.0880435 55.495,35.7554348 C55.66,34.5913043 55.715,33.3717391 55.715,32.2076087 C56.76,31.4869565 58.135,31.7641304 58.85,32.8173913 C59.125,33.2054348 59.235,33.648913 59.235,34.0923913 C59.235,35.3119565 58.19,36.3652174 56.98,36.3097826 C56.98,36.3097826 56.98,36.3097826 56.98,36.3097826 L56.98,36.3097826 Z" id="_Compound_Path_13"></path>
            </g>
        </g>
    </g>
</svg>