<svg width="180" height="27" xmlns="http://www.w3.org/2000/svg">
  <g fill="#332E5E" fill-rule="nonzero">
    <path d="M39.714 8.73H35.58V5.7h11.53v3.03h-4.193V21.3h-3.204zM49.028 5.7h9.674v3.03h-6.499v3.21h5.211v3.03h-5.211v3.3h6.5v3.03h-9.675zM67.987 5.43c3.174 0 5.84 1.65 7.188 4.14l-2.756 1.53c-.928-1.59-2.396-2.61-4.432-2.61-2.726 0-4.852 2.25-4.852 4.98 0 2.73 2.126 4.98 4.852 4.98 2.006 0 3.504-1.02 4.432-2.61l2.756 1.53c-1.318 2.49-4.014 4.14-7.188 4.14-4.433 0-8.027-3.6-8.027-8.04 0-4.44 3.594-8.04 8.027-8.04zM77.45 5.7h3.176v6.21h6.738V5.7h3.175v15.6h-3.175v-6.33h-6.738v6.33H77.45zM110.097 21.3l-7.967-10.17V21.3h-3.175V5.7h2.726l7.966 10.17V5.7h3.175v15.6zM120.879 5.7h2.815l6.739 15.6h-3.325l-1.497-3.54h-6.62l-1.497 3.54H114.2l6.679-15.6zm3.534 9.24l-2.127-5.07-2.156 5.07h4.283zM133.098 8.73h-4.133V5.7h11.53v3.03h-4.192V21.3h-3.205zM142.413 5.7h3.174v15.6h-3.174zM155.77 21.57c-4.432 0-8.026-3.6-8.026-8.04 0-4.44 3.594-8.04 8.026-8.04 4.433 0 8.027 3.6 8.027 8.04.03 4.44-3.564 8.04-8.027 8.04zm0-3.09c2.726 0 4.852-2.25 4.852-4.98 0-2.73-2.126-4.98-4.852-4.98-2.725 0-4.852 2.25-4.852 4.98 0 2.73 2.127 4.98 4.852 4.98zM177.125 21.3l-7.967-10.17V21.3h-3.175V5.7h2.726l7.967 10.17V5.7h3.174v15.6zM27.015 14.85c.06-.45.06-.9.06-1.38 0-.48-.03-.93-.06-1.38h-6.5l6.02-2.49c-.269-.87-.598-1.74-1.047-2.55l-6.02 2.52 4.612-4.62c-.57-.69-1.228-1.38-1.947-1.95l-4.612 4.62 2.486-6.03c-.779-.42-1.648-.78-2.546-1.05l-2.486 6.03V.06C14.525 0 14.077 0 13.597 0c-.479 0-.928.03-1.377.06v6.51L9.734.54c-.869.27-1.737.6-2.546 1.05l2.486 6.03L5.12 3c-.688.57-1.377 1.23-1.946 1.95l4.612 4.62-6.02-2.49C1.347 7.86.988 8.73.72 9.63l6.02 2.49H.209c-.06.45-.06.9-.06 1.38 0 .48.03.93.06 1.38h6.5l-6.02 2.49c.27.87.599 1.74 1.048 2.55l6.02-2.49-4.582 4.62c.569.69 1.228 1.38 1.946 1.95l4.613-4.62-2.486 6.03c.779.42 1.647.78 2.546 1.05l2.486-6.03v6.51c.449.06.898.06 1.377.06.48 0 .929-.03 1.378-.06v-6.51l2.486 6.03c.868-.27 1.737-.6 2.546-1.05l-2.486-6.03 4.582 4.56c.689-.57 1.378-1.23 1.947-1.95l-4.612-4.62 6.02 2.49c.419-.78.778-1.65 1.048-2.55l-6.02-2.49h6.469v.03zm-13.388 3.57a4.95 4.95 0 010-9.9c2.726 0 4.942 2.19 4.942 4.92 0 2.76-2.216 4.98-4.942 4.98z"/>
  </g>
</svg>
