<svg width="128" height="22" xmlns="http://www.w3.org/2000/svg">
  <path d="M14.818 2.333c2.652-2.646 6.968-2.646 9.62 0a6.781 6.781 0 010 9.596l-9.3 9.276a2.726 2.726 0 01-3.847 0L22.514 10.01a4.04 4.04 0 001.195-2.88 4.04 4.04 0 00-1.195-2.878 4.093 4.093 0 00-5.772 0L9.367 11.61 5.84 8.09a1.355 1.355 0 010-1.919 1.363 1.363 0 011.924 0l1.603 1.6 5.451-5.438zm106.572 3.81c4.078 0 6.532 2.594 6.532 6.848 0 .519-.062 1.038-.062 1.1h-9.465c.062 1.743 1.56 3.01 3.328 3.01 1.664 0 2.58-.831 3.016-2.014l3.017.892c-.687 2.283-2.767 4.192-6.033 4.192-3.64 0-6.844-2.614-6.844-7.076 0-4.213 3.12-6.952 6.511-6.952zm-63.58 0c4.203 0 5.763 2.366 5.763 5.022v6.495c0 .706.083 1.64.167 2.096h-3.287a10.77 10.77 0 01-.125-1.577c-.687 1.058-1.956 1.972-3.911 1.972-2.83 0-4.556-1.91-4.556-3.985 0-2.366 1.748-3.694 3.953-4.026l3.266-.477c.749-.104.998-.477.998-.934 0-.934-.728-1.722-2.226-1.722-1.56 0-2.433.996-2.538 2.158l-3.182-.664c.208-2.075 2.122-4.358 5.679-4.358zM90.67.312v14.983c0 1.141.645 1.473 1.54 1.473.187 0 .374 0 .624-.02v3.05c-.5.104-.915.166-1.477.166-2.58 0-4.202-1.515-4.202-4.068V.312h3.516zm-52.6 2.282v3.953h2.668V9.72H38.07v5.539c0 1.156.539 1.532 1.563 1.532.431 0 .917-.054 1.105-.108v2.958c-.323.135-.97.323-2.021.323-2.588 0-4.205-1.533-4.205-4.087V9.72h-2.399V6.547h.674c1.402 0 2.048-.914 2.048-2.097V2.594h3.235zm41.795 3.59c3.287 0 4.784 2.345 4.784 5.25v8.343h-3.578v-7.72c0-1.473-.728-2.635-2.454-2.635-1.56 0-2.476 1.203-2.476 2.74v7.594h-3.578V6.537h3.474v1.64c.811-1.37 2.392-1.993 3.828-1.993zm28.488 0c3.287 0 4.785 2.345 4.785 5.25v8.343h-3.579v-7.72c0-1.473-.728-2.635-2.454-2.635-1.56 0-2.476 1.203-2.476 2.74v7.594h-3.578V6.537h3.474v1.64c.811-1.37 2.392-1.993 3.828-1.993zm-58.218.25c.291 0 .562.041.832.062v3.59a5.266 5.266 0 00-1.082-.104c-1.83 0-3.411.892-3.411 3.735v6.04h-3.578V6.536h3.474V8.51c.811-1.744 2.642-2.076 3.765-2.076zm19.7.103v13.22h-3.578V6.536h3.578zm28.488 0v13.22h-3.578V6.536h3.578zM1.993 2.333c2.544-2.538 6.618-2.64 9.287-.31L9.35 3.95a4.094 4.094 0 00-5.434.302 4.069 4.069 0 000 5.758l5.451 5.437 9.299-9.276a1.363 1.363 0 011.924 0c.531.53.531 1.39 0 1.92L9.367 19.285l-7.375-7.357A6.733 6.733 0 010 7.13c0-1.813.708-3.517 1.992-4.798zM60.057 13.82l-2.996.457c-.915.124-1.643.643-1.643 1.66 0 .789.561 1.536 1.726 1.536 1.519 0 2.913-.727 2.913-3.072v-.58zm61.353-4.794c-1.852 0-2.87 1.412-2.954 2.615h5.908c-.042-1.328-.915-2.615-2.954-2.615zM68.025 0c1.227 0 2.205.976 2.205 2.22a2.186 2.186 0 01-2.205 2.18c-1.207 0-2.205-.996-2.205-2.18 0-1.244.998-2.24 2.205-2.22zm28.509 0c1.227 0 2.205.976 2.205 2.22a2.186 2.186 0 01-2.205 2.18c-1.207 0-2.205-.996-2.205-2.18 0-1.244.978-2.24 2.205-2.22z" fill="#291C45" fill-rule="evenodd"/>
</svg>
