<svg width="157" height="26" xmlns="http://www.w3.org/2000/svg">
  <g fill="#FFF" fill-rule="nonzero">
    <path d="M2.599 0l3.45 5.675L0 11.342h10.46l.983-2.271H5.672l3.492-3.41-2.04-3.39h9.517L8.286 21.65h2.863L20.49 0H2.6M139.485 18.52c-1.844-.245-2.928-.595-2.928-1.782 0-1.082 1.084-1.746 2.423-1.746 1.083 0 2.458.42 3.325 1.049l1.158-1.678c-1.085-.873-2.82-1.326-4.448-1.326-2.783 0-4.844 1.641-4.844 3.806 0 2.48 1.627 3.283 4.374 3.702 1.555.245 2.893.419 2.893 1.71 0 1.083-1.085 1.678-2.53 1.678-1.411 0-2.676-.384-3.906-1.328l-1.047 1.852c.903.803 2.782 1.431 4.88 1.431 2.892 0 4.989-1.641 4.989-3.841 0-2.654-2.17-3.248-4.339-3.527zm-66.025-.004c-1.844-.245-2.929-.595-2.929-1.782 0-1.082 1.085-1.746 2.423-1.746 1.084 0 2.458.42 3.325 1.049l1.158-1.677c-1.084-.874-2.82-1.327-4.447-1.327-2.784 0-4.845 1.642-4.845 3.806 0 2.48 1.627 3.283 4.375 3.702 1.555.245 2.892.42 2.892 1.711 0 1.083-1.085 1.677-2.53 1.677-1.41 0-2.676-.385-3.906-1.328l-1.048 1.851c.904.803 2.784 1.432 4.881 1.432 2.893 0 4.99-1.64 4.99-3.841 0-2.654-2.17-3.247-4.339-3.527zm78.01 5.342c-2.315 0-3.905-1.782-3.905-4.366 0-2.409 1.374-4.47 3.615-4.47 2.568 0 3.254 2.096 3.327 3.388h-4.438l-.832 1.886h7.692c.036-.49.036-.628.036-.873 0-3.562-1.844-6.39-5.82-6.39-3.436 0-6.075 2.722-6.075 6.46 0 3.841 2.53 6.39 6.146 6.39 2.17 0 4.087-.768 5.243-2.13l-1.447-1.362a4.917 4.917 0 01-3.542 1.467zm-43.483-10.302c-.76-.314-1.59-.385-2.061-.385-1.337 0-2.784.524-3.47 1.468h-.11v-1.363h-2.313v12.397h2.387V18.9c0-2.62 1.445-3.666 3.362-3.666.65 0 1.084.068 1.663.208l.542-1.885zM41.57 13.52c-.76-.314-1.591-.35-2.062-.35-1.338 0-2.638.525-3.326 1.466h-.108v-1.36H33.76v12.397h2.387v-6.775c0-2.62 1.3-3.667 3.217-3.667.651 0 1.085.07 1.664.21l.542-1.921zM20.49 9.086v2.235h5.351v14.352h2.532V11.321h5.35V9.086H20.49zM49.993 20.89c0 1.85-1.554 3.037-3.724 3.037-1.3 0-2.422-.593-2.422-2.06 0-1.361 1.157-2.27 2.929-2.27 1.59 0 2.64.28 3.217.699v.594zm-3.362-7.858c-1.41 0-2.748.209-3.76.593l.398 1.887c1.157-.35 2.097-.49 3.037-.49 2.025 0 3.687.909 3.687 2.934v.349c-.65-.244-1.662-.559-3.145-.559-3.254 0-5.387 1.607-5.387 4.226 0 2.724 2.097 3.946 4.447 3.946 1.953 0 3.29-.767 3.978-1.676h.107v1.433h2.315V17.92c0-3.386-2.242-4.89-5.677-4.89zm14.679 0c-1.59 0-3.037.594-3.76 1.816h-.108v-1.571h-2.314v12.396h2.386V18.97c0-2.445 1.266-3.913 3.255-3.913 1.878 0 3 .978 3 3.247v7.37h2.386v-7.788c0-3.143-1.88-4.854-4.845-4.854zm21.513 0c0-1.537.76-2.41 2.206-2.41.542 0 1.41.14 2.097.385l.758-1.712c-.94-.454-2.06-.628-2.928-.628-2.422 0-4.519 1.187-4.519 4.365v.384h-1.59v1.956h1.59v10.301h2.386V15.372h2.422l.832-1.956h-3.254v-.384zm9.436 10.826c-2.313 0-3.904-1.782-3.904-4.366 0-2.409 1.373-4.47 3.616-4.47 2.567 0 3.254 2.096 3.326 3.388H90.86l-.83 1.886h7.69c.036-.49.036-.628.036-.873 0-3.562-1.844-6.39-5.821-6.39-3.435 0-6.073 2.722-6.073 6.46 0 3.841 2.53 6.39 6.145 6.39 2.17 0 4.086-.768 5.243-2.13l-1.446-1.362a4.918 4.918 0 01-3.544 1.467zm33.192-14.772l-2.966 12.885h-.108l-3.073-8.694h-2.133l-3.508 8.694h-.108l-2.35-12.885h-2.567l3.217 16.587h2.387l3.797-9.184h.107l3.292 9.184h2.385l4.086-16.587h-2.458zm3.977-.001h2.603V11.6h-2.603V9.085zm.108 4.19h2.386v12.398h-2.386V13.276z"/>
  </g>
</svg>
