<?xml version="1.0" encoding="UTF-8"?>
<svg width="131px" height="22px" viewBox="0 0 131 22" version="1.1" xmlns="http://www.w3.org/2000/svg" xmlns:xlink="http://www.w3.org/1999/xlink">
    <!-- Generator: Sketch 55.2 (78181) - https://sketchapp.com -->
    <title>transferwise_logo</title>
    <desc>Created with Sketch.</desc>
    <g id="Page-1" stroke="none" stroke-width="1" fill="none" fill-rule="evenodd">
        <g id="07.-Customers" transform="translate(-931.000000, -1259.000000)" fill-rule="nonzero">
            <g id="transferwise_logo" transform="translate(931.000000, 1259.000000)">
                <polyline id="Fill-1" fill="#00CDFF" points="2.16822582 0 5.04803304 4.80230115 0 9.59685206 8.72753909 9.59685206 9.5478744 7.67526405 4.73238785 7.67526405 7.6462207 4.78956175 5.94421094 1.92102881 13.8848788 1.92102881 6.91399405 18.3193511 9.30250029 18.3193511 17.0970633 0 2.16822582 0"></polyline>
                <path d="M116.385818,15.6707957 C114.847207,15.4635663 113.942106,15.1676853 113.942106,14.163116 C113.942106,13.247207 114.847207,12.685913 115.964218,12.685913 C116.868205,12.685913 118.015328,13.0410785 118.738632,13.5730055 L119.704519,12.1534269 C118.799418,11.414821 117.351705,11.0313981 115.993777,11.0313981 C113.671076,11.0313981 111.951782,12.4199495 111.951782,14.2517676 C111.951782,16.350117 113.309148,17.0294296 115.601175,17.3840446 C116.898878,17.591274 118.015328,17.7386684 118.015328,18.8318893 C118.015328,19.7477983 117.110236,20.2509174 115.903431,20.2509174 C114.726748,20.2509174 113.671076,19.9256607 112.644964,19.1272198 L111.771098,20.694184 C112.524506,21.3735054 114.092676,21.9054323 115.843207,21.9054323 C118.256245,21.9054323 120.005661,20.5163217 120.005661,18.6551279 C120.005661,16.4094015 118.19602,15.9068416 116.385818,15.6707957 L116.385818,15.6707957 Z M61.2946725,15.6673006 C59.7560612,15.4600713 58.8509601,15.1641903 58.8509601,14.159621 C58.8509601,13.2437119 59.7560612,12.682418 60.8725195,12.682418 C61.777059,12.682418 62.9236298,13.0375835 63.6469245,13.5695104 L64.6128119,12.150491 C63.7082724,11.411326 62.2599984,11.0279031 60.9020704,11.0279031 C58.579378,11.0279031 56.8595219,12.417005 56.8595219,14.2482725 C56.8595219,16.3471724 58.2174499,17.026485 60.5105914,17.3811088 C61.807733,17.587779 62.9236298,17.7357238 62.9236298,18.8289447 C62.9236298,19.7448625 62.0179759,20.2474224 60.8122859,20.2474224 C59.6356027,20.2474224 58.579378,19.9221656 57.5532657,19.1242752 L56.6788386,20.6901385 C57.4328073,21.3700103 59.0020925,21.9019373 60.7514995,21.9019373 C63.1650994,21.9019373 64.9145152,20.5133859 64.9145152,18.6516416 C64.9145152,16.4059065 63.1048746,15.9038971 61.2946725,15.6673006 L61.2946725,15.6673006 Z M126.385405,20.1875786 C124.454192,20.1875786 123.127499,18.679899 123.127499,16.4934571 C123.127499,14.4549515 124.27407,12.7106753 126.143935,12.7106753 C128.286506,12.7106753 128.85923,14.4843185 128.920016,15.5780986 L125.216531,15.5780986 L124.522787,17.1738794 L130.941014,17.1738794 C130.970582,16.7594206 130.970582,16.6419525 130.970582,16.4347231 C130.970582,13.4204646 129.432524,11.0273439 126.113832,11.0273439 C123.247966,11.0273439 121.045724,13.3312538 121.045724,16.4934571 C121.045724,19.7443033 123.157059,21.9008276 126.174057,21.9008276 C127.984811,21.9008276 129.583656,21.2514325 130.548982,20.0989271 L129.341625,18.9458624 C128.557544,19.7443033 127.531984,20.1875786 126.385414,20.1875786 L126.385405,20.1875786 Z M90.1039227,11.47006 C89.4704125,11.2046558 88.7766687,11.144812 88.3840754,11.144812 C87.2681786,11.144812 86.0613743,11.5880874 85.4892032,12.3865283 L85.3971901,12.3865283 L85.3971901,11.2334636 L83.467091,11.2334636 L83.467091,21.7235157 L85.458538,21.7235157 L85.458538,15.9914477 C85.458538,13.7750797 86.6647721,12.8890882 88.2636169,12.8890882 C88.8067811,12.8890882 89.1687092,12.9472805 89.6516573,13.0658496 L90.1039227,11.47006 L90.1039227,11.47006 Z M34.6854275,11.4407017 C34.0519173,11.1747383 33.3581735,11.1453712 32.9655714,11.1453712 C31.8491131,11.1453712 30.7638902,11.5886466 30.1900433,12.3854273 L30.0997061,12.3854273 L30.0997061,11.2340316 L28.1690455,11.2340316 L28.1690455,21.7240836 L30.1604925,21.7240836 L30.1604925,15.9914565 C30.1604925,13.7750884 31.2462768,12.8885464 32.8451129,12.8885464 C33.3882859,12.8885464 33.750214,12.9478747 34.2331621,13.0658583 L34.6854275,11.4407017 L34.6854275,11.4407017 Z M17.0970633,7.68784618 L17.0970633,9.57950795 L21.5617735,9.57950795 L21.5617735,21.7235244 L23.6742229,21.7235244 L23.6742229,9.57950795 L28.1389331,9.57950795 L28.1389331,7.68784618 L17.0970633,7.68784618 L17.0970633,7.68784618 Z M41.7143085,17.6758888 C41.7143085,19.2411929 40.4171669,20.2463127 38.6069647,20.2463127 C37.5211804,20.2463127 36.5859669,19.744312 36.5859669,18.5025871 C36.5859669,17.3511913 37.5512928,16.5826679 39.0296792,16.5826679 C40.3569333,16.5826679 41.2319219,16.8187052 41.7143085,17.1733289 L41.7143085,17.6758888 L41.7143085,17.6758888 L41.7143085,17.6758888 Z M38.908668,11.0267934 C37.7325376,11.0267934 36.6160793,11.2035548 35.7717734,11.5288029 L36.1035803,13.1256933 C37.068915,12.8298036 37.8529961,12.7112345 38.6376387,12.7112345 C40.3268209,12.7112345 41.7143085,13.4797579 41.7143085,15.1935573 L41.7143085,15.4888878 C41.1716971,15.2827681 40.3268209,15.0162542 39.0899129,15.0162542 C36.3746096,15.0162542 34.5950902,16.3754385 34.5950902,18.5917978 C34.5950902,20.8968175 36.3444972,21.9307538 38.3052702,21.9307538 C39.9347803,21.9307538 41.0506771,21.2813588 41.624524,20.5122762 L41.7143085,20.5122762 L41.7143085,21.7246341 L43.6455218,21.7246341 L43.6455218,15.1641903 C43.6455218,12.2984359 41.7750949,11.0267934 38.908668,11.0267934 L38.908668,11.0267934 Z M51.1567806,11.0267934 C49.8295266,11.0267934 48.622731,11.5299125 48.0193333,12.5638402 L47.92954,12.5638402 L47.92954,11.2340228 L45.9983354,11.2340228 L45.9983354,21.7235244 L47.9892121,21.7235244 L47.9892121,16.0512915 C47.9892121,13.9823178 49.0454455,12.7406016 50.705068,12.7406016 C52.2726774,12.7406016 53.2084525,13.567859 53.2084525,15.4883374 L53.2084525,21.7235244 L55.1993379,21.7235244 L55.1993379,15.1342728 C55.1993379,12.4751886 53.631167,11.0267934 51.1567806,11.0267934 L51.1567806,11.0267934 Z M69.1070818,11.0267934 C69.1070818,9.72690234 69.740592,8.98773727 70.9473876,8.98773727 C71.4002232,8.98773727 72.1240795,9.10631509 72.6973649,9.31354448 L73.3303135,7.86514933 C72.5462325,7.48116725 71.611019,7.3332224 70.8871627,7.3332224 C68.8656121,7.3332224 67.1161963,8.33779172 67.1161963,11.0267934 L67.1161963,11.3520502 L65.7889423,11.3520502 L65.7889423,13.0071155 L67.1161963,13.0071155 L67.1161963,21.7235244 L69.1070818,21.7235244 L69.1070818,13.0071155 L71.1280796,13.0071155 L71.8223762,11.3520502 L69.1070818,11.3520502 L69.1070818,11.0267934 L69.1070818,11.0267934 Z M76.9808302,20.1875786 C75.0501696,20.1875786 73.7229156,18.679899 73.7229156,16.4934571 C73.7229156,14.4549602 74.8689336,12.7106753 76.7399133,12.7106753 C78.8819312,12.7106753 79.4552078,14.4843272 79.5154414,15.5780986 L75.8125087,15.5780986 L75.1193264,17.1738794 L81.5364392,17.1738794 C81.5660077,16.7594206 81.5660077,16.6419525 81.5660077,16.4347231 C81.5660077,13.4204646 80.0279491,11.0273526 76.7092569,11.0273526 C73.8433828,11.0273526 71.6417017,13.3312626 71.6417017,16.4934571 C71.6417017,19.744312 73.752484,21.9008276 76.7694818,21.9008276 C78.5802367,21.9008276 80.17852,21.2514325 81.1444075,20.0989271 L79.9376031,18.9458624 C79.153522,19.744312 78.1274097,20.1875786 76.980839,20.1875786 L76.9808302,20.1875786 Z M104.675307,7.68784618 L102.20092,18.5912474 L102.111136,18.5912474 L99.5469652,11.234582 L97.7668842,11.234582 L94.8402326,18.5912474 L94.7498865,18.5912474 L92.7891223,7.68784618 L90.6471044,7.68784618 L93.3311722,21.7235244 L95.3226191,21.7235244 L98.4907405,13.9523916 L98.580525,13.9523916 L101.327055,21.7235244 L103.317379,21.7235244 L106.726417,7.68784618 L104.675307,7.68784618 L104.675307,7.68784618 Z M107.994008,7.68728697 L110.165577,7.68728697 L110.165577,9.81499471 L107.994008,9.81499471 L107.994008,7.68728697 Z M108.084345,11.2334724 L110.074669,11.2334724 L110.074669,21.7235244 L108.084345,21.7235244 L108.084345,11.2334724 Z" id="Fill-14" fill="#22314C"></path>
            </g>
        </g>
    </g>
</svg>