<?xml version="1.0" encoding="UTF-8"?>
<svg width="130px" height="26px" viewBox="0 0 152 26" version="1.1" xmlns="http://www.w3.org/2000/svg" xmlns:xlink="http://www.w3.org/1999/xlink">
    <!-- Generator: Sketch 55.2 (78181) - https://sketchapp.com -->
    <title>transferwise-color</title>
    <desc>Created with Sketch.</desc>
    <g id="Page-1" stroke="none" stroke-width="1" fill="none" fill-rule="evenodd">
        <g id="Travel-Insights-Main" transform="translate(-521.000000, -43.000000)" fill="#291C45" fill-rule="nonzero">
            <g id="transferwise-color" transform="translate(521.000000, 43.000000)">
                <polyline id="Fill-1" points="2.51580401 0 5.85725971 5.67544682 0 11.3417343 10.1266102 11.3417343 11.0784497 9.0707666 5.49101491 9.0707666 8.87195073 5.66039116 6.89709971 2.27030677 16.1106991 2.27030677 8.02234424 21.6501422 10.7937408 21.6501422 19.8378139 0 2.51580401 0"></polyline>
                <path d="M135.043086,18.5200313 C133.257828,18.2751238 132.207634,17.9254463 132.207634,16.738228 C132.207634,15.6557901 133.257828,14.9924426 134.553902,14.9924426 C135.602802,14.9924426 136.933816,15.4121837 137.773069,16.0408246 L138.893793,14.3631408 C137.843599,13.490243 136.163811,13.0371069 134.5882,13.0371069 C131.893157,13.0371069 129.898251,14.6781222 129.898251,16.842998 C129.898251,19.3228655 131.47321,20.1256895 134.132661,20.54478 C135.638393,20.7896875 136.933816,20.9638808 136.933816,22.2558692 C136.933816,23.3383071 135.883632,23.9329024 134.483371,23.9329024 C133.118059,23.9329024 131.893157,23.5485081 130.702554,22.6048961 L129.688603,24.456763 C130.562785,25.2595972 132.382342,25.8882382 134.413492,25.8882382 C137.213353,25.8882382 139.243209,24.246562 139.243209,22.0469693 C139.243209,19.3929291 137.143474,18.7989947 135.043086,18.5200313 L135.043086,18.5200313 Z M71.120536,18.5159008 C69.3352771,18.2709933 68.2850835,17.9213158 68.2850835,16.7340975 C68.2850835,15.6516596 69.3352771,14.9883121 70.6307096,14.9883121 C71.6802517,14.9883121 73.0106239,15.4080532 73.8498666,16.0366941 L74.9705909,14.3596712 C73.9210489,13.4861125 72.2406088,13.0329764 70.6649977,13.0329764 C67.9699653,13.0329764 65.9744071,14.6746422 65.9744071,16.8388675 C65.9744071,19.3193856 67.5500182,20.1222096 70.2107625,20.5413104 C71.7158429,20.785557 73.0106239,20.9604009 73.0106239,22.2523892 C73.0106239,23.3348375 71.9597889,23.9287719 70.5608203,23.9287719 C69.1955085,23.9287719 67.9699653,23.5443776 66.7793618,22.6014162 L65.7647593,24.4519819 C66.6395932,25.2554668 68.4604432,25.8841077 70.4902895,25.8841077 C73.2908024,25.8841077 75.3206589,24.2430924 75.3206589,22.0428492 C75.3206589,19.3887986 73.2209232,18.7955147 71.120536,18.5159008 L71.120536,18.5159008 Z M146.645661,23.8580475 C144.404864,23.8580475 142.865495,22.0762442 142.865495,19.4922675 C142.865495,17.0831244 144.195867,15.0217072 146.365482,15.0217072 C148.851518,15.0217072 149.516053,17.1178309 149.586584,18.4104802 L145.28941,18.4104802 L144.484455,20.2964029 L151.931558,20.2964029 C151.965867,19.806588 151.965867,19.667762 151.965867,19.4228545 C151.965867,15.8605491 150.181249,13.0323155 146.330553,13.0323155 C143.005274,13.0323155 140.45,15.7551182 140.45,19.4922675 C140.45,23.3341766 142.899793,25.8827962 146.400432,25.8827962 C148.501461,25.8827962 150.356609,25.1153293 151.476682,23.7532774 L150.075779,22.3905647 C149.166005,23.3341766 147.976043,23.8580475 146.645671,23.8580475 L146.645661,23.8580475 Z M104.548063,13.5555255 C103.812998,13.2418659 103.008043,13.1711415 102.552515,13.1711415 C101.257734,13.1711415 99.8574724,13.6950124 99.1935793,14.6386243 L99.086816,14.6386243 L99.086816,13.2759115 L96.8473117,13.2759115 L96.8473117,25.6732458 L99.1579983,25.6732458 L99.1579983,18.8989837 C99.1579983,16.2796396 100.557598,15.2325587 102.412746,15.2325587 C103.042983,15.2325587 103.46293,15.3013315 104.023297,15.4414586 L104.548063,13.5555255 L104.548063,13.5555255 Z M40.2456869,13.5208293 C39.5106216,13.2065089 38.7056669,13.1718024 38.2501286,13.1718024 C36.9546961,13.1718024 35.6955062,13.6956733 35.0296686,14.6373232 L34.9248498,14.6373232 L34.9248498,13.2765828 L32.684694,13.2765828 L32.684694,25.673917 L34.9953806,25.673917 L34.9953806,18.898994 C34.9953806,16.2796499 36.255222,15.2319185 38.11036,15.2319185 C38.7406065,15.2319185 39.1605537,15.3020337 39.7209209,15.4414689 L40.2456869,13.5208293 L40.2456869,13.5208293 Z M19.8378139,9.08563639 L19.8378139,11.3212367 L25.018241,11.3212367 L25.018241,25.6732562 L27.4693273,25.6732562 L27.4693273,11.3212367 L32.6497544,11.3212367 L32.6497544,9.08563639 L19.8378139,9.08563639 L19.8378139,9.08563639 Z M48.401335,20.8896868 C48.401335,22.7395916 46.8962547,23.9274605 44.7958675,23.9274605 C43.5360261,23.9274605 42.4508929,23.3341869 42.4508929,21.8666938 C42.4508929,20.5059533 43.5709657,19.5976985 45.2863454,19.5976985 C46.8263653,19.5976985 47.8416193,19.8766515 48.401335,20.2957524 L48.401335,20.8896868 L48.401335,20.8896868 L48.401335,20.8896868 Z M45.1459354,13.031665 C43.781265,13.031665 42.4858325,13.2405648 41.5061798,13.6249488 L41.8911772,15.512183 C43.0112602,15.1624952 43.9210336,15.0223681 44.8314586,15.0223681 C46.7914257,15.0223681 48.401335,15.930623 48.401335,17.9560223 L48.401335,18.3050492 C47.7717401,18.0614532 46.7914257,17.7464822 45.3562348,17.7464822 C42.2056539,17.7464822 40.1408681,19.352791 40.1408681,21.9721247 C40.1408681,24.6962388 42.1707143,25.9181636 44.4458097,25.9181636 C46.336539,25.9181636 47.63132,25.1506967 48.2971576,24.2417809 L48.401335,24.2417809 L48.401335,25.6745676 L50.6421322,25.6745676 L50.6421322,17.9213158 C50.6421322,14.5345151 48.4718658,13.031665 45.1459354,13.031665 L45.1459354,13.031665 Z M59.3574859,13.031665 C57.817466,13.031665 56.4172146,13.6262603 55.717089,14.8481747 L55.6129014,14.8481747 L55.6129014,13.2765724 L53.3721144,13.2765724 L53.3721144,25.6732562 L55.6821392,25.6732562 L55.6821392,18.9697081 C55.6821392,16.5245574 56.9076925,15.0570746 58.8333614,15.0570746 C60.6522669,15.0570746 61.7380517,16.0347425 61.7380517,18.3043987 L61.7380517,25.6732562 L64.0480867,25.6732562 L64.0480867,17.8859587 C64.0480867,14.7434047 62.2285296,13.031665 59.3574859,13.031665 L59.3574859,13.031665 Z M80.1853163,13.031665 C80.1853163,11.49543 80.9203815,10.6218713 82.3206329,10.6218713 C82.8460606,10.6218713 83.6859548,10.7620087 84.3511409,11.0069162 L85.0855546,9.29517648 C84.1757812,8.84137948 83.090648,8.66653556 82.2507537,8.66653556 C79.9051377,8.66653556 77.8752813,9.85375386 77.8752813,13.031665 L77.8752813,13.4160593 L76.3352613,13.4160593 L76.3352613,15.3720456 L77.8752813,15.3720456 L77.8752813,25.6732562 L80.1853163,25.6732562 L80.1853163,15.3720456 L82.5302909,15.3720456 L83.3358869,13.4160593 L80.1853163,13.4160593 L80.1853163,13.031665 L80.1853163,13.031665 Z M89.3212687,23.8580475 C87.0811129,23.8580475 85.5410929,22.0762442 85.5410929,19.4922675 C85.5410929,17.0831348 86.8708237,15.0217072 89.0417315,15.0217072 C91.5271262,15.0217072 92.1923021,17.1178413 92.2621915,18.4104802 L87.965659,18.4104802 L87.1613559,20.2964029 L94.6071661,20.2964029 C94.6414745,19.806588 94.6414745,19.667762 94.6414745,19.4228545 C94.6414745,15.8605491 92.856857,13.0323258 89.0061607,13.0323258 C85.6808717,13.0323258 83.1262493,15.7551285 83.1262493,19.4922675 C83.1262493,23.3341869 85.5754013,25.8827962 89.0760399,25.8827962 C91.1770685,25.8827962 93.0315652,25.1153293 94.1522896,23.7532774 L92.752028,22.3905647 C91.8422546,23.3341869 90.651651,23.8580475 89.3212788,23.8580475 L89.3212687,23.8580475 Z M121.455318,9.08563639 L118.584274,21.9714742 L118.480097,21.9714742 L115.504876,13.2772333 L113.439438,13.2772333 L110.043629,21.9714742 L109.9388,21.9714742 L107.663714,9.08563639 L105.17832,9.08563639 L108.292658,25.6732562 L110.603344,25.6732562 L114.279332,16.48919 L114.38351,16.48919 L117.570323,25.6732562 L119.879707,25.6732562 L123.835232,9.08563639 L121.455318,9.08563639 L121.455318,9.08563639 Z M125.306024,9.08497551 L127.825707,9.08497551 L127.825707,11.5995392 L125.306024,11.5995392 L125.306024,9.08497551 Z M125.410843,13.2759219 L127.720227,13.2759219 L127.720227,25.6732562 L125.410843,25.6732562 L125.410843,13.2759219 Z" id="Fill-14"></path>
            </g>
        </g>
    </g>
</svg>