<svg width="157" height="26" viewBox="0 0 152 26" xmlns="http://www.w3.org/2000/svg">
  <g fill="#291C45" fill-rule="nonzero">
    <path d="M2.516 0l3.341 5.675L0 11.342h10.127l.951-2.271H5.491l3.381-3.41-1.975-3.39h9.214L8.022 21.65h2.772L19.838 0H2.516M135.043 18.52c-1.785-.245-2.835-.595-2.835-1.782 0-1.082 1.05-1.746 2.346-1.746 1.049 0 2.38.42 3.22 1.049l1.12-1.678c-1.05-.873-2.73-1.326-4.306-1.326-2.695 0-4.69 1.641-4.69 3.806 0 2.48 1.575 3.283 4.235 3.702 1.505.245 2.8.419 2.8 1.71 0 1.083-1.05 1.678-2.45 1.678-1.365 0-2.59-.384-3.78-1.328l-1.014 1.852c.874.803 2.693 1.431 4.724 1.431 2.8 0 4.83-1.641 4.83-3.841 0-2.654-2.1-3.248-4.2-3.527zm-63.922-.004c-1.786-.245-2.836-.595-2.836-1.782 0-1.082 1.05-1.746 2.346-1.746 1.05 0 2.38.42 3.219 1.049l1.12-1.677c-1.049-.874-2.73-1.327-4.305-1.327-2.695 0-4.69 1.642-4.69 3.806 0 2.48 1.575 3.283 4.236 3.702 1.505.245 2.8.42 2.8 1.711 0 1.083-1.051 1.677-2.45 1.677-1.365 0-2.591-.385-3.782-1.328l-1.014 1.851c.875.803 2.695 1.432 4.725 1.432 2.8 0 4.83-1.64 4.83-3.841 0-2.654-2.1-3.247-4.2-3.527zm75.525 5.342c-2.241 0-3.78-1.782-3.78-4.366 0-2.409 1.33-4.47 3.5-4.47 2.486 0 3.15 2.096 3.22 3.388h-4.297l-.805 1.886h7.448c.034-.49.034-.628.034-.873 0-3.562-1.785-6.39-5.635-6.39-3.326 0-5.881 2.722-5.881 6.46 0 3.841 2.45 6.39 5.95 6.39 2.101 0 3.957-.768 5.077-2.13l-1.401-1.362a4.685 4.685 0 01-3.43 1.467zm-42.098-10.302c-.735-.314-1.54-.385-1.995-.385-1.295 0-2.696.524-3.36 1.468h-.106v-1.363h-2.24v12.397h2.311V18.9c0-2.62 1.4-3.666 3.255-3.666.63 0 1.05.068 1.61.208l.525-1.885zm-64.302-.035c-.735-.314-1.54-.35-1.996-.35-1.295 0-2.554.525-3.22 1.466h-.105v-1.36h-2.24v12.397h2.31v-6.775c0-2.62 1.26-3.667 3.115-3.667.63 0 1.05.07 1.61.21l.526-1.921zM19.838 9.086v2.235h5.18v14.352h2.451V11.321h5.18V9.086H19.839zM48.4 20.89c0 1.85-1.505 3.037-3.605 3.037-1.26 0-2.345-.593-2.345-2.06 0-1.361 1.12-2.27 2.835-2.27 1.54 0 2.556.28 3.115.699v.594zm-3.255-7.858c-1.365 0-2.66.209-3.64.593l.385 1.887c1.12-.35 2.03-.49 2.94-.49 1.96 0 3.57.909 3.57 2.934v.349c-.63-.244-1.61-.559-3.045-.559-3.15 0-5.215 1.607-5.215 4.226 0 2.724 2.03 3.946 4.305 3.946 1.89 0 3.185-.767 3.851-1.676h.104v1.433h2.241V17.92c0-3.386-2.17-4.89-5.496-4.89zm14.211 0c-1.54 0-2.94.594-3.64 1.816h-.104v-1.571h-2.24v12.396h2.31V18.97c0-2.445 1.225-3.913 3.15-3.913 1.82 0 2.905.978 2.905 3.247v7.37h2.31v-7.788c0-3.143-1.82-4.854-4.69-4.854zm20.828 0c0-1.537.735-2.41 2.136-2.41.525 0 1.365.14 2.03.385l.735-1.712c-.91-.454-1.995-.628-2.835-.628-2.346 0-4.376 1.187-4.376 4.365v.384h-1.54v1.956h1.54v10.301h2.31V15.372h2.345l.806-1.956h-3.15v-.384zm9.136 10.826c-2.24 0-3.78-1.782-3.78-4.366 0-2.409 1.33-4.47 3.5-4.47 2.486 0 3.151 2.096 3.221 3.388h-4.296l-.805 1.886h7.446c.034-.49.034-.628.034-.873 0-3.562-1.784-6.39-5.635-6.39-3.325 0-5.88 2.722-5.88 6.46 0 3.841 2.45 6.39 5.95 6.39 2.101 0 3.956-.768 5.076-2.13l-1.4-1.362a4.687 4.687 0 01-3.43 1.467zm32.134-14.772l-2.87 12.885h-.105l-2.975-8.694h-2.066l-3.395 8.694h-.105l-2.275-12.885h-2.486l3.115 16.587h2.31l3.676-9.184h.105l3.186 9.184h2.31l3.955-16.587h-2.38zm3.851-.001h2.52V11.6h-2.52V9.085zm.105 4.19h2.31v12.398h-2.31V13.276z"/>
  </g>
</svg>
