<?xml version="1.0" encoding="utf-8"?>
<svg role="img" aria-labelledby="thetitle thedescription" width="14px" height="12px" viewBox="0 0 14 12" version="1.1" 
  xmlns:xlink="http://www.w3.org/1999/xlink" 
  xmlns="http://www.w3.org/2000/svg">
  <title id="thetitle">Twitter</title>
  <desc id="thedescription">Created by Lunacy</desc>
  <path d="M12.5672 2.98871C12.5723 3.11879 12.5752 3.24963 12.5752 3.38124C12.5752 7.38456 9.68639 12 4.40356 12C2.78143 12 1.27174 11.4988 0 10.6395C0.224894 10.6671 0.453415 10.6816 0.685563 10.6816C2.0313 10.6816 3.26967 10.1973 4.25267 9.38468C2.99544 9.3602 1.93481 8.48409 1.5699 7.28049C1.74474 7.31646 1.92466 7.33559 2.10965 7.33559C2.37154 7.33559 2.62545 7.29809 2.86631 7.22923C1.55249 6.95071 0.56296 5.72646 0.56296 4.25888C0.56296 4.24587 0.56296 4.23286 0.56296 4.22062C0.950357 4.44711 1.39289 4.58331 1.86372 4.59938C1.09327 4.05611 0.586175 3.12874 0.586175 2.07817C0.586175 1.52267 0.72764 1.00236 0.975023 0.554741C2.39185 2.3873 4.50803 3.59396 6.89481 3.72021C6.8462 3.49831 6.82081 3.26723 6.82081 3.02927C6.82081 1.35663 8.10633 0 9.69292 0C10.5192 0 11.2657 0.368042 11.7895 0.957215C12.4439 0.821016 13.0583 0.569279 13.6133 0.221896C13.3993 0.928904 12.9437 1.52267 12.3503 1.8976C12.9314 1.82491 13.4849 1.66193 14 1.4209C13.6148 2.02844 13.128 2.56175 12.5672 2.98871" id="Twitter" fill="#291C45" stroke="none" />
</svg>