<svg width="99" height="35" xmlns="http://www.w3.org/2000/svg">
  <g fill="#291C45" fill-rule="nonzero">
    <path d="M5.695 24.98c.419 1.13.998 2.095 1.738 2.898a7.474 7.474 0 002.63 1.842c1.014.425 2.116.638 3.306.638a8.058 8.058 0 003.258-.663 8.013 8.013 0 002.655-1.867c.756-.802 1.343-1.76 1.762-2.873.418-1.114.627-2.358.627-3.734V0h5.068v34.386h-5.02v-3.193a11.633 11.633 0 01-3.982 2.8c-1.528.655-3.177.983-4.947.983-1.802 0-3.483-.32-5.044-.958a11.795 11.795 0 01-4.054-2.726C2.55 30.112 1.65 28.696.99 27.042.33 25.39 0 23.547 0 21.516V0h5.068v21.221c0 1.376.209 2.628.627 3.758zM35.474 0v12.526a12.904 12.904 0 013.91-2.726c1.48-.671 3.089-1.007 4.826-1.007 1.802 0 3.491.344 5.068 1.032a12.937 12.937 0 014.102 2.8c1.159 1.179 2.076 2.57 2.752 4.175a13.03 13.03 0 011.013 5.109c0 1.801-.338 3.496-1.013 5.084a13.266 13.266 0 01-2.752 4.151 12.937 12.937 0 01-4.102 2.8c-1.577.688-3.266 1.032-5.068 1.032-1.737 0-3.354-.336-4.85-1.007a12.815 12.815 0 01-3.934-2.727v3.144H30.6V0h4.874zm.555 25.298a8.558 8.558 0 001.81 2.751 8.729 8.729 0 002.703 1.867c1.03.459 2.14.688 3.33.688 1.159 0 2.253-.23 3.282-.688a8.44 8.44 0 002.68-1.867 9.123 9.123 0 001.809-2.75 8.49 8.49 0 00.676-3.39c0-1.212-.226-2.35-.676-3.414a9.042 9.042 0 00-1.81-2.776 8.12 8.12 0 00-2.679-1.842 8.231 8.231 0 00-3.282-.663 8.229 8.229 0 00-3.282.663 8.395 8.395 0 00-2.702 1.842 8.823 8.823 0 00-1.834 2.776 8.668 8.668 0 00-.676 3.414c0 1.212.217 2.342.651 3.39zM59.896 16.85a13.39 13.39 0 012.654-4.152 12.331 12.331 0 014.006-2.824c1.545-.688 3.218-1.032 5.02-1.032 1.77 0 3.41.328 4.923.983a11.672 11.672 0 013.91 2.726c1.093 1.163 1.946 2.538 2.557 4.126.612 1.589.917 3.316.917 5.183v1.621h-20.03a8.5 8.5 0 00.966 2.825 8.487 8.487 0 001.81 2.26 8.244 8.244 0 002.461 1.498c.917.36 1.89.54 2.92.54 2.928 0 5.293-1.228 7.095-3.684l3.524 2.652a13.172 13.172 0 01-4.537 3.93c-1.802.95-3.83 1.425-6.082 1.425-1.834 0-3.547-.328-5.14-.983a12.498 12.498 0 01-4.15-2.75 13.063 13.063 0 01-2.776-4.152c-.675-1.588-1.013-3.315-1.013-5.182 0-1.768.321-3.439.965-5.01zm6.781-1.941c-1.368 1.163-2.276 2.71-2.727 4.642h15.01c-.418-1.932-1.31-3.48-2.678-4.642-1.368-1.163-2.969-1.744-4.803-1.744s-3.434.581-4.802 1.744zM93.005 15.474c-1.03 1.146-1.544 2.702-1.544 4.667v14.245h-4.875V9.333h4.826v3.095a6.92 6.92 0 012.39-2.407c.98-.59 2.147-.884 3.499-.884h1.689v4.617h-2.027c-1.609 0-2.928.574-3.958 1.72z"/>
  </g>
</svg>
