<?xml version="1.0" encoding="UTF-8"?>
<svg width="73px" height="27px" viewBox="0 0 73 27" version="1.1" xmlns="http://www.w3.org/2000/svg" xmlns:xlink="http://www.w3.org/1999/xlink">
    <!-- Generator: Sketch 55.2 (78181) - https://sketchapp.com -->
    <title>Full_Color_Zappos_Logo_01</title>
    <desc>Created with Sketch.</desc>
    <defs>
        <polygon id="path-1" points="0 0.0455244868 72.9039601 0.0455244868 72.9039601 25.9906587 0 25.9906587"></polygon>
    </defs>
    <g id="Page-1" stroke="none" stroke-width="1" fill="none" fill-rule="evenodd">
        <g id="07.-Customers" transform="translate(-225.000000, -1230.000000)">
            <g id="Full_Color_Zappos_Logo_01" transform="translate(225.000000, 1230.000000)">
                <g id="Group-5">
                    <mask id="mask-2" fill="white">
                        <use xlink:href="#path-1"></use>
                    </mask>
                    <g id="Clip-2"></g>
                    <path d="M48.7638437,21.7858204 C48.5717302,22.0557844 48.4763769,22.4091976 48.4763769,22.865988 C48.4763769,23.8611497 48.840439,24.3591976 49.5516809,24.3591976 C49.8780707,24.3591976 50.1472484,24.2147186 50.3388929,23.9663952 C50.5303812,23.7171377 50.6263597,23.3420838 50.6263597,22.865988 C50.6263597,21.8888862 50.261985,21.4129461 49.5516809,21.4129461 C49.2252912,21.4129461 48.9556445,21.5373413 48.7638437,21.7858204 Z M46.7862784,21.0181198 L46.3443704,21.7858204 C46.0941071,21.5373413 45.7681863,21.433497 45.3448801,21.433497 C44.9409572,21.433497 44.6331692,21.5577365 44.4046338,21.8277006 C44.1740664,22.0976647 44.0576103,22.4501437 44.0576103,22.9268623 C44.0576103,23.8611497 44.4995182,24.3397365 45.4024047,24.3397365 C45.8061713,24.3397365 46.1521006,24.1937006 46.4398801,23.9458443 L46.8239507,24.7742635 C46.5164754,24.9614012 46.2477666,25.0871976 46.0189186,25.1278323 C45.8061713,25.1897964 45.5171413,25.2095689 45.2093533,25.2095689 C44.5185889,25.2095689 43.9627259,25.0040599 43.5597409,24.6097006 C43.1555054,24.1937006 42.9638608,23.6332216 42.9638608,22.9268623 C42.9638608,22.222994 43.1753576,21.6424311 43.6152334,21.2250299 C44.0576103,20.7895689 44.672561,20.5826587 45.4219443,20.5826587 C45.9602998,20.5826587 46.4018951,20.7279162 46.7862784,21.0181198 Z M51.1453319,21.2047904 C51.5289336,21.5795329 51.7222976,22.1591617 51.7222976,22.865988 C51.7222976,23.5910299 51.5289336,24.1516647 51.1262612,24.5667305 C50.7423469,25.0040599 50.2221242,25.2095689 49.5516809,25.2095689 C48.8599786,25.2095689 48.3214668,25.0040599 47.9570921,24.5667305 C47.5727088,24.1516647 47.3809079,23.5723473 47.3809079,22.865988 C47.3809079,22.1808024 47.5727088,21.6424311 47.9756938,21.2250299 C48.3789914,20.7895689 48.8979636,20.5826587 49.5516809,20.5826587 C50.2424454,20.5826587 50.7609486,20.7895689 51.1453319,21.2047904 Z M56.542955,20.7072096 C56.7732099,20.6232934 57.0039336,20.5826587 57.2527901,20.5826587 C57.7536296,20.5826587 58.1370749,20.7279162 58.4253233,20.9975689 C58.6934069,21.2891737 58.847848,21.6617365 58.847848,22.1591617 L58.847848,25.1278323 L57.790833,25.1278323 L57.790833,22.3044192 C57.790833,21.7247904 57.5229058,21.433497 56.9839251,21.433497 C56.8307345,21.433497 56.6775439,21.4750659 56.5234154,21.5795329 C56.3888266,21.6617365 56.2931606,21.7658922 56.2156274,21.8888862 L56.2156274,25.1278323 L55.178621,25.1278323 L55.178621,22.1591617 C55.178621,21.9310778 55.1020257,21.7448743 54.968531,21.6209461 C54.8340985,21.4953054 54.6401092,21.433497 54.3921906,21.433497 C54.2566638,21.433497 54.1037859,21.4750659 53.9488758,21.5795329 C53.7974047,21.681509 53.6809486,21.7858204 53.6043533,21.8888862 L53.6043533,25.1278323 L52.5671906,25.1278323 L52.5671906,20.6662635 L53.2789015,20.6662635 L53.5079058,21.0598443 C53.7974047,20.7279162 54.1605289,20.5826587 54.6401092,20.5826587 C55.2352077,20.5826587 55.6780535,20.7498683 55.9867794,21.0598443 C56.1196488,20.9139641 56.2931606,20.7895689 56.542955,20.7072096 Z M38.9107195,23.4266228 C38.9107195,22.7205749 39.4290664,22.1591617 40.0624625,22.1591617 C40.6783512,22.1591617 41.1973233,22.7205749 41.1973233,23.4266228 C41.1973233,24.1104072 40.6783512,24.6705749 40.0624625,24.6705749 C39.4290664,24.6705749 38.9107195,24.1104072 38.9107195,23.4266228 Z M37.5662377,20.8098084 L37.5662377,25.0242994 C37.5662377,25.5640719 37.9895439,26 38.4877259,26 L60.250167,26 C60.748818,26 61.1716552,25.5640719 61.1716552,25.0242994 L61.1716552,20.8098084 C61.1716552,20.2725269 60.748818,19.8138683 60.250167,19.8138683 L38.4877259,19.8138683 C37.9895439,19.8138683 37.5662377,20.2725269 37.5662377,20.8098084 L37.5662377,20.8098084 Z" id="Fill-1" fill="#1D6BA7" mask="url(#mask-2)"></path>
                    <path d="M70.5475439,15.2693174 C70.4298373,15.630982 70.3125996,15.9940479 70.172227,16.3479281 C70.1575332,16.3860719 70.0130964,16.7693772 69.9908994,16.7661286 C69.9796445,16.762994 69.9671392,16.7601916 69.9557281,16.7575449 C69.7701799,16.7176886 69.5832248,16.6784551 69.397833,16.6393772 C68.6564218,16.4829102 67.9159486,16.3237964 67.1743812,16.1676407 C66.5181627,16.0281437 65.8616317,15.8888024 65.2054133,15.7500838 C65.1880621,15.3935569 65.1880621,15.0381198 65.1738373,14.6817485 C65.1572677,14.3191497 65.2083833,13.9591976 65.2046317,13.5975329 C66.3654411,13.860491 67.5257816,14.1248503 68.6867473,14.3873413 C69.3506253,14.538515 70.0155974,14.6903114 70.6794754,14.8400838 C70.6336745,14.9817605 70.5895931,15.1254611 70.5475439,15.2693174 Z M65.4680257,10.9217126 C65.6282505,10.1490299 65.750803,9.37105389 65.9363512,8.60413174 C66.0290471,8.21911377 66.1450343,7.84328144 66.2675867,7.46807186 C66.2947859,7.38104192 66.563182,6.51541317 66.5908501,6.52145324 C67.1298308,6.64261078 67.6669358,6.76451497 68.2062291,6.88486228 C68.8737024,7.03494611 69.543364,7.18534132 70.2116188,7.33573653 L65.4067495,11.3813054 C65.4266017,11.2273293 65.4473919,11.073976 65.4680257,10.9217126 Z M67.4726338,4.50391617 C67.8326317,3.88863473 68.1885653,3.28176048 68.705349,2.78293413 C69.105364,2.39791617 69.7251606,1.99047904 70.2566381,2.38281437 C70.7119893,2.71832335 70.9613148,3.33640719 71.1374839,3.84986826 C71.3735225,4.53147305 71.508424,5.2794012 71.5734518,5.99541317 C70.1267388,5.65056287 68.6733041,5.33373653 67.2233084,5.00476647 C67.306469,4.83755689 67.3907238,4.67065868 67.4726338,4.50391617 Z M66.6918308,12.1913533 L71.6725567,7.72635928 C71.6803726,8.63635928 71.6525482,9.54776048 71.5500043,10.4513772 C71.4469914,11.3618443 71.283015,12.2684192 71.0949657,13.1642515 C69.8810086,12.8956886 68.6676767,12.6283713 67.4543448,12.3593413 C67.2003298,12.3042275 66.9455332,12.2478683 66.6918308,12.1913533 Z M70.2899336,0.093257485 C69.1910257,-0.139497006 68.2556253,0.511904192 67.6020642,1.33176048 C66.8484604,2.27554491 66.3488715,3.42577246 65.9429165,4.55124551 C65.4040921,6.04461078 65.0243983,7.60087425 64.7302099,9.15931737 C64.4271113,10.7613533 64.2396874,12.3856527 64.1860707,14.0157126 C64.1591842,14.8196886 64.1604347,15.6283353 64.2063919,16.4316886 C64.2298394,16.8296287 64.2675118,17.226012 64.3245675,17.620994 C64.3519229,17.8093772 64.3842805,17.9972934 64.4228908,18.1841198 C64.4405546,18.2776886 64.4604069,18.3706347 64.4830728,18.4629581 C64.503394,18.483976 64.5907752,18.4553293 64.6132848,18.4494132 C65.3126467,18.3008862 66.0701585,18.2663234 66.7843704,18.3152096 C67.5514176,18.3664311 68.26094,18.5991856 68.927788,18.9789102 C69.0887944,19.0702994 69.2468308,19.1677605 69.4001777,19.2714491 C69.4794304,19.3259401 69.5572762,19.3816766 69.6334026,19.4386587 C69.7039015,19.4889461 69.759394,19.5580719 69.8364582,19.5965269 C70.038576,19.2768982 70.2181842,18.9474611 70.3816916,18.6072814 C70.7105824,17.9272335 70.9735075,17.2174491 71.2131413,16.5019042 C71.7222655,14.9943713 72.1105567,13.4500958 72.3828608,11.8826228 C72.660636,10.2893054 72.8389936,8.67528144 72.8896403,7.05938922 C72.9341906,5.68683832 72.8879208,4.28221557 72.561531,2.94329341 C72.2679679,1.72892216 71.6383233,0.379568862 70.2899336,0.093257485 L70.2899336,0.093257485 Z" id="Fill-3" fill="#1D6BA7" mask="url(#mask-2)"></path>
                    <path d="M11.3511092,18.4559521 L1.53675161,18.4559521 C1.11391435,18.4559521 0.748601713,18.3120958 0.441751606,18.0214251 C0.153190578,17.7301317 0,17.3978922 0,17.0248623 C0,16.6077725 0.173199143,16.0694012 0.537730193,15.3853054 L7.56745824,1.91512575 L3.87994218,1.91512575 C2.93875803,1.91512575 2.285197,2.08108982 1.94020557,2.39324551 C1.5939636,2.704 1.40247537,3.32644311 1.38293576,4.30167665 L0.211653105,4.30167665 L0.211653105,0.0893652695 L9.00807495,0.0893652695 C10.3334861,0.0893652695 11.0054925,0.629137725 11.0054925,1.68704192 C11.0054925,1.99826347 10.9102955,2.37160479 10.6978608,2.76611976 L3.43803426,16.6507425 L11.3511092,16.6507425 L11.3511092,18.4559521" id="Fill-4" fill="#000105" mask="url(#mask-2)"></path>
                </g>
                <path d="M17.7862077,15.3645988 L17.7862077,12.8323234 C15.7683126,12.9556287 14.7503769,13.704024 14.7503769,15.1151856 C14.7503769,16.2350539 15.1347602,16.8156168 15.9039957,16.8156168 C16.7290364,16.8156168 17.3436745,16.3194371 17.7862077,15.3645988 Z M20.608666,16.9622754 L19.2641842,16.9622754 C18.6889379,16.9622754 18.208576,17.105976 17.8427944,17.4187545 C17.1132634,17.9798563 16.748576,18.2913892 16.7098094,18.3120958 C16.2486745,18.6021437 15.7114133,18.7472455 15.1156895,18.7472455 C14.1557473,18.7472455 13.3489957,18.4354012 12.6962163,17.8128024 C12.0426552,17.190982 11.7162655,16.4438323 11.7162655,15.5705749 C11.7162655,13.018994 13.7518244,11.6282275 17.7862077,11.4213174 L17.7862077,10.2586347 C17.7862077,9.13907784 17.7082056,8.32949701 17.516561,7.82942515 C17.3436745,7.33137725 17.0179101,7.08352096 16.5755332,7.08352096 C16.1339379,7.08352096 15.8259936,7.29136527 15.6924989,7.74753293 C15.6732719,7.76823952 15.5962077,8.24542515 15.4617752,9.13907784 C15.3267173,10.0297725 14.7891435,10.5082036 13.8096617,10.5082036 L12.254152,8.90928144 C12.2922934,7.93498204 12.6962163,7.14641916 13.463576,6.56414371 C14.2521949,5.96271856 15.2888887,5.67267066 16.5947602,5.67267066 C18.0549165,5.67267066 19.091454,6.04554491 19.7057794,6.75205988 C20.3015032,7.47756886 20.608666,8.70112575 20.608666,10.4043593 L20.608666,16.9622754 L20.608666,16.9622754 Z" id="Fill-6" fill="#000105"></path>
                <path d="M25.007424,13.1857365 C25.007424,15.7164551 25.69897,16.9622754 27.0628351,16.9622754 C28.387621,16.9622754 29.041182,15.3645988 29.041182,12.1877725 C29.041182,9.13907784 28.4076296,7.60180838 27.1195782,7.60180838 C26.2557709,7.60180838 25.5453105,8.45326946 25.007424,10.1750299 L25.007424,13.1857365 Z M22.2413961,7.97561677 C22.3376874,7.97561677 22.4721199,7.97561677 22.6070214,7.97561677 C22.7792827,7.9971018 22.8948009,7.9971018 22.9527944,7.9971018 C23.7396938,7.9971018 24.258666,7.89279042 24.5478522,7.68494611 C25.0269636,7.24870659 25.5260835,6.81371257 26.0445867,6.35723353 C26.6013876,5.92083832 27.2355653,5.7131497 27.9458694,5.7131497 C29.2332955,5.7131497 30.2512313,6.27440719 30.9996767,7.43537725 C31.7482784,8.59805988 32.1335996,10.196515 32.1335996,12.2511377 C32.1335996,14.3692814 31.7299893,16.0083713 30.942152,17.1710539 C30.1546274,18.3120958 29.041182,18.8921916 27.6199486,18.8921916 C26.543863,18.8921916 25.6792741,18.4559521 25.007424,17.6062036 L25.007424,22.5449581 C25.007424,22.9808862 24.8733041,23.3349222 24.6233533,23.6255928 C24.3549572,23.9161078 24.0284111,24.0601198 23.6444968,24.0601198 C23.2404176,24.0601198 22.9135589,23.9161078 22.6450064,23.6053533 C22.3762976,23.3142156 22.2413961,22.9606467 22.2413961,22.5449581 L22.2413961,7.97561677 L22.2413961,7.97561677 Z" id="Fill-7" fill="#000105"></path>
                <path d="M36.0516831,13.1857365 C36.0516831,15.7164551 36.7244711,16.9622754 38.1058437,16.9622754 C39.4314111,16.9622754 40.0845032,15.3645988 40.0845032,12.1877725 C40.0845032,9.13907784 39.4314111,7.60180838 38.1449229,7.60180838 C37.2814283,7.60180838 36.5897259,8.45326946 36.0516831,10.1750299 L36.0516831,13.1857365 Z M33.2858116,7.97561677 C33.3821028,7.97561677 33.4968394,7.97561677 33.6501863,7.97561677 C33.8043148,7.9971018 33.919364,7.9971018 33.9965846,7.9971018 C34.7836403,7.9971018 35.3022998,7.89279042 35.5907045,7.68494611 C36.0699722,7.24870659 36.5706552,6.81371257 37.0689936,6.35723353 C37.645803,5.92083832 38.2799807,5.7131497 38.9885653,5.7131497 C40.2577024,5.7131497 41.2761071,6.27440719 42.0254904,7.43537725 C42.7742484,8.59805988 43.1386231,10.196515 43.1386231,12.2511377 C43.1386231,14.3692814 42.7542398,16.0083713 41.9670278,17.1710539 C41.1604325,18.3120958 40.0845032,18.8921916 38.664364,18.8921916 C37.5874968,18.8921916 36.7244711,18.4559521 36.0516831,17.6062036 L36.0516831,22.5449581 C36.0516831,22.9808862 35.9175632,23.3349222 35.6479165,23.6255928 C35.3982784,23.9161078 35.0718887,24.0601198 34.6695289,24.0601198 C34.284364,24.0601198 33.9579743,23.9161078 33.6891092,23.6053533 C33.4204004,23.3142156 33.2858116,22.9606467 33.2858116,22.5449581 L33.2858116,7.97561677 L33.2858116,7.97561677 Z" id="Fill-8" fill="#000105"></path>
                <path d="M50.7450043,13.3725629 C50.7450043,11.4407784 50.6870107,10.1533892 50.5910321,9.57407186 C50.3415503,7.93498204 49.7264433,7.10422754 48.7860407,7.10422754 C48.0552591,7.10422754 47.5370685,7.51898204 47.2299058,8.36950898 C46.9225867,9.20026347 46.7684582,10.5082036 46.7684582,12.3132575 C46.7684582,14.0554132 46.9225867,15.3021677 47.1920771,16.0694012 C47.4986146,16.9004671 48.0158672,17.3156886 48.7665011,17.3156886 C50.0719036,17.3156886 50.7450043,16.0083713 50.7450043,13.3725629 Z M53.5116574,12.3132575 C53.5116574,16.5892455 51.9162869,18.7472455 48.7665011,18.7472455 C45.5971756,18.7472455 44.0030557,16.5892455 44.0030557,12.3132575 C44.0030557,7.89279042 45.5971756,5.67267066 48.7665011,5.67267066 C50.2252505,5.67267066 51.3787131,6.2537006 52.2431456,7.43537725 C53.0866317,8.59805988 53.5116574,10.2379281 53.5116574,12.3132575 L53.5116574,12.3132575 Z" id="Fill-9" fill="#000105"></path>
                <g id="Group-13" transform="translate(54.241970, 5.604790)">
                    <path d="M5.97193148,3.30449102 C5.97193148,2.20517365 5.37589507,1.6654012 4.18460385,1.6654012 C3.16713704,1.6654012 2.66879872,2.08015569 2.66879872,2.95185629 C2.66879872,3.49209581 3.20605996,4.09305389 4.28073876,4.79956886 C4.81925054,5.13149701 5.45342827,5.56695808 6.18311563,6.06438323 C7.16259743,6.99991617 7.6621863,8.12118563 7.6621863,9.38615569 C7.6621863,10.4853174 7.29640471,11.3982754 6.56702998,12.0847066 C5.83734261,12.7688024 4.89615846,13.0999521 3.72503212,13.0999521 C2.68693148,13.0999521 1.84250749,12.914994 1.19066595,12.5192335 C0.536792291,12.1253413 0.189925054,11.6277605 0.189925054,11.0677485 C0.189925054,10.7146467 0.439719486,10.5479042 0.939308351,10.5479042 C1.07420985,10.5479042 1.20801713,10.5479042 1.30415203,10.5684551 C2.07198073,11.1308024 2.78369165,11.4200719 3.43584582,11.4200719 C4.53131478,11.4200719 5.08811563,10.9844551 5.08811563,10.1116647 C5.08811563,9.63385629 4.87677516,9.22050299 4.45440685,8.82520958 C4.28073876,8.63900599 3.72503212,8.24449102 2.78369165,7.60087425 C1.84250749,6.95803593 1.17034475,6.37607186 0.785492505,5.85840719 C0.324201285,5.25558084 0.095509636,4.5485988 0.095509636,3.74041916 C0.095509636,2.57851497 0.458008565,1.68657485 1.20801713,1.04249102 C1.9377045,0.398874251 2.97533619,0.0678802395 4.33967024,0.0678802395 C4.95305782,0.0678802395 5.83734261,0.232443114 6.97048394,0.566550898 L6.97048394,3.30449102 L5.97193148,3.30449102" id="Fill-10" fill="#000105"></path>
                    <path d="M14.9954818,17.7553533 C14.7767944,19.3752934 13.317576,20.514 11.734242,20.3021078 C10.1526274,20.0906826 9.04856103,18.6058802 9.26802998,16.9901437 C9.48624839,15.3714491 10.9448415,14.2325868 12.5255182,14.4451018 C14.1085396,14.6574611 15.2130749,16.1388383 14.9954818,17.7553533" id="Fill-12" fill="#1D6BA7"></path>
                </g>
                <path d="M70.8839379,24.6811352 L70.9864818,24.6811352 C71.1051263,24.6811352 71.2025118,24.6118185 71.2025118,24.4443712 C71.2025118,24.295952 71.140454,24.1978214 71.0036767,24.1978214 C70.946152,24.1978214 70.9062912,24.2065199 70.8839379,24.2190241 L70.8839379,24.6811352 Z M70.8778415,25.5887757 L70.663531,25.5887757 L70.663531,23.969756 C70.7479422,23.9509997 70.8668994,23.9200111 71.0207152,23.9200111 C71.1959465,23.9200111 71.2751991,23.969756 71.3388201,24.048043 C71.394469,24.1192625 71.4340171,24.2356058 71.4340171,24.3943545 C71.4340171,24.5908876 71.349137,24.7205506 71.2409657,24.7795377 L71.2409657,24.7993813 C71.3322548,24.8507572 71.3772741,24.9763426 71.406818,25.1954376 C71.4340171,25.4422593 71.4582463,25.5292449 71.473409,25.5887757 L71.2473747,25.5887757 C71.2197066,25.5292449 71.2025118,25.3933299 71.1737495,25.1954376 C71.1570236,25.0266312 71.1002805,24.9483441 70.9813233,24.9483441 L70.8778415,24.9483441 L70.8778415,25.5887757 Z M71.0207152,23.4551817 C70.6172612,23.4551817 70.3052527,24.04016 70.3052527,24.751811 C70.3052527,25.471617 70.6172612,26.0427319 71.0315011,26.0427319 C71.4340171,26.0541488 71.7421178,25.471617 71.7421178,24.7594223 C71.7421178,24.04016 71.4340171,23.4551817 71.0258737,23.4551817 L71.0207152,23.4551817 Z M71.0315011,23.1292575 C71.5595396,23.1292575 71.9803448,23.8409085 71.9803448,24.751811 C71.9803448,25.6597234 71.5595396,26.3792575 71.0258737,26.3792575 C70.4917388,26.3792575 70.0657752,25.6597234 70.0657752,24.751811 C70.0657752,23.8409085 70.4917388,23.1292575 71.0258737,23.1292575 L71.0315011,23.1292575 L71.0315011,23.1292575 Z" id="Fill-14" fill="#000105"></path>
            </g>
        </g>
    </g>
</svg>