<?xml version="1.0" encoding="UTF-8"?>
<svg width="126px" height="100px" viewBox="0 0 126 100" version="1.1" xmlns="http://www.w3.org/2000/svg" xmlns:xlink="http://www.w3.org/1999/xlink">
    <!-- Generator: Sketch 55.2 (78181) - https://sketchapp.com -->
    <title>zendesk-logo</title>
    <desc>Created with Sketch.</desc>
    <g id="integrations-table" stroke="none" stroke-width="1" fill="none" fill-rule="evenodd">
        <g id="Artboard" transform="translate(-1041.000000, -184.000000)" fill="#03363D" fill-rule="nonzero">
            <g id="zendesk-logo" transform="translate(1041.000000, 184.000000)">
                <path d="M60.3026515,15.6093425 L60.3026515,59.1073769 L27.8720229,59.1073769 L60.3026515,15.6093425 Z M60.3026515,0 C60.3026515,9.94904386 53.042808,18.0143375 44.0873372,18.0143375 C35.1318664,18.0143375 27.8720229,9.94904386 27.8720229,0 L60.3026515,0 Z M65.6453096,59.111231 C65.6453096,49.1621874 72.9051533,41.0968941 81.8606239,41.0968941 C90.8160945,41.0968941 98.0759382,49.1621874 98.0759382,59.111231 L65.6453096,59.111231 L65.6453096,59.111231 Z M65.6453096,43.5018885 L65.6453096,0 L98.0828767,0 L65.6453096,43.4980344 L65.6453096,43.5018885 Z M83.7825931,96.3269868 C85.4503811,96.3684121 87.0652899,95.6757185 88.2752829,94.3999075 L90.5025469,97.0708394 C89.0315813,98.7512526 86.9916573,100 83.820755,100 C78.3844269,100 74.870068,95.991675 74.870068,90.572728 C74.8255491,88.0633151 75.7008486,85.6415346 77.2951025,83.8631371 C78.8893564,82.0847395 81.0656803,81.1024202 83.324651,81.1416018 C88.7228173,81.1416018 91.7827033,85.7049256 91.5121011,92.0334541 L78.7521683,92.0334541 C79.2031719,94.6619903 80.868416,96.3385493 83.7721854,96.3385493 L83.7825931,96.3269868 Z M87.6577549,89.0156479 C87.310829,86.5605488 85.9925108,84.7529484 83.3558743,84.7529484 C80.9031086,84.7529484 79.1927641,86.2946119 78.7521683,89.0156479 L87.6612242,89.0156479 L87.6577549,89.0156479 Z M0,96.1227164 L9.8180016,85.0381562 L0.23244032,85.0381562 L0.23244032,81.5617051 L14.373138,81.5617051 L14.373138,85.107531 L4.55513643,96.1882371 L14.5119084,96.1882371 L14.5119084,99.6685424 L0,99.6685424 L0,96.1227164 L0,96.1227164 Z M25.5337427,96.3231327 C27.2015307,96.3645579 28.8164394,95.6718644 30.0264324,94.3960533 L32.2536964,97.0669853 C30.7827308,98.7473984 28.7428068,99.9961458 25.5719045,99.9961458 C20.1355764,99.9961458 16.6212175,95.9878209 16.6212175,90.5688738 C16.5766987,88.0594609 17.4519981,85.6376805 19.046252,83.8592829 C20.6405059,82.0808853 22.8168298,81.098566 25.0758005,81.1377476 C30.4739668,81.1377476 33.5338528,85.7010715 33.2632506,92.0295999 L20.5102563,92.0295999 C20.9612599,94.6581361 22.626504,96.3346951 25.5302734,96.3346951 L25.5337427,96.3231327 Z M29.4158429,89.0117937 C29.0689171,86.5566947 27.7505989,84.7490943 25.1139624,84.7490943 C22.6611966,84.7490943 20.9508522,86.2907577 20.5102563,89.0117937 L29.4193122,89.0117937 L29.4158429,89.0117937 Z M54.4742972,90.5650197 C54.4742972,84.7837817 58.3702745,81.1454559 62.6617473,81.1454559 C64.7461701,81.1146378 66.7361935,82.10929 68.0980754,83.8626378 L68.0980754,73.17891 L71.5673339,73.17891 L71.5673339,99.6184383 L68.0980754,99.6184383 L68.0980754,97.1247977 C66.7613548,98.9514616 64.7494991,100.003756 62.630524,99.9848409 C58.4674138,99.9848409 54.4777665,96.3231327 54.4777665,90.5688738 L54.4742972,90.5650197 Z M68.2923539,90.5303322 C68.2161913,87.3754261 65.8654243,84.8782845 63.0250247,84.9350235 C60.184625,84.9917625 57.9161846,87.581176 57.9421634,90.7370846 C57.9681422,93.8929932 60.2788307,96.4358841 63.1196894,96.4349035 C66.1032517,96.4349035 68.2888846,93.7909504 68.2888846,90.5303322 L68.2923539,90.5303322 Z M93.7809962,95.771988 L96.9241444,93.9605334 C97.7710182,95.6377703 99.3845826,96.6557437 101.115009,96.6044862 C103.078609,96.6044862 104.098571,95.4867802 104.098571,94.2149079 C104.098571,92.7657442 102.200887,92.4419949 100.136678,91.9679334 C97.361271,91.3127264 94.4713786,90.2990827 94.4713786,86.5721113 C94.4713786,83.7084714 96.9241444,81.0606645 100.785429,81.099206 C103.827969,81.099206 106.093395,82.4404532 107.37702,84.6064904 L104.462843,86.3794034 C103.644351,85.0325997 102.257503,84.2513114 100.795837,84.3135743 C98.9293758,84.3135743 97.978799,85.3272181 97.978799,86.4873198 C97.978799,87.7900254 99.4844572,88.1523163 101.843553,88.7342943 C104.528759,89.3895013 107.56783,90.3646034 107.56783,94.1301164 C107.56783,96.6276112 105.604229,99.9961458 100.955423,99.9614584 C97.5555494,99.9614584 95.1617611,98.4390658 93.7844654,95.7604255 L93.7809962,95.771988 Z M116.993805,91.5709551 L114.242683,94.9048023 L114.242683,99.6068758 L110.773424,99.6068758 L110.773424,73.1673476 L114.242683,73.1673476 L114.242683,90.4840823 L121.607919,81.5038927 L125.833476,81.5038927 L119.45004,89.2507516 L126,99.61073 L122.072799,99.61073 L116.997274,91.5709551 L116.993805,91.5709551 Z M43.990198,81.1416018 C39.8617803,81.1416018 36.4098681,84.1093039 36.4098681,89.042627 L36.4098681,99.6222925 L39.9485118,99.6222925 L39.9485118,89.5321051 C39.9485118,86.564403 41.4853933,84.7837817 44.111622,84.7837817 C46.7378507,84.7837817 48.0422919,86.5566947 48.0422919,89.5321051 L48.0422919,99.6222925 L51.56012,99.6222925 L51.56012,89.042627 C51.56012,84.1170123 48.0908615,81.1416018 43.9797902,81.1416018 L43.990198,81.1416018 Z" id="Shape"></path>
            </g>
        </g>
    </g>
</svg>