<?xml version="1.0" encoding="UTF-8"?>
<svg width="60px" height="60px" viewBox="0 0 60 60" version="1.1" xmlns="http://www.w3.org/2000/svg" xmlns:xlink="http://www.w3.org/1999/xlink">
    <!-- Generator: Sketch 55.2 (78181) - https://sketchapp.com -->
    <title>app-store-1 (1)</title>
    <desc>Created with Sketch.</desc>
    <defs>
        <linearGradient x1="50%" y1="100%" x2="50%" y2="0%" id="linearGradient-1">
            <stop stop-color="#1D76F2" offset="0%"></stop>
            <stop stop-color="#1AC2FB" offset="100%"></stop>
        </linearGradient>
    </defs>
    <g id="Page-1" stroke="none" stroke-width="1" fill="none" fill-rule="evenodd">
        <g id="Artboard" transform="translate(-1549.000000, -736.000000)" fill-rule="nonzero">
            <g id="app-store-1-(1)" transform="translate(1549.000000, 736.000000)">
                <polygon id="Path" fill="url(#linearGradient-1)" points="0 0 60 0 60 60 0 60"></polygon>
                <path d="M19.5117187,43.6816406 L19.5172852,43.6833984 L17.4930469,47.1894727 C16.7541797,48.4692773 15.1175977,48.907793 13.837793,48.1688672 C12.5580469,47.4300586 12.1195312,45.7934766 12.8583984,44.5136719 L14.3496094,41.9308594 L14.4926953,41.6830078 C14.7482812,41.3155664 15.3789844,40.6816992 16.6405664,40.8008203 C16.6405664,40.8008203 19.6093359,41.1230273 19.8241406,42.6660352 C19.8241992,42.6660352 19.8534961,43.1738086 19.5117187,43.6816406 L19.5117187,43.6816406 Z M48.2225391,34.726582 L41.9101758,34.726582 C41.480332,34.6978125 41.2925391,34.5442969 41.2188867,34.4550586 L41.2141992,34.4469141 L34.4569922,22.7431641 L34.4482617,22.7490234 L34.0429687,22.1679492 C33.3788672,21.1523437 32.3242383,23.7499805 32.3242383,23.7499805 C31.0650586,26.6444531 32.5028906,29.9353711 33.0042773,30.93 L42.3895898,47.1858398 C43.1283984,48.4656445 44.7649805,48.9041602 46.0447852,48.1652344 C47.3245312,47.4264258 47.7630469,45.7898438 47.0241797,44.5100391 L44.6772656,40.4451563 C44.6318555,40.3467188 44.5526953,40.0792383 45.0339844,40.0781836 L48.2225391,40.0781836 C49.700332,40.0781836 50.8983398,38.8801758 50.8983398,37.4023828 C50.8983398,35.9245898 49.700332,34.726582 48.2225391,34.726582 Z M35.9619141,38.3642578 C35.9619141,38.3642578 36.2988281,40.0781836 34.9951172,40.0781836 L33.6914062,40.0781836 L33.6914062,40.0781836 L11.6600977,40.0781836 C10.1823047,40.0781836 8.98429687,38.8801758 8.98429687,37.4023828 C8.98429687,35.9245898 10.1823047,34.726582 11.6600977,34.726582 L17.6592773,34.726582 C18.627832,34.6704492 18.8574609,34.1113477 18.8574609,34.1113477 L18.8627344,34.114043 L26.6936719,20.5504102 L26.6913281,20.5499414 C26.8341211,20.2879102 26.7152344,20.0403516 26.6945508,20.0011523 L24.1083984,15.5218359 C23.3694727,14.2420313 23.8079883,12.6055078 25.087793,11.8666406 C26.3675977,11.1277148 28.0040625,11.5662305 28.7429883,12.8460352 L29.9424023,14.9235352 L31.139707,12.8497266 C31.8785742,11.5699219 33.5150977,11.1314063 34.7949023,11.870332 C36.074707,12.6092578 36.5132227,14.2457813 35.7742969,15.5255273 L24.8773242,34.3995703 C24.8296875,34.5144727 24.8150977,34.6948242 25.1695898,34.726582 L31.6831641,34.726582 L31.6845703,34.7900391 C31.6845703,34.7900391 35.4492187,34.8486328 35.9619141,38.3642578 Z" id="Shape" fill="#FFFFFF"></path>
            </g>
        </g>
    </g>
</svg>