<?xml version="1.0" encoding="UTF-8"?>
<svg width="118px" height="118px" viewBox="0 0 118 118" version="1.1" xmlns="http://www.w3.org/2000/svg" xmlns:xlink="http://www.w3.org/1999/xlink">
    <!-- Generator: Sketch 55.2 (78181) - https://sketchapp.com -->
    <title>delighted</title>
    <desc>Created with Sketch.</desc>
    <g id="integrations-table" stroke="none" stroke-width="1" fill="none" fill-rule="evenodd">
        <g id="Artboard" transform="translate(-1570.000000, -177.000000)" fill="#4C4C4B" fill-rule="nonzero">
            <g id="delighted" transform="translate(1570.000000, 177.000000)">
                <path d="M59,0 C26.4154063,0 0,26.4154063 0,59 C0,91.5845938 26.4154063,118 59,118 C91.5845938,118 118,91.5845938 118,59 C118,26.4154063 91.5845938,0 59,0 Z M37.9185625,87.2974141 C51.3442891,98.1792266 72.3616563,95.1361172 84.4677188,80.6474688 C72.7244141,79.0908828 58.8584922,75.4126016 47.6102344,71.0263203 C44.5685078,76.8982031 42.2338594,81.5670391 37.9185625,87.2974141 L37.9185625,87.2974141 Z M72.4413984,27.9673828 C65.0839141,29.8535391 55.4627656,46.2661406 49.803375,64.2348672 C63.5273281,70.4602891 74.2805391,73.0069687 89.1365547,74.7990937 C89.1365547,74.7990937 102.860969,44.0965078 72.4413984,27.9673828 Z M67.4890859,103.427 C51.4576797,106.50975 30.7025859,98.1211484 22.9915625,85.8118125 C22.9915625,85.8118125 34.0241016,73.5789922 37.0695156,66.4280078 C33.7857969,63.8804062 31.8106797,62.414625 29.7157188,60.5464453 C17.62625,49.7669609 17.8410469,34.9312266 30.1761953,24.3965 C43.9291875,12.6508906 64.863125,10.7513672 81.0148359,19.7843594 C97.3241875,28.9053906 106.627289,47.672 103.673141,65.4923047 C100.434133,85.0286797 85.7753984,99.9105078 67.4890859,103.427 L67.4890859,103.427 Z M61.8296953,25.6092266 C52.5846719,25.4755547 45.5968594,27.3308281 39.1027109,31.9213047 C28.4278594,39.4668516 28.946875,51.5046953 40.3841172,58.6865625 C45.8416172,46.1246328 50.2587813,34.6984531 61.8296953,25.6092266 L61.8296953,25.6092266 Z" id="Shape"></path>
            </g>
        </g>
    </g>
</svg>