<svg width="71" height="60" viewBox="0 0 71 74" xmlns="http://www.w3.org/2000/svg" xmlns:xlink="http://www.w3.org/1999/xlink"><defs><path id="a" d="M.005.069h70.95v13.96H.005z"/><path id="b" d="M.005.069h70.95v13.96H.005z"/><path id="d" d="M.005.069h70.95v13.96H.005z"/><path id="f" d="M.005.069h70.95v13.96H.005z"/><path id="h" d="M.005.069h70.95v13.96H.005z"/><path id="j" d="M.005.069h70.95v13.96H.005z"/></defs><g fill="none" fill-rule="evenodd"><path d="M43.274 36.502c-.462.904-1.658 1.02-2.831.368-.795-.445-.787-1.572-.697-2.263.046-.375.182-.728.386-1.027.28-.407.757-.943 1.302-.959.886-.03 1.65.43 2.082 1.25.431.82.22 1.726-.242 2.63zm-8.803-1.128c-.629.66-1.461.598-2.34.261-.877-.33-1.271-1.549-.938-3.014.25-1.089 1.416-1.25 1.998-1.265.22-.008.44.046.644.153.416.215 1.112.668 1.256 1.365.205.997.008 1.84-.62 2.5zM44.076.023l-2.24 24.37L38.013 3.85 26.016 6.764l3.822 20.543-17.296 4.195 3.058 16.41 30.406 7.377 6.956-17.829L56.27 1.495 44.076.023zM50.888 64.046c-1.082 0-1.99.499-2.566 1.42l-.257-1.205H45.59l.401 1.864v7.668h2.407V67.72c.326-.63.939-1.013 1.733-1.013.492 0 .939.13 1.355.422l1.143-2.607a3.293 3.293 0 00-1.74-.476" fill="#291C45" fill-rule="nonzero"/><g transform="translate(0 59.967)"><mask id="c" fill="#fff"><use xlink:href="#b"/></mask><path d="M56.361 11.464c-1.393 0-2.422-.943-2.422-2.4 0-1.48 1.03-2.4 2.422-2.4 1.408 0 2.422.92 2.422 2.4.008 1.465-1.007 2.4-2.422 2.4zm0-7.37c-2.733 0-4.761 2.018-4.761 4.97s2.028 4.97 4.753 4.97c2.733 0 4.754-2.01 4.754-4.97.015-2.952-2.014-4.97-4.746-4.97z" fill="#291C45" fill-rule="nonzero" mask="url(#c)"/></g><g transform="translate(0 59.967)"><mask id="e" fill="#fff"><use xlink:href="#d"/></mask><path d="M66.201 11.464c-1.393 0-2.422-.943-2.422-2.4 0-1.48 1.03-2.4 2.422-2.4 1.408 0 2.422.92 2.422 2.4 0 1.465-1.006 2.4-2.422 2.4zm0-7.37c-2.732 0-4.761 2.018-4.761 4.97s2.029 4.97 4.753 4.97c2.733 0 4.762-2.01 4.762-4.97.007-2.952-2.021-4.97-4.754-4.97z" fill="#291C45" fill-rule="nonzero" mask="url(#e)"/></g><g transform="translate(0 59.967)"><mask id="g" fill="#fff"><use xlink:href="#f"/></mask><path d="M4.754 11.464c-1.393 0-2.423-.943-2.423-2.4 0-1.48 1.03-2.4 2.423-2.4 1.407 0 2.422.92 2.422 2.4.007 1.465-1.007 2.4-2.422 2.4zM9.568.07H7.16v5.376c-.727-.852-1.719-1.35-2.892-1.35C1.862 4.095 0 6.104 0 9.064c0 2.952 1.862 4.97 4.27 4.97A3.732 3.732 0 007.22 12.63l.25 1.204h2.513l-.416-1.979V.07z" fill="#291C45" fill-rule="nonzero" mask="url(#g)"/></g><g transform="translate(0 59.967)"><mask id="i" fill="#fff"><use xlink:href="#h"/></mask><path fill="#291C45" fill-rule="nonzero" mask="url(#i)" d="M31.519 12.024l-1.847-7.722H27.09l2.513 9.532h3.867l2.513-9.532h-2.619l-1.846 7.722"/></g><g transform="translate(0 59.967)"><mask id="k" fill="#fff"><use xlink:href="#j"/></mask><path d="M38.21 8.198c.272-1.09 1.082-1.68 2.316-1.68 1.249 0 2.066.59 2.316 1.68H38.21zm2.316-4.103c-2.71 0-4.7 1.994-4.7 4.969 0 3.03 1.975 4.97 5.025 4.97 1.34 0 2.657-.369 3.762-1.09l-.923-2.109c-.87.46-1.824.737-2.8.737-1.265 0-2.15-.499-2.536-1.419h6.767c.075-.353.106-.698.106-1.127 0-2.953-2.006-4.931-4.701-4.931z" fill="#291C45" fill-rule="nonzero" mask="url(#k)"/></g><path d="M12.694 68.164c.272-1.089 1.082-1.679 2.316-1.679 1.249 0 2.059.59 2.316 1.68h-4.632zm2.361-4.125c-2.71 0-4.7 1.994-4.7 4.969 0 3.029 1.968 4.969 5.026 4.969 1.34 0 2.657-.368 3.762-1.089l-.924-2.109c-.87.46-1.824.736-2.8.736-1.264 0-2.15-.498-2.536-1.418h6.767c.076-.353.106-.698.106-1.127 0-2.953-2.006-4.931-4.7-4.931zM25.425 59.852c-.87 0-1.521.667-1.521 1.549 0 .882.65 1.549 1.521 1.549.848 0 1.499-.667 1.499-1.55 0-.881-.651-1.548-1.499-1.548M24.214 73.8h2.407V64.27h-2.407zM20.467 73.8h2.407V60.037h-2.407z" fill="#291C45" fill-rule="nonzero"/></g></svg>