<svg width="333" height="456" fill="none" xmlns="http://www.w3.org/2000/svg">
  <path d="M331.657 331.793H.811V.965h330.846v330.828z" fill="#332E5E"/>
  <path d="M85.43 173.614c0 15.623 4.168 17.361 21.969 18.027v5.713H36.643v-5.713c14.719-.666 18.894-2.404 18.894-18.027V71.664c0-15.623-4.175-17.38-18.454-18.027v-5.713h124.81l.888 32.948h-6.155c-5.271-16.696-10.992-21.965-40.218-21.965H93.762c-6.794 0-8.333 1.534-8.333 7.691v47.259H96.58c23.298 0 28.355-4.197 31.208-19.802h5.713v52.749h-5.713c-3.069-17.583-11.866-21.965-31.208-21.965H85.43v48.775zm217.804-125.69H172.256l-3.041 32.966h7.513c4.795-16.14 11.844-21.983 27.61-21.983H222.8v114.707c0 15.623-4.175 17.361-21.091 18.027v5.713h72.08v-5.713c-16.923-.666-21.096-2.404-21.096-18.027V58.907h18.452c15.774 0 22.831 5.842 27.618 21.983h7.505l-3.034-32.966z" fill="#fff"/>
  <path d="M12.716 387.294c0 3.994 1.076 4.437 5.626 4.622v1.424H.228v-1.424c3.763-.185 4.839-.628 4.839-4.622v-26.107c0-4.012-1.076-4.456-4.739-4.622v-1.461h31.98l.217 8.431h-1.573c-1.352-4.271-2.81-5.62-10.299-5.62h-5.8c-1.742 0-2.137.388-2.137 1.978v12.092h6.536c5.964 0 7.257-1.073 7.987-5.066h1.466v13.515H27.24c-.788-4.511-3.041-5.639-7.987-5.639h-6.536v12.499zm37.714 0c0 3.994 1.061 4.437 5.626 4.622v1.424H37.14v-1.424c4.572-.185 5.626-.628 5.626-4.622v-26.107c0-4.012-1.054-4.456-5.626-4.622v-1.461h18.916v1.461c-4.565.166-5.626.61-5.626 4.622v26.107zm45.082-25.034c0-3.717-1.018-5.233-5.186-5.695v-1.461h13.507v1.461c-4.16.462-5.172 1.978-5.172 5.695v32.023h-1.913l-26.11-30.175v22.114c0 3.716 1.005 5.232 5.172 5.694v1.424H62.296v-1.424c4.168-.462 5.18-1.978 5.18-5.694v-25.756c-1.293-2.274-2.818-3.346-5.18-3.901v-1.461h10.416l22.8 26.347V362.26zm20.425 17.379l5.741-15.142 5.691 15.142h-11.432zm27.409 13.701v-1.424c-2.868.056-3.596-1.183-5.061-4.788l-13.457-32.93h-1.849l-14.018 34.113c-.96 2.366-2.254 3.088-4.673 3.605v1.424h12.155v-1.424c-2.644 0-3.936-.573-3.936-2.422 0-1.571 1.749-5.805 2.189-7.044h13.852c.448 1.239 2.304 5.473 2.304 7.044 0 1.849-1.402 2.422-4.051 2.422v1.424h16.545zm37.093-31.08c0-3.717-1.009-5.233-5.17-5.695v-1.461h13.505v1.461c-4.167.462-5.184 1.978-5.184 5.695v32.023h-1.908l-26.118-30.175.001 22.114c0 3.716 1.011 5.232 5.178 5.694v1.424H147.23v-1.424c4.167-.462 5.186-1.978 5.186-5.694v-25.756c-1.3-2.274-2.823-3.346-5.186-3.901v-1.461h10.415l22.793 26.347.002-19.191h-.001zm48.325 22.094c-4.001 6.823-9.237 9.929-17.174 9.929-12.438 0-19.811-8.172-19.811-20.394 0-8.708 6.868-19.691 20.208-19.691 3.994 0 9.67 2.256 10.522 2.256 1.121 0 1.459-.61 2.371-2.256h1.906l.793 12.776h-1.69c-2.259-5.916-6.245-10.187-12.948-10.187-9.008 0-12.942 9.744-12.942 17.102 0 10.317 4.441 17.232 13.959 17.232 7.425 0 11.536-5.51 13.283-7.932l1.523 1.165zm18.534 2.94c0 3.994 1.076 4.437 5.632 4.622v1.424h-18.915v-1.424c4.565-.185 5.634-.628 5.634-4.622v-26.107c0-4.012-1.069-4.456-5.634-4.622v-1.461h18.915v1.461c-4.556.166-5.632.61-5.632 4.622v26.107zm21.305-7.655l5.741-15.142 5.686 15.142h-11.427zm27.416 13.701v-1.424c-2.875.056-3.604-1.183-5.062-4.788l-13.457-32.93h-1.854l-14.019 34.113c-.961 2.366-2.254 3.088-4.674 3.605v1.424h12.155v-1.424c-2.642 0-3.935-.573-3.935-2.422 0-1.571 1.748-5.805 2.195-7.044h13.845c.447 1.239 2.304 5.473 2.304 7.044 0 1.849-1.407 2.422-4.051 2.422v1.424h16.553zm3.345 0v-1.424c3.661-.166 4.729-.628 4.729-4.622v-26.107c0-4.012-1.068-4.456-4.729-4.622v-1.461h17.672v1.461c-4.218.166-5.294.61-5.294 4.622v26.847c0 2.311.679 3.087 4.955 3.087 6.869 0 10.92-1.239 14.185-7.987h1.467l-2.587 10.206h-30.398zM8.62 453.652c4.347-.185 5.409-.629 5.409-4.622v-29.38H9.305c-4.448 0-6.197 1.794-7.432 6.971H.184l.902-9.781h33.541l.903 9.781h-1.698c-1.227-5.177-2.975-6.971-7.416-6.971h-4.731v29.38c0 3.993 1.069 4.437 5.395 4.622v1.424H8.62v-1.424zm44.129-4.622c0 3.993 1.076 4.437 5.633 4.603v1.443H39.466v-1.443c4.572-.166 5.634-.61 5.634-4.603v-26.126c0-3.993-1.062-4.437-5.634-4.604v-1.479h18.916v1.479c-4.557.167-5.633.611-5.633 4.604v26.126zm45.81-32.19h13.174v1.46c-3.661.167-4.722.611-4.722 4.604v26.126c0 3.993 1.061 4.437 4.722 4.622v1.424H94.508v-1.424c3.77-.185 4.847-.629 4.847-4.622v-26.902h-.117l-12.776 33.428h-1.747l-12.488-33.428h-.115v25.829c0 3.717 1.01 5.233 5.177 5.695v1.424H63.785v-1.424c4.16-.462 5.171-1.978 5.171-5.695v-25.996c0-2.644-1.12-3.661-5.171-3.661v-1.46h13.902l10.184 26.55 10.689-26.55zm18.606 38.236v-1.424c3.654-.185 4.722-.629 4.722-4.622v-26.126c0-3.993-1.068-4.437-4.722-4.604v-1.46h31.964l.225 8.431h-1.568c-1.357-4.271-2.823-5.621-10.305-5.621h-5.793c-1.754 0-2.137.388-2.137 1.96v12.11h6.521c5.966 0 7.258-1.072 7.996-5.066h1.464v13.498h-1.464c-.795-4.493-3.042-5.621-7.996-5.621h-6.521v13.238c0 2.293.671 3.088 7.425 3.088 6.861 0 10.919-1.239 14.183-8.006h1.46l-2.586 10.225H117.165zm40.431-12.018h1.473c1.625 5.066 6.471 10.353 12.105 10.353 4.831 0 6.579-3.365 6.579-6.36 0-8.782-19.811-10.409-19.811-21.318-.001-5.288 5.121-9.799 10.971-9.799 5.741 0 7.764 2.015 10.307 2.015 1.068 0 1.741-.832 2.022-2.015h1.467v12.147h-1.467c-1.575-5.51-5.51-9.559-10.697-9.559-4.269 0-5.857 2.755-5.857 5.362 0 7.803 19.821 8.043 19.821 21.485-.002 6.009-4.95 10.631-11.827 10.631-6.752 0-8.494-2.348-11.144-2.348-1.004 0-1.689.665-1.908 1.904h-2.035v-12.498h.001z" fill="#332E5E"/>
</svg>
