<svg width="86" height="68" xmlns="http://www.w3.org/2000/svg">
  <path d="M19.835 30.612c0-1.36 1.054-2.362 2.372-2.362 1.317 0 2.371 1.026 2.371 2.362 0 1.36-1.054 2.362-2.371 2.362-1.318 0-2.372-1.026-2.372-2.362zm4.216-4.247c0 1.36 1.054 2.362 2.372 2.362 1.317 0 2.371-1.026 2.371-2.362 0-1.36-1.054-2.362-2.371-2.362-1.318 0-2.372 1.002-2.372 2.362zm5.774-2.887v4.247c3.33 0 5.94 2.696 5.94 6.227 0 3.532-2.635 6.228-5.94 6.228-3.33 0-5.941-2.696-5.941-6.228h-4.648c0 5.87 4.695 10.475 10.589 10.475 5.893 0 10.588-4.605 10.588-10.475 0-5.87-4.695-10.474-10.588-10.474zM77.615 63.3v-4.033h7.499v-4.032h-7.498v-3.96h8.264v-4.057H73.064v20.114H86v-4.056h-8.384v.024zm-7.258-6.013c0 5.774-4.432 10.045-10.684 10.045h-6.66V47.194h6.66c6.252 0 10.684 4.319 10.684 10.093zm-4.647 0c0-3.436-2.3-6.036-5.678-6.036h-2.491V63.3h2.491c3.378 0 5.678-2.577 5.678-6.013zm-30.4 2.314c0 2.315-1.653 4.033-3.928 4.033-2.276 0-3.93-1.718-3.93-4.033V47.242H22.95V59.53c0 4.748 3.57 8.231 8.433 8.231 4.863 0 8.432-3.507 8.432-8.231V47.242H35.31v12.36zm-26.207.406h4.48c-.408 2.076-2.252 3.674-4.456 3.674-2.467 0-4.456-1.98-4.456-4.867v-2.982c0-2.84 2.132-4.94 5.127-4.94 2.323 0 4.408 1.265 5.078 3.102l4.193-1.455c-1.15-3.531-4.935-5.726-9.271-5.726-5.486 0-9.558 3.674-9.558 9.019v2.982c.024 5.13 3.832 8.947 8.528 8.947 2.922 0 5.51-1.479 7.019-3.77v3.365h3.976v-11.19H9.103v3.841zm50.953-23.836V23.884h-4.503v12.359c0 2.314-1.653 4.032-3.929 4.032s-3.929-1.718-3.929-4.032v-12.36h-4.503v12.288c0 4.748 3.569 8.232 8.432 8.232s8.432-3.484 8.432-8.232zM7.738 43.997h4.527v-7.635l7.594-12.478h-5.126l-4.791 8.231-4.72-8.231H.12L7.714 36.41v7.587h.024zM53.229.525H37.897V4.58H53.23V.525zM35.957 16.582H27.55V12.55h7.498V8.518h-7.498v-3.96h8.264V.5H22.997v20.114h12.936v-4.033h.024zm-27.19 4.486c2.923 0 5.51-1.48 7.02-3.77v3.364h3.976V9.472H9.103v3.866h4.48c-.408 2.075-2.252 3.674-4.456 3.674-2.467 0-4.456-1.98-4.456-4.867V9.162c0-2.84 2.132-4.939 5.127-4.939 2.323 0 4.408 1.265 5.078 3.102l4.193-1.456C17.919 2.34 14.134.143 9.798.143 4.312.143.24 3.818.24 9.163v2.982c.024 5.106 3.832 8.923 8.528 8.923zm61.614 17.847l-2.348-2.457 2.324-2.506-2.348-2.457 2.324-2.506-2.347-2.457 2.587-2.648h-4.696l-2.539 2.672 2.348 2.457-2.324 2.506 2.348 2.457-2.324 2.505 2.348 2.458-2.324 2.505 2.491 2.577h4.72l-2.54-2.6 2.3-2.506zM48.366 56.691c.67-.597 1.797-1.6 1.797-3.46 0-1.837-1.126-2.863-1.797-3.46l-.072-.071c-.335-.358-.383-.86-.407-1.098v-1.408h-4.552v1.957c0 1.837 1.126 2.863 1.797 3.46.48.429.48.453.48.62 0 .167 0 .19-.48.62-.647.573-1.7 1.527-1.773 3.245V57.382c.072 1.718 1.15 2.673 1.773 3.245.48.43.48.454.48.62 0 .168 0 .192-.48.621-.67.597-1.797 1.599-1.797 3.46v1.956h4.552v-1.408c0-.238.072-.74.407-1.097l.072-.072c.67-.596 1.797-1.598 1.797-3.46 0-1.836-1.126-2.862-1.797-3.459-.431-.382-.48-.453-.48-.573.025-.071.073-.143.48-.524zm-5.079-36.052h4.528v-3.746h-4.528v3.746zm4.552-9.09h-4.528v3.745h4.528v-3.746zm0-5.37h-4.528v3.747h4.528V6.18zm34.328 37.818l-5.51-7.683c2.683-.835 4.552-3.173 4.552-6.036 0-3.627-3.018-6.394-6.827-6.394h-2.66v4.08h2.492c1.317 0 2.348 1.05 2.348 2.433 0 1.384-1.03 2.434-2.348 2.434h-2.491v3.865l4.934 7.325h5.51v-.024z" fill="#FFF" fill-rule="nonzero"/>
</svg>
