<svg xmlns="http://www.w3.org/2000/svg" width="175" height="15">
<path
     id="path2"
     d="M 0,7 C 0,3 2.9,0 7,0 c 3.4,0 5.5,1.7 6.1,4 H 11.7 C 11.1,2.6 9.9,1.3 7.1,1.3 3.7,1.3 1.5,3.6 1.5,7 c 0,3.3 2,5.6 5.6,5.6 2.6,0 4.1,-1.2 4.8,-2.3 V 7.6 h -5 V 6.3 h 6.3 v 4.3 c -0.6,1.3 -2.8,3.3 -6.1,3.3 -4.4,0 -7,-3 -7,-6.9 z M 27.7,0 c -4,0 -6.9,3 -6.9,7 0,4 3,6.9 7,6.9 3.9,0 6.8,-3 6.8,-7 0,-4 -3,-6.8 -6.9,-6.8 z m 0,12.6 c -3.2,0 -5.4,-2.3 -5.4,-5.6 0,-3.4 2.2,-5.7 5.4,-5.7 3.2,0 5.4,2.3 5.4,5.7 0,3.3 -2.2,5.6 -5.4,5.6 z M 48.6,0 c -4,0 -6.9,3 -6.9,7 0,4 3,6.9 7,6.9 3.9,0 6.8,-3 6.8,-7 0,-4 -2.9,-6.8 -6.9,-6.8 z m 0,12.6 c -3.2,0 -5.4,-2.3 -5.4,-5.6 0,-3.4 2.2,-5.7 5.4,-5.7 3.2,0 5.4,2.3 5.4,5.7 0,3.3 -2.2,5.6 -5.4,5.6 z M 68.7,0.4 h -4.4 v 13.2 h 4.3 c 4.3,0 7.1,-2.8 7.1,-6.7 0,-3.8 -2.8,-6.5 -7,-6.5 z M 68.5,12.2 H 65.7 V 1.7 h 2.8 c 3.7,0 5.7,2.1 5.7,5.2 0,3.2 -2,5.3 -5.7,5.3 z M 84.9,0.4 h 1.4 v 13.2 h -1.4 z m 12.4,0 h 9 v 1.3 h -7.6 v 4.6 h 7.2 v 1.3 h -7.2 v 4.6 h 7.8 v 1.4 h -9.2 z m 26.9,6.5 A 2.9,2.9 0 0 0 126.3,4 c 0,-2.5 -1.8,-3.6 -4.7,-3.6 h -5.5 v 13.2 h 5.6 c 3.1,0 5.1,-1.2 5.1,-3.7 0,-1.7 -1,-2.7 -2.6,-3 z m -6.7,-5.2 h 4 c 2.1,0 3.4,0.5 3.4,2.4 0,1.8 -1.5,2.2 -3.6,2.2 h -3.8 z m 4.3,10.5 h -4.3 V 7.6 h 4.2 c 2.3,0 3.7,0.6 3.7,2.3 0,1.7 -1.4,2.3 -3.6,2.3 z M 140.6,0 c -4,0 -6.8,3 -6.8,7 0,4 2.9,6.9 6.8,6.9 4,0 7,-3 7,-7 0,-4 -3,-6.9 -7,-6.9 z m 0,12.6 c -3.1,0 -5.4,-2.3 -5.4,-5.6 0,-3.4 2.3,-5.7 5.4,-5.7 3.2,0 5.5,2.3 5.5,5.7 0,3.3 -2.3,5.6 -5.5,5.6 z m 22.7,1 -4.2,-5.7 -4.1,5.7 h -1.6 l 5,-6.7 -4.9,-6.5 h 1.7 l 4,5.4 4,-5.4 h 1.5 l -4.8,6.4 5,6.8 z m 6.4,-2.3 h -0.8 v -0.4 h 2 v 0.4 h -0.8 v 2.3 h -0.4 z m 1.7,-0.4 h 0.4 l 1,1.8 1,-1.8 h 0.4 v 2.7 h -0.4 v -2 l -0.8,1.5 h -0.3 l -0.9,-1.5 v 2 h -0.4 z"
     fill="#000000" />
</svg>
