<?xml version="1.0" encoding="utf-8"?>
<svg width="115px" height="115px" viewBox="0 0 115 115" version="1.1" xmlns:xlink="http://www.w3.org/1999/xlink" xmlns="http://www.w3.org/2000/svg">
  <desc>Created with Lunacy</desc>
  <path d="M0 0L115 0L115 115L0 115L0 0Z" id="Rectangle" fill="none" stroke="none" />
  <path d="M59.7544 7.70032C69.5455 8.50219 78.4618 12.621 85.5041 19L88.9055 15.396C89.954 14.282 89.855 12.4433 88.6869 11.4703C81.2965 5.32994 72.3289 1.25154 62.5212 0.018619C61.0492 -0.167163 59.7544 1.06135 59.7544 2.63206L59.7544 7.70032ZM25.0381 19L21.6414 15.4022C20.5913 14.2878 20.691 12.4504 21.858 11.4792C29.2475 5.3326 38.2177 1.25323 48.0257 0.0184845C49.4971 -0.166508 50.7914 1.0609 50.7914 2.63113L50.7914 7.69786C40.9979 8.49949 32.081 12.6192 25.0381 19ZM52.7833 12C42.9657 12.8208 34.0139 16.7957 26.8896 22.9414L42.234 38.2656C43.0474 39.0796 44.3026 39.2302 45.2995 38.6508C47.0027 37.6614 48.8474 36.8968 50.7963 36.3841C51.9632 36.0738 52.7833 35.0372 52.7833 33.8311L52.7833 12ZM83.6564 22.9375L68.309 38.2655C67.4945 39.0798 66.2408 39.229 65.2457 38.6532C63.5417 37.668 61.6953 36.9032 59.7462 36.3904C58.581 36.0845 57.7627 35.0476 57.7627 33.8472L57.7627 12C67.5806 12.8232 76.5308 16.797 83.6564 22.9375ZM7.64275 53L2.61618 53C1.05621 53 -0.165836 51.6569 0.0184179 50.1313C1.25722 39.9505 5.32319 30.6397 11.4444 22.976C12.4093 21.7674 14.2373 21.6675 15.3428 22.7532L18.9223 26.2805C12.5746 33.5825 8.4657 42.8336 7.64275 53ZM91.6235 26.2831L95.2038 22.7543C96.3065 21.6655 98.1326 21.769 99.097 22.9771C105.221 30.6399 109.288 39.9448 110.527 50.1324C110.713 51.6589 109.493 53 107.933 53L102.903 53C102.079 42.8333 97.9696 33.5822 91.6235 26.2831ZM22.8596 27C16.9283 34.1396 12.9916 43.1164 11.9507 52.9977L33.6415 53C34.8497 53 35.8906 52.1708 36.2043 50.9916C36.724 49.0284 37.4946 47.1747 38.4885 45.4635C39.0702 44.4616 38.9216 43.2016 38.1084 42.3792L22.8596 27ZM98.5951 53C97.5541 43.1187 93.6168 34.1395 87.6811 27L72.434 42.3711C71.6252 43.1926 71.4751 44.4568 72.0583 45.4562C73.0523 47.1715 73.8253 49.0271 74.3451 50.9921C74.6602 52.1688 75.6998 53 76.9082 53L98.5951 53ZM18.9223 90.8193L15.4171 94.2467C14.3018 95.3342 12.4619 95.2315 11.4896 94.0212C5.33279 86.3561 1.24757 77.0484 0.0185642 66.8636C-0.166961 65.3395 1.06205 64 2.63204 64L7.67861 64C8.44858 74.1948 12.5499 83.4817 18.9223 90.8193ZM9.95898 64C10.4234 73.7957 13.8712 82.7795 19.3838 90L35.1435 74.161C35.9301 73.3743 36.0737 72.1604 35.5172 71.1947C34.5748 69.5601 33.8475 67.7883 33.361 65.9179C33.0674 64.7953 32.0736 64.0022 30.9148 64.0022L9.95898 64ZM91.1642 90C96.6732 82.7789 100.123 73.7965 100.587 64L79.6341 64C78.4783 64 77.4818 64.7911 77.1882 65.9159C76.6975 67.7886 75.971 69.5584 75.0281 71.1931C74.4716 72.1589 74.618 73.3772 75.4002 74.1618L91.1642 90ZM107.913 64L102.866 64C102.097 74.1928 97.9944 83.4799 91.6235 90.8176L95.1291 94.2451C96.2387 95.3347 98.081 95.232 99.0549 94.0196C105.21 86.3543 109.298 77.0464 110.527 66.8651C110.713 65.3417 109.484 64 107.913 64Z" transform="translate(2 9.000031)" id="Fill-12" fill="#10C2ED" fill-rule="evenodd" stroke="none" />
</svg>
