<svg width="120" height="40" viewBox="0 0 80 18" fill="none" xmlns="http://www.w3.org/2000/svg">
    <path
        d="M18.2393 7.03988L13.4387 1.18098C13.0859 0.751534 12.5491 0.552147 12.0123 0.628834L4.49693 1.84049C3.96012 1.93251 3.5 2.28528 3.30061 2.80675L0.570552 9.86196C0.386503 10.3681 0.46319 10.9509 0.800613 11.365L5.60123 17.2086C5.95399 17.638 6.4908 17.8374 7.02761 17.7607L14.5583 16.5644C15.0951 16.4724 15.5552 16.1196 15.7546 15.5982L18.4847 8.54295C18.684 8.03681 18.592 7.46933 18.2393 7.03988Z"
        fill="url(#paint0_linear)" />
    <path
        d="M11.5828 5.79754L9.89571 8.80368L8.22393 5.23006L6.13804 5.78221L3.57669 12.4693H5.86197L7.42638 8.5276L8.94479 12.2699H10.1104L12.365 8.25153V13.4049L14.5123 12.6687V6.31901L11.5828 5.79754Z"
        fill="white" />
    <path
        d="M44.2362 8.29754C44.819 7.74539 45.5245 7.48466 46.3681 7.48466C47.2117 7.48466 47.9325 7.74539 48.5 8.29754C49.0828 8.83435 49.3589 9.52454 49.3589 10.3834C49.3589 11.227 49.0675 11.9172 48.5 12.454C47.9325 12.9755 47.227 13.2515 46.3681 13.2515C45.5245 13.2515 44.8037 12.9908 44.2362 12.454C43.6687 11.9172 43.3926 11.227 43.3926 10.3834C43.3926 9.53987 43.684 8.83435 44.2362 8.29754ZM46.3834 11.6411C47.0123 11.6411 47.5184 11.1503 47.5184 10.3834C47.5184 9.61656 47.0123 9.11043 46.3834 9.11043C45.7546 9.11043 45.2485 9.6319 45.2485 10.3834C45.2485 11.135 45.7546 11.6411 46.3834 11.6411ZM40.9233 7.5C42.2117 7.5 42.7638 8.17484 42.7638 9.3865V13.1135H40.6932V9.81594C40.6932 9.47852 40.5705 9.27913 40.3098 9.27913C40.0644 9.27913 39.589 9.37116 39.2822 9.57055V13.1288H37.227V7.6227H38.9294L39.0368 8.03681C39.3742 7.82208 40.1718 7.53067 40.7853 7.51533L40.9233 7.5ZM27.4417 6.41104L30.4172 6.93251V13.2669L28.2393 13.9877V8.86503L25.954 12.9141H24.7577L23.2086 9.1411L21.6288 13.0982H19.2975L21.9049 6.38036L24.0215 5.81288L25.7239 9.41718L27.4417 6.41104ZM31.5675 7.77607C33.0706 7.51533 36.4601 6.73313 36.4755 9.78527V13.1288H34.8957L34.773 12.8681C34.773 12.8681 34.2209 13.2822 33.0399 13.2822C31.7515 13.2822 31.0613 12.408 31.0613 11.5491C31.0613 10.1534 32.3037 9.81594 33.7147 9.81594H34.6963C34.6963 9.24846 34.3436 9.03374 33.6074 9.04907C32.5644 9.04907 31.7362 9.27914 31.5675 9.34049V7.77607ZM34.6963 11.0276V10.9663L33.7761 10.9509C33.0552 10.9509 32.7025 11.0583 32.7025 11.4264C32.7025 11.7945 33.0092 11.9325 33.5153 11.9325C34.2822 11.9478 34.6963 11.6718 34.6963 11.0276ZM74.6043 8.29754C75.1871 7.74539 75.8926 7.48466 76.7362 7.48466C77.5798 7.48466 78.3006 7.74539 78.8681 8.29754C79.4509 8.83435 79.727 9.52454 79.727 10.3834C79.727 11.2423 79.4356 11.9172 78.8681 12.454C78.3006 12.9755 77.5951 13.2515 76.7362 13.2515C75.8926 13.2515 75.1718 12.9908 74.6043 12.454C74.0368 11.9172 73.7607 11.227 73.7607 10.3834C73.7454 9.53987 74.0215 8.83435 74.6043 8.29754ZM76.7362 11.6411C77.365 11.6411 77.8712 11.1503 77.8712 10.3834C77.8712 9.61656 77.365 9.11043 76.7362 9.11043C76.1074 9.11043 75.6012 9.6319 75.6012 10.3834C75.6012 11.135 76.1074 11.6411 76.7362 11.6411ZM71.2761 7.5C72.5644 7.5 73.1012 8.17484 73.1012 9.3865V13.1135H71.0307V9.81594C71.0307 9.47852 70.908 9.27913 70.6472 9.27913C70.4018 9.27913 69.9264 9.37116 69.6196 9.57055V13.1288H67.5644V7.6227H69.2669L69.3742 8.03681C69.7117 7.82208 70.5092 7.53067 71.1227 7.51533L71.2761 7.5ZM57.7945 6.41104L60.7699 6.93251V13.2669L58.592 13.9877V8.86503L56.2914 12.9141H55.1104L53.5613 9.1411L51.9816 13.0982H49.6503L52.2577 6.38036L54.3742 5.81288L56.0767 9.41718L57.7945 6.41104ZM61.9049 7.77607C63.408 7.51533 66.8129 6.73313 66.8129 9.78527V13.1288H65.2331L65.1104 12.8681C65.1104 12.8681 64.5583 13.2822 63.3773 13.2822C62.089 13.2822 61.3988 12.408 61.3988 11.5491C61.3988 10.1534 62.6411 9.81594 64.0521 9.81594H65.0337C65.0337 9.24846 64.681 9.03374 63.9448 9.04907C62.9018 9.04907 62.0736 9.27914 61.9049 9.34049V7.77607ZM65.0491 11.0276V10.9663L64.1288 10.9509C63.408 10.9509 63.0552 11.0583 63.0552 11.4264C63.0552 11.7945 63.362 11.9325 63.8681 11.9325C64.635 11.9478 65.0491 11.6718 65.0491 11.0276Z"
        fill="#0C193A" />
    <defs>
        <linearGradient id="paint0_linear" x1="3.59982" y1="14.0805" x2="13.1274" y2="5.31786"
            gradientUnits="userSpaceOnUse">
            <stop offset="0.00044188" stop-color="#0397A7" />
            <stop offset="0.9971" stop-color="#00ECCD" />
        </linearGradient>
    </defs>
</svg>