<?xml version="1.0" encoding="utf-8"?>
<svg role="img" aria-labelledby="thetitle thedescription" width="16px" height="12px" viewBox="0 0 16 12" version="1.1" 
  xmlns:xlink="http://www.w3.org/1999/xlink" 
  xmlns="http://www.w3.org/2000/svg">
  <title id="thetitle">medium</title>
  <desc id="thedescription">Created by Lunacy</desc>
  <path d="M1.89729 2.44797C1.91717 2.26242 1.84227 2.07903 1.69561 1.95414L0.201681 0.253968L0.201681 0L4.84034 0L8.42577 7.42857L11.578 0L16 0L16 0.253968L14.7227 1.41093C14.6126 1.49023 14.5579 1.62056 14.5808 1.74956L14.5808 10.2504C14.5579 10.3794 14.6126 10.5098 14.7227 10.5891L15.9701 11.746L15.9701 12L9.69561 12L9.69561 11.746L10.9879 10.5608C11.1148 10.4409 11.1148 10.4056 11.1148 10.2222L11.1148 3.35097L7.52194 11.9718L7.03641 11.9718L2.85341 3.35097L2.85341 9.12875C2.81853 9.37166 2.90393 9.61622 3.08497 9.79189L4.76564 11.7178L4.76564 11.9718L0 11.9718L0 11.7178L1.68067 9.79189C1.86039 9.61593 1.94081 9.36975 1.89729 9.12875L1.89729 2.44797Z" fill="#291C45" stroke="none" />
</svg>