<?xml version="1.0" encoding="UTF-8"?>
<svg width="179px" height="126px" viewBox="0 0 179 126" version="1.1" xmlns="http://www.w3.org/2000/svg" xmlns:xlink="http://www.w3.org/1999/xlink">
    <!-- Generator: Sketch 55.2 (78181) - https://sketchapp.com -->
    <title>salesforca-seeklogo.com</title>
    <desc>Created with Sketch.</desc>
    <g id="integrations-table" stroke="none" stroke-width="1" fill="none" fill-rule="evenodd">
        <g id="Artboard" transform="translate(-739.000000, -296.000000)" fill-rule="nonzero">
            <g id="salesforca-seeklogo.com" transform="translate(739.000000, 296.000000)">
                <path d="M74.5039974,111.727683 C80.2711019,117.743495 88.3002154,121.47437 97.1801299,121.47437 C108.984354,121.47437 119.283118,114.884773 124.767472,105.102383 C129.533485,107.234311 134.808959,108.420133 140.359542,108.420133 C161.64994,108.420133 178.910497,90.989832 178.910497,69.4894849 C178.910497,47.9865881 161.64994,30.5562868 140.359542,30.5562868 C137.761288,30.5562868 135.221622,30.8164025 132.766018,31.3136825 C127.936322,22.6890623 118.7329,16.8619609 108.169215,16.8619609 C103.74709,16.8619609 99.5644099,17.8845726 95.8402464,19.7028322 C90.9443209,8.17358687 79.5374774,0.0895993 66.2430788,0.0895993 C52.3984618,0.0895993 40.5993327,8.85957826 36.0702197,21.1589701 C34.0909617,20.7381947 32.040379,20.5188814 29.9363029,20.5188814 C13.4526751,20.5188814 0.0894991414,34.0346966 0.0894991414,50.7101523 C0.0894991414,61.8849263 6.09350327,71.6418145 15.0141747,76.8619798 C13.1775659,81.0926846 12.1560955,85.7620164 12.1560955,90.6710625 C12.1560955,109.848219 27.7074087,125.393957 46.8886353,125.393957 C58.1502824,125.393957 68.1586542,120.033533 74.5039974,111.727683" id="Path" fill="#00A1E0" transform="translate(89.499998, 62.741778) scale(-1, 1) rotate(-180.000000) translate(-89.499998, -62.741778) "></path>
                <path d="M25.990013,52.7316585 C25.8779314,52.4383908 26.0307699,52.3771871 26.0664322,52.3261841 C26.4026768,52.0813693 26.744016,51.9054087 27.0879025,51.7090468 C28.9117748,50.7399884 30.6337548,50.4569213 32.4347013,50.4569213 C36.1028243,50.4569213 38.3801173,52.4103391 38.3801173,55.5546788 L38.3801173,55.6158825 C38.3801173,58.5230578 35.8098839,59.5788215 33.3975836,60.3413175 L33.0842647,60.4433236 C31.2654871,61.0349593 29.6963456,61.5449901 29.6963456,62.7435624 L29.6963456,62.8073162 C29.6963456,63.832478 30.6133763,64.5873236 32.034774,64.5873236 C33.6141047,64.5873236 35.4889232,64.0619918 36.696347,63.3938516 C36.696347,63.3938516 37.0504227,63.1643377 37.1803354,63.5086085 C37.2516601,63.6922196 37.8630139,65.3396189 37.9266966,65.5181297 C37.9954739,65.7119414 37.8732031,65.85475 37.7483851,65.9312546 C36.3702916,66.7702552 34.4649055,67.3440398 32.4932894,67.3440398 L32.126477,67.3414897 C28.7691256,67.3414897 26.4256025,65.3115672 26.4256025,62.4018417 L26.4256025,62.3406381 C26.4256025,59.272803 29.0111198,58.278243 31.4336094,57.5846012 L31.8233475,57.464744 C33.5886317,56.9215612 35.1093743,56.4548831 35.1093743,55.210408 L35.1093743,55.1492043 C35.1093743,54.0118357 34.1210189,53.1651847 32.5264044,53.1651847 C31.9074086,53.1651847 29.9332452,53.1779354 27.8011487,54.5269668 C27.5438706,54.6774259 27.3935794,54.7870825 27.1948894,54.9069397 C27.0904499,54.9732437 26.8280772,55.0880007 26.7134483,54.7411797 L25.990013,52.7316585 L25.990013,52.7316585 Z" id="Path" fill="#FFFFFF" transform="translate(32.164858, 58.900481) scale(-1, 1) rotate(-180.000000) translate(-32.164858, -58.900481) "></path>
                <path d="M79.6898064,52.7316585 C79.5777251,52.4383908 79.7305632,52.3771871 79.7662261,52.3261841 C80.1024706,52.0813693 80.4438096,51.9054087 80.7876959,51.7090468 C82.6115682,50.7399884 84.3335482,50.4569213 86.1344951,50.4569213 C89.8026177,50.4569213 92.0799109,52.4103391 92.0799109,55.5546788 L92.0799109,55.6158825 C92.0799109,58.5230578 89.5096779,59.5788215 87.0973774,60.3413175 L86.7840582,60.4433236 C84.9652804,61.0349593 83.3961392,61.5449901 83.3961392,62.7435624 L83.3961392,62.8073162 C83.3961392,63.832478 84.3131701,64.5873236 85.7345679,64.5873236 C87.3138982,64.5873236 89.1887169,64.0619918 90.3961404,63.3938516 C90.3961404,63.3938516 90.7502164,63.1643377 90.8801292,63.5086085 C90.9514537,63.6922196 91.5628072,65.3396189 91.6264899,65.5181297 C91.6952672,65.7119414 91.5729969,65.85475 91.4481787,65.9312546 C90.0700849,66.7702552 88.1646992,67.3440398 86.1930827,67.3440398 L85.8262704,67.3414897 C82.4689192,67.3414897 80.1253959,65.3115672 80.1253959,62.4018417 L80.1253959,62.3406381 C80.1253959,59.272803 82.7109132,58.278243 85.1334027,57.5846012 L85.5231409,57.464744 C87.2884249,56.9215612 88.8117149,56.4548831 88.8117149,55.210408 L88.8117149,55.1492043 C88.8117149,54.0118357 87.8208129,53.1651847 86.2261977,53.1651847 C85.6072024,53.1651847 83.6330387,53.1779354 81.5009424,54.5269668 C81.2436642,54.6774259 81.0908254,54.7819822 80.8972306,54.9069397 C80.8310006,54.9502923 80.5202287,55.0701495 80.4132419,54.7411797 L79.6898064,52.7316585 L79.6898064,52.7316585 Z" id="Path" fill="#FFFFFF" transform="translate(85.864652, 58.900481) scale(-1, 1) rotate(-180.000000) translate(-85.864652, -58.900481) "></path>
                <path d="M116.349139,58.8795722 C116.349139,57.1021151 116.017989,55.7020806 115.365878,54.7126209 C114.72141,53.7333618 113.745791,53.2564831 112.385528,53.2564831 C111.022719,53.2564831 110.052195,53.7308117 109.417915,54.7126209 C108.775993,55.6995305 108.449938,57.1021151 108.449938,58.8795722 C108.449938,60.6544793 108.775993,62.0519636 109.417915,63.0312227 C110.052195,64.0002811 111.022719,64.4720595 112.385528,64.4720595 C113.745791,64.4720595 114.72141,64.0002811 115.368426,63.0312227 C116.017989,62.0519636 116.349139,60.6544793 116.349139,58.8795722 M119.411003,62.1743709 C119.110421,63.1918823 118.641716,64.0895365 118.017626,64.8367315 C117.393535,65.5864768 116.60387,66.188313 115.666461,66.6269395 C114.731599,67.0630158 113.626067,67.2848792 112.385528,67.2848792 C111.142443,67.2848792 110.036911,67.0630158 109.102049,66.6269395 C108.16464,66.188313 107.374974,65.5864768 106.748337,64.8367315 C106.126793,64.0869863 105.658089,63.1893321 105.354959,62.1743709 C105.056924,61.1619599 104.906633,60.0551932 104.906633,58.8795722 C104.906633,57.7039513 105.056924,56.5946345 105.354959,55.5847735 C105.658089,54.5698123 106.124246,53.6721582 106.750884,52.922413 C107.374974,52.1726677 108.167187,51.5733816 109.102049,51.1475059 C110.039458,50.7216302 111.142443,50.5048671 112.385528,50.5048671 C113.626067,50.5048671 114.729052,50.7216302 115.666461,51.1475059 C116.601322,51.5733816 117.393535,52.1726677 118.017626,52.922413 C118.641716,53.669608 119.110421,54.5672622 119.411003,55.5847735 C119.711585,56.5971846 119.861877,57.7065015 119.861877,58.8795722 C119.861877,60.052643 119.711585,61.1619599 119.411003,62.1743709" id="Shape" fill="#FFFFFF" transform="translate(112.384255, 58.894873) scale(-1, 1) rotate(-180.000000) translate(-112.384255, -58.894873) "></path>
                <path d="M144.554724,53.7075996 C144.452831,54.0059676 144.164986,53.8937608 144.164986,53.8937608 C143.719207,53.7229006 143.245408,53.564791 142.741041,53.4857362 C142.229032,53.4066814 141.666077,53.365879 141.062365,53.365879 C139.579832,53.365879 138.402976,53.8070556 137.559817,54.6792082 C136.714111,55.5513608 136.240311,56.9615959 136.245407,58.8691109 C136.250501,60.6057656 136.668259,61.9114444 137.419715,62.9060044 C138.166076,63.8954641 139.302176,64.4029447 140.817823,64.4029447 C142.081288,64.4029447 143.044171,64.2575859 144.052904,63.9388167 C144.052904,63.9388167 144.294898,63.8342604 144.409527,64.1504794 C144.676995,64.8951244 144.875685,65.4281065 145.160983,66.2467058 C145.242497,66.4787698 145.043807,66.5782258 144.972482,66.6062776 C144.575102,66.761837 143.637693,67.0143022 142.929541,67.1214086 C142.267241,67.2234148 141.49286,67.276968 140.63187,67.276968 C139.34548,67.276968 138.199191,67.0576548 137.218478,66.6190284 C136.240311,66.182952 135.409889,65.5811157 134.752684,64.8313705 C134.095479,64.0816253 133.596207,63.1839711 133.262509,62.1690099 C132.931359,61.1565989 132.763236,60.0447318 132.763236,58.8691109 C132.763236,56.3266075 133.448462,54.2711836 134.801083,52.7665928 C136.156251,51.2569018 138.191549,50.4893055 140.845844,50.4893055 C142.414986,50.4893055 144.024884,50.8080747 145.181361,51.2645523 C145.181361,51.2645523 145.402977,51.3716587 145.30618,51.6292242 L144.554724,53.7075996 L144.554724,53.7075996 Z" id="Path" fill="#FFFFFF" transform="translate(139.046944, 58.883137) scale(-1, 1) rotate(-180.000000) translate(-139.046944, -58.883137) "></path>
                <path d="M149.911943,60.5864366 C150.05714,61.5733461 150.329701,62.3944956 150.750007,63.0345842 C151.384287,64.0061929 152.352264,64.539175 153.712527,64.539175 C155.072789,64.539175 155.971988,64.0036427 156.616457,63.0345842 C157.044405,62.3944956 157.230358,61.537644 157.30423,60.5864366 L149.911943,60.5864366 L149.911943,60.5864366 Z M160.220897,62.7566175 C159.961072,63.7384268 159.316603,64.7304366 158.89375,65.1843639 C158.226356,65.9035073 157.574245,66.4058876 156.927229,66.6864045 C156.081522,67.0485263 155.067694,67.2882408 153.957068,67.2882408 C152.663036,67.2882408 151.488726,67.0714777 150.536034,66.6226507 C149.580793,66.1738236 148.778392,65.5617867 148.149207,64.7992907 C147.520022,64.0393449 147.046222,63.1340402 146.74564,62.1063283 C146.44251,61.0837166 146.289672,59.9692994 146.289672,58.7936785 C146.289672,57.5976564 146.447605,56.4832392 146.760924,55.4810287 C147.07679,54.4711678 147.581157,53.5811641 148.263835,52.8441697 C148.943967,52.1020749 149.82024,51.5206398 150.869731,51.1151654 C151.91158,50.7122411 153.177591,50.5031285 154.632104,50.5056556 C157.625191,50.5158792 159.201974,51.1840196 159.851538,51.5435912 C159.966166,51.6073451 160.075701,51.7195518 159.938146,52.0408712 L159.260562,53.9407358 C159.15867,54.2238029 158.870824,54.1192466 158.870824,54.1192466 C158.129558,53.8438299 157.074972,53.3491001 154.616821,53.3542005 C153.009469,53.3567506 151.817329,53.8310792 151.070968,54.5731739 C150.304229,55.3331198 149.929774,56.4500872 149.863544,58.0260822 L160.228539,58.0158816 C160.228539,58.0158816 160.501101,58.0209819 160.529121,58.2861979 C160.539311,58.3984047 160.885745,60.4181265 160.220897,62.7566175 L160.220897,62.7566175 Z" id="Shape" fill="#FFFFFF" transform="translate(153.459010, 58.896937) scale(-1, 1) rotate(-180.000000) translate(-153.459010, -58.896937) "></path>
                <path d="M66.9033407,60.5864366 C67.0510845,61.5733461 67.3210992,62.3944956 67.741405,63.0345842 C68.3756845,64.0061929 69.3436614,64.539175 70.7039239,64.539175 C72.0641862,64.539175 72.9633857,64.0036427 73.6104014,63.0345842 C74.0358019,62.3944956 74.2217557,61.537644 74.2956274,60.5864366 L66.9033407,60.5864366 L66.9033407,60.5864366 Z M77.2097474,62.7566175 C76.9499219,63.7384268 76.3080007,64.7304366 75.8851474,65.1843639 C75.2177529,65.9035073 74.5656419,66.4058876 73.9186262,66.6864045 C73.0729197,67.0485263 72.0590916,67.2882408 70.9484652,67.2882408 C69.6569803,67.2882408 68.4801242,67.0714777 67.5274311,66.6226507 C66.5721907,66.1738236 65.7697888,65.5617867 65.1406038,64.7992907 C64.5114188,64.0393449 64.0376196,63.1340402 63.7370373,62.1063283 C63.436455,61.0837166 63.2810693,59.9692994 63.2810693,58.7936785 C63.2810693,57.5976564 63.4390023,56.4832392 63.7523212,55.4810287 C64.0681873,54.4711678 64.5725542,53.5811641 65.2552326,52.8441697 C65.9353638,52.1020749 66.8116376,51.5206398 67.8611284,51.1151654 C68.9029772,50.7122411 70.1689894,50.5031285 71.6235021,50.5056556 C74.6165884,50.5158792 76.1933714,51.1840196 76.8429352,51.5435912 C76.9575637,51.6073451 77.0670984,51.7195518 76.9295439,52.0408712 L76.2545069,53.9407358 C76.1500674,54.2238029 75.8622214,54.1192466 75.8622214,54.1192466 C75.1209552,53.8438299 74.0689169,53.3491001 71.6056707,53.3542005 C70.0008671,53.3567506 68.8087269,53.8310792 68.0623657,54.5731739 C67.2956261,55.3331198 66.9211719,56.4500872 66.8549419,58.0260822 L77.2199364,58.0158816 C77.2199364,58.0158816 77.4924989,58.0209819 77.5205187,58.2861979 C77.5307084,58.3984047 77.8771419,60.4181265 77.2097474,62.7566175 L77.2097474,62.7566175 Z" id="Shape" fill="#FFFFFF" transform="translate(70.450235, 58.896937) scale(-1, 1) rotate(-180.000000) translate(-70.450235, -58.896937) "></path>
                <path d="M44.4995145,53.7731424 C44.0944926,54.0970119 44.0384519,54.1786168 43.9008973,54.3877294 C43.6971126,54.7064986 43.5926731,55.160426 43.5926731,55.7367608 C43.5926731,56.6497159 43.8932553,57.3051054 44.5173457,57.746282 C44.5097038,57.7437319 45.4089034,58.5240789 47.5231688,58.4960272 C49.0082491,58.475626 50.3353964,58.2563127 50.3353964,58.2563127 L50.3353964,53.5385282 L50.3379437,53.5385282 C50.3379437,53.5385282 49.0209857,53.2554611 47.5384526,53.1662058 C45.4292819,53.0386981 44.4918726,53.7756925 44.4995145,53.7731424 M48.6236057,61.0640321 C48.2032999,61.094634 47.6581761,61.112485 47.0060653,61.112485 C46.1170549,61.112485 45.2586122,61.0002782 44.4536631,60.7835152 C43.6436192,60.5667521 42.9150892,60.2275816 42.2884515,59.7787546 C41.6592665,59.3273773 41.1523523,58.7510426 40.78554,58.0676013 C40.4187277,57.3841601 40.2327742,56.5783115 40.2327742,55.6755571 C40.2327742,54.7575018 40.3907073,53.9593036 40.7065735,53.3064642 C41.0224396,52.6510747 41.4784077,52.1053418 42.0591938,51.6845664 C42.6348854,51.263791 43.3455842,50.9552224 44.1709119,50.7690612 C44.983503,50.5828999 45.9056284,50.4885443 46.9143622,50.4885443 C47.9765895,50.4885443 49.0362695,50.5752495 50.0628345,50.7512101 C51.0792102,50.9246205 52.3273909,51.1770858 52.6738248,51.2561405 C53.0177114,51.3377455 53.3998075,51.4423018 53.3998075,51.4423018 C53.6570856,51.5060557 53.6367071,51.7814723 53.6367071,51.7814723 L53.6316125,61.2705946 C53.6316125,63.3515201 53.0762994,64.8943631 51.9835045,65.8506708 C50.895804,66.8044283 49.2935476,67.2864074 47.2225864,67.2864074 C46.4456576,67.2864074 45.1949295,67.1793009 44.4460211,67.0288418 C44.4460211,67.0288418 42.1814646,66.5902154 41.24915,65.8608714 C41.24915,65.8608714 41.0453654,65.7333637 41.1574469,65.4477465 L41.8910715,63.4739274 C41.9827746,63.2189121 42.2298635,63.3056173 42.2298635,63.3056173 C42.2298635,63.3056173 42.30883,63.3362191 42.4005331,63.3897724 C44.395075,64.4761379 46.9169095,64.4429859 46.9169095,64.4429859 C48.0377249,64.4429859 48.8987149,64.2185723 49.479501,63.7722954 C50.0450033,63.3387693 50.3328491,62.6833798 50.3328491,61.3011964 L50.3328491,60.86257 C49.4412914,60.9900776 48.6236057,61.0640321 48.6236057,61.0640321" id="Shape" fill="#FFFFFF" transform="translate(46.934931, 58.887476) scale(-1, 1) rotate(-180.000000) translate(-46.934931, -58.887476) "></path>
                <path d="M132.221659,66.2612827 C132.300626,66.4958969 132.135051,66.6081036 132.066274,66.6336052 C131.890509,66.7024593 131.009141,66.8886206 130.32901,66.9319732 C129.027336,67.011028 128.3039,66.7917147 127.656885,66.5009972 C127.014963,66.2102797 126.301717,65.7410513 125.904337,65.2080692 L125.904337,66.4703953 C125.904337,66.646356 125.779519,66.7866144 125.606302,66.7866144 L122.94946,66.7866144 C122.776243,66.7866144 122.651425,66.646356 122.651425,66.4703953 L122.651425,50.9935119 C122.651425,50.8201015 122.794074,50.6772928 122.967291,50.6772928 L125.690363,50.6772928 C125.86358,50.6772928 126.003682,50.8201015 126.003682,50.9935119 L126.003682,58.7255783 C126.003682,59.7634908 126.11831,60.7988532 126.347568,61.4491425 C126.571731,62.0917812 126.877408,62.6069123 127.25441,62.9766846 C127.633959,63.3439068 128.064454,63.6014723 128.535705,63.7468311 C129.017147,63.89474 129.549534,63.9431929 129.926535,63.9431929 C130.469112,63.9431929 131.065182,63.8029345 131.065182,63.8029345 C131.263872,63.7799831 131.375954,63.9023905 131.442184,64.0834513 C131.620495,64.55778 132.124862,65.9782157 132.221659,66.2612827" id="Path" fill="#FFFFFF" transform="translate(127.446982, 58.812774) scale(-1, 1) rotate(-180.000000) translate(-127.446982, -58.812774) "></path>
                <path d="M106.661462,74.0331011 C106.330312,74.1351072 106.02973,74.2039613 105.637444,74.2779156 C105.240064,74.3493205 104.766265,74.3850226 104.228784,74.3850226 C102.353965,74.3850226 100.876526,73.8545906 99.8397721,72.8090272 C98.8081126,71.7685647 98.1076031,70.184919 97.7560743,68.1014434 L97.6287088,67.4001511 L95.2749966,67.4001511 C95.2749966,67.4001511 94.9896986,67.4103517 94.9285631,67.099233 L94.5439193,64.9392527 C94.5158995,64.7352404 94.6050548,64.6051825 94.8801645,64.6051825 L97.1701941,64.6051825 L94.8470495,51.6197993 C94.6661903,50.5742363 94.4573113,49.7148345 94.2255063,49.0619951 C93.9987958,48.4193564 93.7771798,47.9373773 93.5020708,47.585456 C93.2371508,47.2488358 92.9875143,46.9989207 92.5544721,46.8535619 C92.1978495,46.7337047 91.7851853,46.6776013 91.3343123,46.6776013 C91.0846758,46.6776013 90.7509786,46.7184038 90.5038893,46.7694068 C90.2593481,46.8178598 90.1294353,46.871413 89.9434823,46.9504678 C89.9434823,46.9504678 89.676015,47.0524739 89.5690276,46.7847078 C89.4849668,46.5628444 88.8736126,44.8822931 88.7997408,44.6757305 C88.7284163,44.4691681 88.8303086,44.3085084 88.9602213,44.2600555 C89.2658981,44.152949 89.4926086,44.0815447 89.90782,43.9820887 C90.4835113,43.8469306 90.9700473,43.8392801 91.4260148,43.8392801 C92.3787081,43.8392801 93.2498871,43.9744383 93.9707753,44.2345539 C94.6942108,44.4972198 95.3259431,44.9536973 95.8863508,45.5708345 C96.4900626,46.2389749 96.8696118,46.937717 97.2313288,47.8940246 C97.5904993,48.8375816 97.8987241,50.0106523 98.1432653,51.3775347 L100.479146,64.6051825 L103.892538,64.6051825 C103.892538,64.6051825 104.180384,64.5949819 104.238973,64.9086509 L104.626164,67.066081 C104.651636,67.2726434 104.565028,67.4001511 104.287371,67.4001511 L100.973324,67.4001511 C100.991155,67.4741056 101.141446,68.642076 101.520995,69.7411923 C101.684023,70.2078706 101.9897,70.5878432 102.246978,70.847959 C102.501709,71.1029746 102.794649,71.2840352 103.11561,71.3885914 C103.444213,71.4956984 103.818667,71.5467011 104.228784,71.5467011 C104.539555,71.5467011 104.847779,71.510999 105.079584,71.4625464 C105.400545,71.3936923 105.525363,71.3579895 105.609424,71.3324885 C105.948216,71.2304824 105.994068,71.3299384 106.060298,71.4931483 L106.85251,73.6709792 C106.934024,73.9055933 106.732787,74.0050493 106.661462,74.0331011" id="Path" fill="#FFFFFF" transform="translate(97.823934, 59.112151) scale(-1, 1) rotate(-180.000000) translate(-97.823934, -59.112151) "></path>
                <path d="M60.3577797,44.4872663 C60.3577797,44.3138559 60.2329616,44.1735974 60.0597447,44.1735974 L57.3111998,44.1735974 C57.1379828,44.1735974 57.0157121,44.3138559 57.0157121,44.4872663 L57.0157121,66.632802 C57.0157121,66.8062124 57.1379828,66.9464708 57.3111998,66.9464708 L60.0597447,66.9464708 C60.2329616,66.9464708 60.3577797,66.8062124 60.3577797,66.632802 L60.3577797,44.4872663 L60.3577797,44.4872663 Z" id="Path" fill="#FFFFFF" transform="translate(58.686746, 55.560034) scale(-1, 1) rotate(-180.000000) translate(-58.686746, -55.560034) "></path>
            </g>
        </g>
    </g>
</svg>