<?xml version="1.0" encoding="UTF-8"?>
<svg width="598.1051" height="592.0733" viewBox="0 0 598.1051 592.0733" version="1.1" 
   xmlns:xlink="http://www.w3.org/1999/xlink" 
   xmlns="http://www.w3.org/2000/svg">
   <path d="m 491.47496,588.12093 -79.3663,-35.14498 C 469.49612,390.48881 477.19932,209.75712 424.52001,34.82691 L 507.18352,3.0953677 c 25.71668,-9.8717097 54.42681,4.7493252 61.1489,31.3441573 45.09562,177.649465 37.78967,358.626065 -13.96901,525.223005 -8.1761,26.30524 -37.65505,39.58776 -62.88845,28.4584 z M 383.97413,50.545828 C 438.8201,216.74407 438.34748,388.65894 391.90777,544.51214 L 25.824472,382.26208 C 7.5772227,374.22767 -2.5981145,354.93048 0.57486408,335.25023 5.9549394,301.94014 6.8416166,267.72889 3.0539769,233.42876 0.80883689,212.83256 12.432266,193.20861 31.902085,185.73485 Z"/>
</svg>
