<?xml version="1.0" encoding="UTF-8"?>
<svg width="168px" height="108px" viewBox="0 0 168 108" version="1.1" xmlns="http://www.w3.org/2000/svg" xmlns:xlink="http://www.w3.org/1999/xlink">
    <!-- Generator: Sketch 55.2 (78181) - https://sketchapp.com -->
    <title>typeform_logo</title>
    <desc>Created with Sketch.</desc>
    <g id="integrations-table" stroke="none" stroke-width="1" fill="none" fill-rule="evenodd">
        <g id="Artboard" transform="translate(-1311.000000, -381.000000)">
            <g id="typeform_logo" transform="translate(1312.000000, 382.000000)">
                <path d="M96.2329623,74.9472475 C92.4497296,83.5846733 88.3451006,90.1703168 82.6229874,95.5868119 C76.2580818,101.657149 68.6916164,104.879129 60.0181195,105.626376 C52.8675786,106.23299 45.9018931,105.393386 39.0286352,103.338455 C32.0146352,101.283525 25.6476289,98.0615446 20.1124717,93.1582574 C15.5457044,89.0494455 12.0397547,84.1461584 9.31733962,78.6362574 C5.1192327,70.1845941 2.30544025,61.3120792 1.01355346,51.9263564 C0.183805031,45.8560198 0.137591195,39.8318614 1.70676101,33.9011089 C3.18245283,28.204396 6.18110063,23.4417426 10.3329937,19.3791089 C14.4376226,15.3626535 19.1892453,12.2813069 24.2633145,9.71316832 C32.0618994,5.83734653 40.227044,2.94176238 48.8081132,1.40108911 C54.9440503,0.280217822 61.0799874,-8.8817842e-16 67.2621384,1.25940594 C73.0735283,2.47473267 78.0562201,5.22968317 82.3929686,9.29231683 C87.0983774,13.682396 90.604327,18.9582574 93.463283,24.702198 C96.7402642,31.3329703 99.0467547,38.2911881 100.107572,45.6692079 C101.122176,53 100.661088,60.2363366 98.6791447,67.3834653 C97.7548679,70.4648119 96.6940503,73.4076238 96.2319119,74.9472475 L96.2329623,74.9472475 Z" id="Path" stroke="#262627" stroke-width="1.05"></path>
                <path d="M51.4654088,44.3289901 L51.4654088,41.5729901 L65.8127044,41.5729901 L65.8127044,44.3289901 L60.0926918,44.3289901 L60.0926918,60.0190891 L57.2316352,60.0190891 L57.2316352,44.3289901 L51.4654088,44.3289901 Z M89.8943145,60.2048515 C88.3713585,60.2048515 87.0332579,59.457604 86.3862642,58.5256436 L86.3862642,65.3421782 L83.6659497,65.3421782 L83.6659497,46.7103168 L86.3862642,46.7103168 L86.3862642,48.2509901 C86.8956667,47.3641584 88.3713585,46.523505 89.939478,46.523505 C93.7699748,46.523505 95.8002327,49.0423168 95.8002327,53.3400396 C95.8002327,57.5905347 93.723761,60.203802 89.8953648,60.203802 L89.8943145,60.2048515 Z M92.9381258,53.3410891 C92.9381258,51.9872277 92.6156792,50.9125347 92.0159497,50.1191089 C91.3700063,49.3246337 90.5854214,48.9048317 89.6170314,48.9048317 C88.6486415,48.9048317 87.8178428,49.2784554 87.2181132,50.1191089 C86.5721698,50.9125347 86.2959371,51.9872277 86.2959371,53.3410891 C86.2959371,54.6949505 86.6183836,55.7685941 87.2181132,56.5630693 C87.8640566,57.356495 88.6486415,57.7301188 89.6170314,57.7301188 C90.5854214,57.7301188 91.4162201,57.356495 92.0159497,56.5630693 C92.6146289,55.7685941 92.9381258,54.6949505 92.9381258,53.3410891 L92.9381258,53.3410891 Z M110.283019,54.1334653 L101.011893,54.1334653 C101.011893,56.2356238 102.211352,57.7773465 104.24161,57.7773465 C105.717302,57.7773465 107.009189,56.9377426 107.655132,55.535604 L109.961623,56.4696634 C108.623522,59.0829307 107.101616,60.205901 104.195396,60.205901 C99.8575975,60.205901 98.105673,56.5158416 98.105673,53.3872673 C98.105673,50.2114653 99.9048616,46.5686337 104.195396,46.5686337 C108.393503,46.5686337 110.237855,50.0246535 110.237855,52.9664158 L110.237855,54.1313663 L110.283019,54.1313663 L110.283019,54.1334653 Z M101.058107,51.8455446 L107.423013,51.8455446 C107.194044,50.2125149 106.085962,48.9510099 104.24056,48.9510099 C102.533799,48.9510099 101.380553,50.1191089 101.058107,51.8476436 L101.058107,51.8455446 Z M112.499182,49.1378218 L112.499182,46.7103168 L114.205943,46.7103168 L114.205943,46.0092475 C114.205943,42.8796238 115.86544,41.3389505 118.587855,41.3389505 C119.464868,41.3389505 120.157025,41.4785347 120.756755,41.8059802 L120.203239,44.1411287 C119.741101,43.9070891 119.233799,43.767505 118.680283,43.767505 C117.527038,43.767505 116.926258,44.4675248 116.926258,45.8686139 L116.926258,46.7554455 L119.833528,46.7554455 L119.833528,49.1850495 L116.927308,49.1850495 L116.927308,60.0180396 L114.206994,60.0180396 L114.206994,49.1850495 L112.499182,49.1850495 L112.499182,49.1378218 L112.499182,49.1378218 Z M121.54239,53.3410891 C121.54239,51.4267921 122.094855,49.7916634 123.294314,48.4839802 C124.44756,47.1773465 126.061893,46.523505 127.999723,46.523505 C129.936503,46.523505 131.505673,47.176297 132.658918,48.4829307 C133.812164,49.7906139 134.412943,51.4257426 134.412943,53.3400396 C134.412943,55.2543366 133.812164,56.8873663 132.658918,58.196099 C131.505673,59.5037822 129.936503,60.1586733 127.999723,60.1586733 C126.061893,60.1586733 124.44756,59.5037822 123.294314,58.196099 C122.141069,56.9366931 121.540289,55.3015644 121.540289,53.3400396 L121.54239,53.3410891 Z M124.401346,53.3410891 C124.401346,54.5553663 124.723792,55.5817822 125.323522,56.4686139 C125.969465,57.356495 126.846478,57.7773465 127.953509,57.7773465 C129.060541,57.7773465 129.936503,57.3575446 130.582447,56.4696634 C131.22839,55.5817822 131.551887,54.5553663 131.551887,53.3421386 C131.551887,52.1268119 131.22839,51.0993465 130.582447,50.2586931 C129.936503,49.3718614 129.059491,48.9510099 127.953509,48.9510099 C126.846478,48.9510099 125.968415,49.4180396 125.323522,50.2586931 C124.724843,51.1465743 124.401346,52.1729901 124.401346,53.3410891 L124.401346,53.3410891 Z M139.717031,59.9718614 L136.996717,59.9718614 L136.996717,46.7103168 L139.717031,46.7103168 L139.717031,48.9037822 C140.594044,47.3641584 142.11595,46.4762772 143.592692,46.4762772 C144.191371,46.4762772 144.745937,46.5707327 145.252189,46.8037228 L144.792151,49.3246337 C144.376226,49.0444158 143.867874,48.9510099 143.269195,48.9510099 C142.300805,48.9510099 141.470006,49.4652673 140.777849,50.5389109 C140.084642,51.613604 139.717031,53.1070495 139.717031,55.0685743 L139.717031,59.9729109 L139.717031,59.9718614 Z M148.020818,46.7103168 L150.743233,46.7103168 L150.743233,48.9510099 C151.80405,47.3169307 153.095937,46.4762772 154.71027,46.4762772 C156.462195,46.4762772 157.937887,47.5509703 158.307597,49.2312277 C159.229774,47.4575644 160.706516,46.4752277 162.367063,46.4752277 C164.719767,46.4752277 166.104082,48.0631287 166.104082,50.4444554 L166.104082,59.9235842 L163.381667,59.9235842 L163.381667,51.0521188 C163.381667,49.6510297 162.644346,48.9037822 161.444887,48.9037822 C159.737075,48.9037822 158.398975,51.1455248 158.398975,54.6477228 L158.398975,59.9718614 L155.67866,59.9718614 L155.67866,51.100396 C155.67866,49.6982574 154.940289,48.9510099 153.74083,48.9510099 C151.986805,48.9510099 150.694918,51.1927525 150.694918,54.9751683 L150.694918,60.0180396 L147.974604,60.0180396 L147.974604,46.7103168 L148.019767,46.7103168 L148.020818,46.7103168 Z M81.1746038,46.7103168 L78.0383648,46.7103168 L73.5640252,56.4224356 L69.3648679,46.7113663 L66.2748428,46.7113663 L71.9948553,59.9246337 L69.5035094,65.3432277 L72.6397484,65.3432277 L81.1746038,46.7113663 L81.1746038,46.7103168 Z" id="Shape" fill="#262627" fill-rule="nonzero"></path>
            </g>
        </g>
    </g>
</svg>