<?xml version="1.0" encoding="UTF-8"?>
<svg width="18px" height="20px" viewBox="0 0 18 20" version="1.1" xmlns="http://www.w3.org/2000/svg" xmlns:xlink="http://www.w3.org/1999/xlink">
    <title>icon-copy</title>
    <g id="Page-1" stroke="none" stroke-width="1" fill="none" fill-rule="evenodd">
        <g id="Customer-Experience-Statistics---V1" transform="translate(-390.000000, -1083.000000)" fill="#10C2ED" fill-rule="nonzero">
            <g id="Group-26" transform="translate(250.000000, 448.000000)">
                <g id="Group-24" transform="translate(0.000000, 419.500000)">
                    <g id="Group" transform="translate(30.000000, 212.000000)">
                        <path d="M120.624975,23.499994 C121.66051,23.499994 122.49997,22.6605338 122.49997,21.6249985 L122.49997,19.750003 L125.624963,19.750003 C126.660498,19.750003 127.499958,18.9105427 127.499958,17.8750075 L127.499958,7.40166664 C127.499958,6.97297198 127.253911,6.37898689 126.950796,6.07587176 L124.924128,4.04920423 C124.621013,3.74608911 124.027028,3.50004172 123.598333,3.50004172 L116.874984,3.50004172 C115.839448,3.50004172 114.999988,4.339502 114.999988,5.37503725 L114.999988,7.25003278 L111.874996,7.25003278 C110.83946,7.25003278 110,8.08949306 110,9.12502831 L110,21.6249985 C110,22.6605338 110.83946,23.499994 111.874996,23.499994 L120.624975,23.499994 Z M125.390588,17.8750075 L117.109358,17.8750075 C116.980002,17.8750075 116.874984,17.7699891 116.874984,17.640633 L116.874984,5.60941169 C116.874984,5.48005562 116.980002,5.37503725 117.109358,5.37503725 L121.249973,5.37503725 L121.249973,8.81252906 C121.249973,9.33029668 121.669703,9.75002682 122.187471,9.75002682 L125.624963,9.75002682 L125.624963,17.640633 C125.624963,17.7699891 125.519944,17.8750075 125.390588,17.8750075 Z M125.624969,7.87503725 L123.124969,7.87503725 L123.124969,5.37503725 L123.501211,5.37503725 C123.563353,5.37503725 123.622976,5.39971829 123.66696,5.44366349 L125.556337,7.3330404 C125.58159,7.35829363 125.603673,7.39970419 125.615589,7.44038572 L125.624969,7.4987886 L125.624969,7.87503725 Z M120.3906,21.6249985 L112.10937,21.6249985 C111.980014,21.6249985 111.874996,21.5199801 111.874996,21.3906241 L111.874996,9.35940275 C111.874996,9.23004668 111.980014,9.12502831 112.10937,9.12502831 L114.999988,9.12502831 L114.999988,17.8750075 C114.999988,18.9105427 115.839448,19.750003 116.874984,19.750003 L120.624975,19.750003 L120.624975,21.3906241 C120.624975,21.5199801 120.519956,21.6249985 120.3906,21.6249985 Z" id="icon-copy"></path>
                    </g>
                </g>
            </g>
        </g>
    </g>
</svg>