<?xml version="1.0" encoding="UTF-8"?>
<svg width="20px" height="18px" viewBox="0 0 20 18" version="1.1" xmlns="http://www.w3.org/2000/svg" xmlns:xlink="http://www.w3.org/1999/xlink">
    <title>icon-twitter</title>
    <g id="Page-1" stroke="none" stroke-width="1" fill="none" fill-rule="evenodd">
        <g id="Customer-Experience-Statistics---V1" transform="translate(-420.000000, -1084.000000)" fill="#10C2ED" fill-rule="nonzero">
            <g id="Group-26" transform="translate(250.000000, 448.000000)">
                <g id="Group-24" transform="translate(0.000000, 419.500000)">
                    <g id="Group" transform="translate(30.000000, 212.000000)">
                        <path d="M146.294388,21.6218323 C153.832479,21.6218323 157.956805,15.3781796 157.956805,9.9594532 C157.956805,9.78180317 157.956805,9.60407685 157.944102,9.42642682 C158.743585,8.84266509 159.441596,8.11932392 159.999876,7.30717681 C159.26387,7.62440628 158.464388,7.85286795 157.6395,7.94167389 C158.489717,7.43409149 159.136917,6.63460914 159.44152,5.68280629 C158.654664,6.15235626 157.766376,6.49499155 156.840017,6.67264158 C156.091232,5.87315923 155.025294,5.37824159 153.845067,5.37824159 C151.573535,5.37824159 149.746109,7.21833272 149.746109,9.47720032 C149.746109,9.79446794 149.784179,10.1116974 149.847618,10.4162621 C146.44667,10.2385739 143.41365,8.61424157 141.395909,6.12695044 C141.040532,6.73607985 140.837553,7.43405334 140.837553,8.1954651 C140.837553,9.61677976 141.560856,10.8731092 142.664903,11.6091532 C141.992373,11.5838237 141.3578,11.3934708 140.812147,11.0889061 L140.812147,11.1396414 C140.812147,13.1320149 142.220797,14.781715 144.098959,15.162459 C143.756362,15.2512649 143.38832,15.3020384 143.020318,15.3020384 C142.753785,15.3020384 142.5,15.2766708 142.246165,15.2386002 C142.766488,16.8629707 144.276647,18.0431589 146.078667,18.0812676 C144.670018,19.1853147 142.906029,19.8325147 140.989835,19.8325147 C140.6472,19.8325147 140.329971,19.8198118 140,19.7817793 C141.814723,20.9492265 143.972044,21.6218323 146.294388,21.6218323 Z" id="icon-twitter"></path>
                    </g>
                </g>
            </g>
        </g>
    </g>
</svg>